<svg width="80" height="80" viewBox="0 0 80 80" fill="none" xmlns="http://www.w3.org/2000/svg">
<path d="M56.2793 59.6672C67.5683 59.3579 76.5376 55.6464 76.5376 51.1618V29.8726C76.5376 25.3364 67.6198 21.6765 56.2793 21.3672V59.6672Z" fill="#D4FFCD"/>
<path d="M3.05155 36.2208V20.1379C3.05155 14.0038 14.6498 9.05518 28.9285 9.05518C43.2072 9.05518 54.8055 14.0038 54.8055 20.1379V59.9328C54.8055 66.067 43.2072 71.0156 28.9285 71.0156C18.4643 71.0156 9.49501 68.3866 5.3712 64.5721C3.87631 63.1803 3 61.5823 3 59.9328V44.0045" fill="white"/>
<path d="M54.8024 22.4576V59.9328C54.8024 66.0669 43.2042 71.0155 28.9255 71.0155C18.4613 71.0155 9.49198 68.3866 5.36816 64.5721V22.5091C5.36816 16.6842 16.4509 11.9418 30.1111 11.9418C43.7197 11.8903 54.8024 16.6327 54.8024 22.4576Z" fill="white"/>
<path d="M54.7509 22.4576V22.973C50.5755 27.8185 40.7299 31.2722 29.2348 31.2722C19.0283 31.2722 10.1621 28.5917 5.36816 24.6226V22.5091C5.36816 16.6842 16.4509 11.9418 30.1111 11.9418C43.6681 11.8903 54.7509 16.6327 54.7509 22.4576Z" fill="#AD7BFF"/>
<path d="M51.1871 14.3096C53.6614 16.0106 55.0531 18.021 55.0531 20.1345C55.0531 26.2686 43.4549 31.2172 29.1762 31.2172C21.6502 31.2172 14.8459 29.8254 10.1035 27.6604" stroke="black" stroke-width="1.54643" stroke-miterlimit="10" stroke-linecap="round" stroke-linejoin="round"/>
<path d="M46.2158 11.9414C46.2674 11.9414 46.3705 11.993 46.422 11.993" stroke="black" stroke-width="1.54643" stroke-miterlimit="10" stroke-linecap="round" stroke-linejoin="round"/>
<path d="M3 19.9797C3.15464 13.897 14.7013 9 28.877 9C34.2895 9 39.2896 9.72167 43.4134 10.9073" stroke="black" stroke-width="1.54643" stroke-miterlimit="10" stroke-linecap="round" stroke-linejoin="round"/>
<path d="M6.75995 25.6978C6.24448 25.2854 5.78055 24.9246 5.36816 24.5122" stroke="black" stroke-width="1.54643" stroke-miterlimit="10" stroke-linecap="round" stroke-linejoin="round"/>
<path d="M54.7539 46.0088C54.7539 52.143 43.1557 57.0916 28.877 57.0916C14.5982 57.0916 3 52.143 3 46.0088" stroke="black" stroke-width="1.54643" stroke-miterlimit="10" stroke-linecap="round" stroke-linejoin="round"/>
<path d="M25.4748 44.1032C12.7941 43.3815 3 38.7422 3 33.1235" stroke="black" stroke-width="1.54643" stroke-miterlimit="10" stroke-linecap="round" stroke-linejoin="round"/>
<path d="M47.1113 41.0601C43.0906 42.7096 37.8327 43.8436 32.0078 44.1014" stroke="black" stroke-width="1.54643" stroke-miterlimit="10" stroke-linecap="round" stroke-linejoin="round"/>
<path d="M54.7142 33.0684C54.7142 35.1818 53.3224 37.1406 50.9512 38.8417" stroke="black" stroke-width="1.54643" stroke-miterlimit="10" stroke-linecap="round" stroke-linejoin="round"/>
<path d="M20.7598 70.4432C23.2856 70.804 25.9661 70.9587 28.7497 70.9587C43.0284 70.9587 54.6266 66.0101 54.6266 59.8759V20.0811" stroke="black" stroke-width="1.54643" stroke-miterlimit="10" stroke-linecap="round" stroke-linejoin="round"/>
<path d="M12.4727 68.4307C13.0397 68.6369 13.6067 68.843 14.2253 68.9977" stroke="black" stroke-width="1.54643" stroke-miterlimit="10" stroke-linecap="round" stroke-linejoin="round"/>
<path d="M3 43.3262V59.873C3 61.5225 3.82476 63.1205 5.3712 64.5123C6.40215 65.4917 7.74239 66.368 9.39192 67.1412" stroke="black" stroke-width="1.54643" stroke-miterlimit="10" stroke-linecap="round" stroke-linejoin="round"/>
<path d="M3 20.1372V32.7664" stroke="black" stroke-width="1.54643" stroke-miterlimit="10" stroke-linecap="round" stroke-linejoin="round"/>
<path d="M75.0932 24.5122C76.3303 25.6463 77.0005 26.935 77.0005 28.2752C77.0005 33.0176 68.392 36.9352 57.4639 37.2445" stroke="black" stroke-width="1.54643" stroke-miterlimit="10" stroke-linecap="round" stroke-linejoin="round"/>
<path d="M72.2637 22.6064C72.4699 22.7095 72.6761 22.8126 72.8822 22.9157" stroke="black" stroke-width="1.54643" stroke-miterlimit="10" stroke-linecap="round" stroke-linejoin="round"/>
<path d="M57.4639 19.3135C62.0516 19.4681 66.227 20.2413 69.526 21.4269" stroke="black" stroke-width="1.54643" stroke-miterlimit="10" stroke-linecap="round" stroke-linejoin="round"/>
<path d="M57.4639 48.4385C68.3404 48.1293 76.9489 44.2116 77.0005 39.4692" stroke="black" stroke-width="1.54643" stroke-miterlimit="10" stroke-linecap="round" stroke-linejoin="round"/>
<path d="M76.999 28.4315V28.2769" stroke="black" stroke-width="1.54643" stroke-miterlimit="10" stroke-linecap="round" stroke-linejoin="round"/>
<path d="M57.4639 59.6686C68.3404 59.3593 77.0005 55.4417 77.0005 50.6993V34.668" stroke="black" stroke-width="1.54643" stroke-miterlimit="10" stroke-linecap="round" stroke-linejoin="round"/>
<path fill-rule="evenodd" clip-rule="evenodd" d="M11.3203 35.1253C11.5688 34.1314 13.1817 33.6773 14.9209 34.1113C16.6596 34.5459 17.87 35.7052 17.622 36.699C17.3735 37.6924 15.7606 38.1465 14.0214 37.7125C12.2827 37.2779 11.0724 36.1186 11.3203 35.1253Z" fill="#AD7BFF"/>
<path fill-rule="evenodd" clip-rule="evenodd" d="M11.3203 48.0753C11.5688 47.0814 13.1817 46.6273 14.9209 47.0618C16.6596 47.4959 17.87 48.6552 17.622 49.649C17.3735 50.6429 15.7606 51.097 14.0214 50.6624C12.2827 50.2284 11.0724 49.0691 11.3203 48.0753Z" fill="#AD7BFF"/>
<path fill-rule="evenodd" clip-rule="evenodd" d="M11.3204 61.9503C11.5684 60.9564 13.1818 60.5023 14.9205 60.9368C16.6597 61.3709 17.8701 62.5302 17.6216 63.524C17.3737 64.5179 15.7602 64.972 14.0215 64.5375C12.2823 64.1034 11.072 62.9441 11.3204 61.9503Z" fill="#AD7BFF"/>
</svg>
