<svg width="80" height="80" viewBox="0 0 80 80" fill="none" xmlns="http://www.w3.org/2000/svg">
<path d="M61.0688 6.00756C61.0178 4.42523 59.7417 3.2002 58.2104 3.2002H21.7656C20.1833 3.2002 18.9072 4.47627 18.9072 6.05861V43.4732H61.1198V12.0306" fill="white"/>
<path d="M23.399 3.2002H21.7656C20.1833 3.2002 18.9072 4.47627 18.9072 6.05861V43.4732H61.1198V12.0306" fill="white"/>
<path d="M23.399 3.2002H21.7656C20.1833 3.2002 18.9072 4.47627 18.9072 6.05861V43.4732H61.1198V12.0306" stroke="black" stroke-width="1.43559" stroke-miterlimit="10" stroke-linecap="round" stroke-linejoin="round"/>
<path d="M26.7332 3.2002H26.5801" stroke="black" stroke-width="1.43559" stroke-miterlimit="10" stroke-linecap="round" stroke-linejoin="round"/>
<path d="M61.0779 6.00756C61.0269 4.42523 59.7508 3.2002 58.2195 3.2002H34.8418" fill="white"/>
<path d="M61.0779 6.00756C61.0269 4.42523 59.7508 3.2002 58.2195 3.2002H34.8418" stroke="black" stroke-width="1.43559" stroke-miterlimit="10" stroke-linecap="round" stroke-linejoin="round"/>
<path d="M65.2579 12.0332C65.2579 10.1446 63.7267 8.61328 61.8381 8.61328H18.1963C16.3077 8.61328 14.7764 10.1446 14.7764 12.0332V56.7979H65.309V16.627" fill="white"/>
<path d="M65.2579 12.0332C65.2579 10.1446 63.7267 8.61328 61.8381 8.61328H18.1963C16.3077 8.61328 14.7764 10.1446 14.7764 12.0332V56.7979H65.309V16.627" stroke="black" stroke-width="1.43559" stroke-miterlimit="10" stroke-linecap="round" stroke-linejoin="round"/>
<path d="M10.6445 53.9838V70.4196H68.9357V18.7641C68.9357 16.5692 67.1492 14.7827 64.9543 14.7827H14.6259C12.431 14.7827 10.6445 16.5692 10.6445 18.7641V44.6939" fill="white"/>
<path d="M10.6445 53.9838V70.4196H68.9357V18.7641C68.9357 16.5692 67.1492 14.7827 64.9543 14.7827H14.6259C12.431 14.7827 10.6445 16.5692 10.6445 18.7641V44.6939" stroke="black" stroke-width="1.43559" stroke-miterlimit="10" stroke-linecap="round" stroke-linejoin="round"/>
<path d="M74.4963 53.9839V71.849C74.4963 74.7074 72.1484 77.0553 69.29 77.0553H10.5394C7.68099 77.0553 5.33301 74.7074 5.33301 71.849V53.9839H27.0773V54.137C27.0773 61.232 32.8452 66.9999 39.9402 66.9999C47.0352 66.9999 52.803 61.232 52.803 54.137V53.9839H74.4963Z" fill="white"/>
<path d="M74.6912 55.9756V72.3094C74.6912 74.9126 72.4453 77.0564 69.689 77.0564H13.2864C10.5301 77.0564 8.28418 74.9126 8.28418 72.3094V58.783C8.28418 57.2517 9.50921 56.0266 11.0405 56.0266H27.5274V56.1287C27.5274 61.233 33.0401 67.103 39.8798 67.103C46.6686 67.103 52.7427 62.6112 52.7427 56.1287V56.0266H74.6912V55.9756Z" fill="#F87373"/>
<path d="M74.6912 55.9756V67.3582C74.6912 69.9614 72.4453 72.1052 69.689 72.1052H13.2864C10.5301 72.1052 8.28418 69.9614 8.28418 67.3582V58.7319C8.28418 57.2006 9.50921 55.9756 11.0405 55.9756H27.5274V56.0777C27.5274 61.182 33.0401 67.0519 39.8798 67.0519C46.6686 67.0519 52.7427 62.5601 52.7427 56.0777V55.9756H74.6912Z" fill="#FFC4C4"/>
<path d="M24.3721 53.9839H27.0263V54.137C27.0263 61.232 32.7942 66.9999 39.8892 66.9999C46.9841 66.9999 52.752 61.232 52.752 54.137V53.9839H74.4963V71.849C74.4963 74.7074 72.1484 77.0553 69.29 77.0553H10.5394C7.68099 77.0553 5.33301 74.7074 5.33301 71.849V53.9839H12.6322" stroke="black" stroke-width="1.43559" stroke-miterlimit="10" stroke-linecap="round" stroke-linejoin="round"/>
<path d="M18.9072 53.9839H20.0812" stroke="black" stroke-width="1.43559" stroke-miterlimit="10" stroke-linecap="round" stroke-linejoin="round"/>
<path d="M21.2676 40.4113L36.6826 29.9985L44.6453 41.6874L58.7842 31.2236" stroke="black" stroke-width="1.43559" stroke-miterlimit="10" stroke-linecap="round" stroke-linejoin="round"/>
<path d="M21.38 43.4728C23.0714 43.4728 24.4425 42.1017 24.4425 40.4102C24.4425 38.7188 23.0714 37.3477 21.38 37.3477C19.6885 37.3477 18.3174 38.7188 18.3174 40.4102C18.3174 42.1017 19.6885 43.4728 21.38 43.4728Z" fill="#FFC4C4" stroke="black" stroke-width="1.43559" stroke-miterlimit="10" stroke-linecap="round" stroke-linejoin="round"/>
<path d="M36.7247 33.0617C38.4161 33.0617 39.7873 31.6905 39.7873 29.9991C39.7873 28.3077 38.4161 26.9365 36.7247 26.9365C35.0333 26.9365 33.6621 28.3077 33.6621 29.9991C33.6621 31.6905 35.0333 33.0617 36.7247 33.0617Z" fill="#FFC4C4" stroke="black" stroke-width="1.43559" stroke-miterlimit="10" stroke-linecap="round" stroke-linejoin="round"/>
<path d="M44.3966 44.7458C46.088 44.7458 47.4592 43.3746 47.4592 41.6832C47.4592 39.9918 46.088 38.6206 44.3966 38.6206C42.7051 38.6206 41.334 39.9918 41.334 41.6832C41.334 43.3746 42.7051 44.7458 44.3966 44.7458Z" fill="#FFC4C4" stroke="black" stroke-width="1.43559" stroke-miterlimit="10" stroke-linecap="round" stroke-linejoin="round"/>
<path d="M58.5616 34.2883C60.253 34.2883 61.6242 32.9171 61.6242 31.2257C61.6242 29.5343 60.253 28.1631 58.5616 28.1631C56.8702 28.1631 55.499 29.5343 55.499 31.2257C55.499 32.9171 56.8702 34.2883 58.5616 34.2883Z" fill="#FFC4C4" stroke="black" stroke-width="1.43559" stroke-miterlimit="10" stroke-linecap="round" stroke-linejoin="round"/>
</svg>
