<svg width="80" height="80" viewBox="0 0 80 80" fill="none" xmlns="http://www.w3.org/2000/svg">
<path d="M14.0469 16.2179L66.5514 63.1977V16.102" stroke="#030404" stroke-width="2.2434" stroke-miterlimit="2" stroke-linecap="round" stroke-linejoin="round"/>
<path d="M19.4611 16.3106C19.4611 13.0741 16.8386 10.4524 13.6036 10.4524C10.3686 10.4524 7.74609 13.0741 7.74609 16.3106C7.74609 19.5449 10.3686 22.1674 13.6036 22.1674C16.8386 22.1674 19.4611 19.5449 19.4611 16.3106Z" fill="#F3F4F5"/>
<path d="M19.4611 16.3106C19.4611 13.0741 16.8386 10.4524 13.6036 10.4524C10.3686 10.4524 7.74609 13.0741 7.74609 16.3106C7.74609 19.5449 10.3686 22.1674 13.6036 22.1674C16.8386 22.1674 19.4611 19.5449 19.4611 16.3106Z" fill="#FDD206"/>
<path d="M44.6564 16.3106C44.6564 13.0741 42.0339 10.4524 38.7989 10.4524C35.5647 10.4524 32.9414 13.0741 32.9414 16.3106C32.9414 19.5449 35.5647 22.1674 38.7989 22.1674C42.0339 22.1674 44.6564 19.5449 44.6564 16.3106Z" fill="#F3F4F5"/>
<path d="M44.6564 16.3106C44.6564 13.0741 42.0339 10.4524 38.7989 10.4524C35.5647 10.4524 32.9414 13.0741 32.9414 16.3106C32.9414 19.5449 35.5647 22.1674 38.7989 22.1674C42.0339 22.1674 44.6564 19.5449 44.6564 16.3106Z" fill="#F3F4F5"/>
<path d="M73.0002 16.3106C73.0002 13.0741 70.3777 10.4524 67.1427 10.4524C63.9084 10.4524 61.2852 13.0741 61.2852 16.3106C61.2852 19.5449 63.9084 22.1674 67.1427 22.1674C70.3777 22.1674 73.0002 19.5449 73.0002 16.3106Z" fill="#F3F4F5"/>
<path d="M73.0002 16.3106C73.0002 13.0741 70.3777 10.4524 67.1427 10.4524C63.9084 10.4524 61.2852 13.0741 61.2852 16.3106C61.2852 19.5449 63.9084 22.1674 67.1427 22.1674C70.3777 22.1674 73.0002 19.5449 73.0002 16.3106Z" fill="#FDD206"/>
<path d="M19.4611 39.5732C19.4611 36.3367 16.8386 33.715 13.6036 33.715C10.3686 33.715 7.74609 36.3367 7.74609 39.5732C7.74609 42.8075 10.3686 45.43 13.6036 45.43C16.8386 45.43 19.4611 42.8075 19.4611 39.5732Z" fill="#F3F4F5"/>
<path d="M19.4611 39.5732C19.4611 36.3367 16.8386 33.715 13.6036 33.715C10.3686 33.715 7.74609 36.3367 7.74609 39.5732C7.74609 42.8075 10.3686 45.43 13.6036 45.43C16.8386 45.43 19.4611 42.8075 19.4611 39.5732Z" fill="#F3F4F5"/>
<path d="M44.6564 39.5732C44.6564 36.3367 42.0339 33.715 38.7989 33.715C35.5647 33.715 32.9414 36.3367 32.9414 39.5732C32.9414 42.8075 35.5647 45.43 38.7989 45.43C42.0339 45.43 44.6564 42.8075 44.6564 39.5732Z" fill="#F3F4F5"/>
<path d="M44.6564 39.5732C44.6564 36.3367 42.0339 33.715 38.7989 33.715C35.5647 33.715 32.9414 36.3367 32.9414 39.5732C32.9414 42.8075 35.5647 45.43 38.7989 45.43C42.0339 45.43 44.6564 42.8075 44.6564 39.5732Z" fill="#FDD206"/>
<path d="M73.0002 39.5732C73.0002 36.3367 70.3777 33.715 67.1427 33.715C63.9084 33.715 61.2852 36.3367 61.2852 39.5732C61.2852 42.8075 63.9084 45.43 67.1427 45.43C70.3777 45.43 73.0002 42.8075 73.0002 39.5732Z" fill="#FDD206"/>
<path d="M19.4611 62.8351C19.4611 59.5986 16.8386 56.9768 13.6036 56.9768C10.3686 56.9768 7.74609 59.5986 7.74609 62.8351C7.74609 66.0693 10.3686 68.6918 13.6036 68.6918C16.8386 68.6918 19.4611 66.0693 19.4611 62.8351Z" fill="#F3F4F5"/>
<path d="M19.4611 62.8351C19.4611 59.5986 16.8386 56.9768 13.6036 56.9768C10.3686 56.9768 7.74609 59.5986 7.74609 62.8351C7.74609 66.0693 10.3686 68.6918 13.6036 68.6918C16.8386 68.6918 19.4611 66.0693 19.4611 62.8351Z" fill="#F3F4F5"/>
<path d="M44.6564 62.8351C44.6564 59.5986 42.0339 56.9768 38.7989 56.9768C35.5647 56.9768 32.9414 59.5986 32.9414 62.8351C32.9414 66.0693 35.5647 68.6918 38.7989 68.6918C42.0339 68.6918 44.6564 66.0693 44.6564 62.8351Z" fill="#F3F4F5"/>
<path d="M44.6564 62.8351C44.6564 59.5986 42.0339 56.9768 38.7989 56.9768C35.5647 56.9768 32.9414 59.5986 32.9414 62.8351C32.9414 66.0693 35.5647 68.6918 38.7989 68.6918C42.0339 68.6918 44.6564 66.0693 44.6564 62.8351Z" fill="#F3F4F5"/>
<path d="M73.0002 62.8351C73.0002 59.5986 70.3777 56.9768 67.1427 56.9768C63.9084 56.9768 61.2852 59.5986 61.2852 62.8351C61.2852 66.0693 63.9084 68.6918 67.1427 68.6918C70.3777 68.6918 73.0002 66.0693 73.0002 62.8351Z" fill="#F3F4F5"/>
<path d="M73.0002 62.8351C73.0002 59.5986 70.3777 56.9768 67.1427 56.9768C63.9084 56.9768 61.2852 59.5986 61.2852 62.8351C61.2852 66.0693 63.9084 68.6918 67.1427 68.6918C70.3777 68.6918 73.0002 66.0693 73.0002 62.8351Z" fill="#FDD206"/>
<path fill-rule="evenodd" clip-rule="evenodd" d="M19.4611 16.3106C19.4611 13.0741 16.8386 10.4524 13.6036 10.4524C10.3686 10.4524 7.74609 13.0741 7.74609 16.3106C7.74609 19.5449 10.3686 22.1674 13.6036 22.1674C16.8386 22.1674 19.4611 19.5449 19.4611 16.3106Z" stroke="#030404" stroke-width="2.2434" stroke-miterlimit="2" stroke-linecap="round" stroke-linejoin="round"/>
<path fill-rule="evenodd" clip-rule="evenodd" d="M19.4611 16.3106C19.4611 13.0741 16.8386 10.4524 13.6036 10.4524C10.3686 10.4524 7.74609 13.0741 7.74609 16.3106C7.74609 19.5449 10.3686 22.1674 13.6036 22.1674C16.8386 22.1674 19.4611 19.5449 19.4611 16.3106Z" stroke="#030404" stroke-width="2.2434" stroke-miterlimit="2" stroke-linecap="round" stroke-linejoin="round"/>
<path fill-rule="evenodd" clip-rule="evenodd" d="M44.6564 16.3106C44.6564 13.0741 42.0339 10.4524 38.7989 10.4524C35.5647 10.4524 32.9414 13.0741 32.9414 16.3106C32.9414 19.5449 35.5647 22.1674 38.7989 22.1674C42.0339 22.1674 44.6564 19.5449 44.6564 16.3106Z" stroke="#030404" stroke-width="2.2434" stroke-miterlimit="2" stroke-linecap="round" stroke-linejoin="round"/>
<path fill-rule="evenodd" clip-rule="evenodd" d="M44.6564 16.3106C44.6564 13.0741 42.0339 10.4524 38.7989 10.4524C35.5647 10.4524 32.9414 13.0741 32.9414 16.3106C32.9414 19.5449 35.5647 22.1674 38.7989 22.1674C42.0339 22.1674 44.6564 19.5449 44.6564 16.3106Z" stroke="#030404" stroke-width="2.2434" stroke-miterlimit="2" stroke-linecap="round" stroke-linejoin="round"/>
<path fill-rule="evenodd" clip-rule="evenodd" d="M73.0002 16.3106C73.0002 13.0741 70.3777 10.4524 67.1427 10.4524C63.9084 10.4524 61.2852 13.0741 61.2852 16.3106C61.2852 19.5449 63.9084 22.1674 67.1427 22.1674C70.3777 22.1674 73.0002 19.5449 73.0002 16.3106Z" stroke="#030404" stroke-width="2.2434" stroke-miterlimit="2" stroke-linecap="round" stroke-linejoin="round"/>
<path fill-rule="evenodd" clip-rule="evenodd" d="M73.0002 16.3106C73.0002 13.0741 70.3777 10.4524 67.1427 10.4524C63.9084 10.4524 61.2852 13.0741 61.2852 16.3106C61.2852 19.5449 63.9084 22.1674 67.1427 22.1674C70.3777 22.1674 73.0002 19.5449 73.0002 16.3106Z" stroke="#030404" stroke-width="2.2434" stroke-miterlimit="2" stroke-linecap="round" stroke-linejoin="round"/>
<path fill-rule="evenodd" clip-rule="evenodd" d="M19.4611 39.5732C19.4611 36.3367 16.8386 33.715 13.6036 33.715C10.3686 33.715 7.74609 36.3367 7.74609 39.5732C7.74609 42.8075 10.3686 45.43 13.6036 45.43C16.8386 45.43 19.4611 42.8075 19.4611 39.5732Z" stroke="#030404" stroke-width="2.2434" stroke-miterlimit="2" stroke-linecap="round" stroke-linejoin="round"/>
<path fill-rule="evenodd" clip-rule="evenodd" d="M19.4611 39.5732C19.4611 36.3367 16.8386 33.715 13.6036 33.715C10.3686 33.715 7.74609 36.3367 7.74609 39.5732C7.74609 42.8075 10.3686 45.43 13.6036 45.43C16.8386 45.43 19.4611 42.8075 19.4611 39.5732Z" stroke="#030404" stroke-width="2.2434" stroke-miterlimit="2" stroke-linecap="round" stroke-linejoin="round"/>
<path fill-rule="evenodd" clip-rule="evenodd" d="M44.6564 39.5732C44.6564 36.3367 42.0339 33.715 38.7989 33.715C35.5647 33.715 32.9414 36.3367 32.9414 39.5732C32.9414 42.8075 35.5647 45.43 38.7989 45.43C42.0339 45.43 44.6564 42.8075 44.6564 39.5732Z" stroke="#030404" stroke-width="2.2434" stroke-miterlimit="2" stroke-linecap="round" stroke-linejoin="round"/>
<path fill-rule="evenodd" clip-rule="evenodd" d="M44.6564 39.5732C44.6564 36.3367 42.0339 33.715 38.7989 33.715C35.5647 33.715 32.9414 36.3367 32.9414 39.5732C32.9414 42.8075 35.5647 45.43 38.7989 45.43C42.0339 45.43 44.6564 42.8075 44.6564 39.5732Z" stroke="#030404" stroke-width="2.2434" stroke-miterlimit="2" stroke-linecap="round" stroke-linejoin="round"/>
<path fill-rule="evenodd" clip-rule="evenodd" d="M73.0002 39.5732C73.0002 36.3367 70.3777 33.715 67.1427 33.715C63.9084 33.715 61.2852 36.3367 61.2852 39.5732C61.2852 42.8075 63.9084 45.43 67.1427 45.43C70.3777 45.43 73.0002 42.8075 73.0002 39.5732Z" stroke="#030404" stroke-width="2.2434" stroke-miterlimit="2" stroke-linecap="round" stroke-linejoin="round"/>
<path fill-rule="evenodd" clip-rule="evenodd" d="M19.4611 62.8351C19.4611 59.5986 16.8386 56.9768 13.6036 56.9768C10.3686 56.9768 7.74609 59.5986 7.74609 62.8351C7.74609 66.0693 10.3686 68.6918 13.6036 68.6918C16.8386 68.6918 19.4611 66.0693 19.4611 62.8351Z" stroke="#030404" stroke-width="2.2434" stroke-miterlimit="2" stroke-linecap="round" stroke-linejoin="round"/>
<path fill-rule="evenodd" clip-rule="evenodd" d="M19.4611 62.8351C19.4611 59.5986 16.8386 56.9768 13.6036 56.9768C10.3686 56.9768 7.74609 59.5986 7.74609 62.8351C7.74609 66.0693 10.3686 68.6918 13.6036 68.6918C16.8386 68.6918 19.4611 66.0693 19.4611 62.8351Z" stroke="#030404" stroke-width="2.2434" stroke-miterlimit="2" stroke-linecap="round" stroke-linejoin="round"/>
<path fill-rule="evenodd" clip-rule="evenodd" d="M44.6564 62.8351C44.6564 59.5986 42.0339 56.9768 38.7989 56.9768C35.5647 56.9768 32.9414 59.5986 32.9414 62.8351C32.9414 66.0693 35.5647 68.6918 38.7989 68.6918C42.0339 68.6918 44.6564 66.0693 44.6564 62.8351Z" stroke="#030404" stroke-width="2.2434" stroke-miterlimit="2" stroke-linecap="round" stroke-linejoin="round"/>
<path fill-rule="evenodd" clip-rule="evenodd" d="M44.6564 62.8351C44.6564 59.5986 42.0339 56.9768 38.7989 56.9768C35.5647 56.9768 32.9414 59.5986 32.9414 62.8351C32.9414 66.0693 35.5647 68.6918 38.7989 68.6918C42.0339 68.6918 44.6564 66.0693 44.6564 62.8351Z" stroke="#030404" stroke-width="2.2434" stroke-miterlimit="2" stroke-linecap="round" stroke-linejoin="round"/>
<path fill-rule="evenodd" clip-rule="evenodd" d="M73.0002 62.8351C73.0002 59.5986 70.3777 56.9768 67.1427 56.9768C63.9084 56.9768 61.2852 59.5986 61.2852 62.8351C61.2852 66.0693 63.9084 68.6918 67.1427 68.6918C70.3777 68.6918 73.0002 66.0693 73.0002 62.8351Z" stroke="#030404" stroke-width="2.2434" stroke-miterlimit="2" stroke-linecap="round" stroke-linejoin="round"/>
<path fill-rule="evenodd" clip-rule="evenodd" d="M73.0002 62.8351C73.0002 59.5986 70.3777 56.9768 67.1427 56.9768C63.9084 56.9768 61.2852 59.5986 61.2852 62.8351C61.2852 66.0693 63.9084 68.6918 67.1427 68.6918C70.3777 68.6918 73.0002 66.0693 73.0002 62.8351Z" stroke="#030404" stroke-width="2.2434" stroke-miterlimit="2" stroke-linecap="round" stroke-linejoin="round"/>
</svg>
