<svg width="80" height="80" viewBox="0 0 80 80" fill="none" xmlns="http://www.w3.org/2000/svg">
<path d="M29.5234 30.4936C29.5234 30.715 29.5341 30.9345 29.5408 31.154C33.004 28.9112 37.1289 27.6038 41.5623 27.6038C45.9956 27.6038 50.1212 28.9112 53.5844 31.154C53.5911 30.9345 53.6011 30.715 53.6011 30.4936C53.6011 21.9038 48.7095 14.4623 41.5623 10.7877C34.4158 14.4623 29.5234 21.9038 29.5234 30.4936Z" fill="#4139FB"/>
<path d="M41.205 50.2003C34.2432 46.62 29.4271 39.4635 29.1835 31.1555C23.2628 34.99 19.2924 41.5698 19.0703 49.095C22.5335 51.3378 26.6591 52.6452 31.0924 52.6452C34.7376 52.6452 38.1727 51.7593 41.205 50.2003Z" fill="#4139FB"/>
<path d="M51.9987 31.1555C51.7545 39.4642 46.9384 46.62 39.9766 50.2003C43.0089 51.7593 46.4446 52.6452 50.0891 52.6452C54.5225 52.6452 58.6474 51.3378 62.1112 49.095C61.8898 41.5698 57.9188 34.99 51.9987 31.1555Z" fill="#4139FB"/>
<path d="M29.5234 31.1528C29.767 39.4608 34.5831 46.6173 41.5449 50.1976C48.5067 46.6173 53.3228 39.4615 53.567 31.1528C50.1038 28.91 45.9783 27.6026 41.5449 27.6026C37.1115 27.6026 32.9866 28.91 29.5234 31.1528Z" fill="white"/>
<path d="M39.9242 45.5406C35.7531 42.7351 32.9316 38.3218 32.1367 33.3726C34.5588 32.2177 37.2111 31.6149 39.9242 31.6149C42.6373 31.6149 45.2903 32.2177 47.7124 33.3726C46.9168 38.3218 44.0953 42.7351 39.9242 45.5406Z" fill="#F739FB"/>
<path d="M29.4889 9.67634C18.0128 9.67634 8.67634 19.0128 8.67634 30.4896C8.67634 41.9657 18.0128 51.3015 29.4889 51.3015C40.9657 51.3015 50.3015 41.9657 50.3015 30.4896C50.3015 19.0128 40.9657 9.67634 29.4889 9.67634ZM29.4889 53.9778C16.5368 53.9778 6 43.4411 6 30.4896C6 17.5374 16.5368 7 29.4889 7C42.4417 7 52.9785 17.5374 52.9785 30.4896C52.9785 43.4411 42.4417 53.9778 29.4889 53.9778Z" fill="white"/>
<path d="M50.3997 9.67634C38.9236 9.67634 29.5865 19.0128 29.5865 30.4896C29.5865 41.9657 38.9236 51.3015 50.3997 51.3015C61.8759 51.3015 71.2123 41.9657 71.2123 30.4896C71.2123 19.0128 61.8759 9.67634 50.3997 9.67634ZM50.3997 53.9778C37.4476 53.9778 26.9102 43.4411 26.9102 30.4896C26.9102 17.5374 37.4476 7 50.3997 7C63.3519 7 73.8886 17.5374 73.8886 30.4896C73.8886 43.4411 63.3519 53.9778 50.3997 53.9778Z" fill="white"/>
<path d="M39.942 28.9415C28.4659 28.9415 19.1295 38.2779 19.1295 49.7541C19.1295 61.2302 28.4659 70.5666 39.942 70.5666C51.4182 70.5666 60.7546 61.2302 60.7546 49.7541C60.7546 38.2779 51.4182 28.9415 39.942 28.9415ZM39.942 73.243C26.9899 73.243 16.4531 62.7062 16.4531 49.7541C16.4531 36.8026 26.9899 26.2652 39.942 26.2652C52.8942 26.2652 63.4309 36.8026 63.4309 49.7541C63.4309 62.7062 52.8942 73.243 39.942 73.243Z" fill="white"/>
</svg>
