<svg width="80" height="80" viewBox="0 0 80 80" fill="none" xmlns="http://www.w3.org/2000/svg">
<path d="M12.3068 72.4189H11.7344" stroke="#91C2FF" stroke-width="1.71717" stroke-miterlimit="10" stroke-linecap="round" stroke-linejoin="round"/>
<path d="M60.1565 72.4189H15.1094" stroke="#91C2FF" stroke-width="1.71717" stroke-miterlimit="10" stroke-linecap="round" stroke-linejoin="round"/>
<path d="M67.3137 72.4338H40.0107C37.0915 72.4338 34.6875 70.0298 34.6875 67.1106V10.3867C34.6875 7.46752 37.0915 5.06348 40.0107 5.06348H67.3137C70.2329 5.06348 72.637 7.46752 72.637 10.3867V67.1106C72.6942 70.0298 70.2902 72.4338 67.3137 72.4338Z" fill="white"/>
<path d="M72.637 10.3232V67.1043C72.637 70.0235 70.2329 72.4276 67.3137 72.4276H40.0107C37.0915 72.4276 34.6875 70.0235 34.6875 67.1043V10.3232C34.6875 7.40404 37.0915 5 40.0107 5H67.3137C70.2329 5 72.637 7.40404 72.637 10.3232Z" fill="white"/>
<path d="M72.637 11.9209H34.6875V63.3788H72.637V11.9209Z" fill="black"/>
<path d="M67.3137 72.4338H40.0107C37.0915 72.4338 34.6875 70.0298 34.6875 67.1106V10.3867C34.6875 7.46752 37.0915 5.06348 40.0107 5.06348H67.3137C70.2329 5.06348 72.637 7.46752 72.637 10.3867V67.1106C72.6942 70.0298 70.2902 72.4338 67.3137 72.4338Z" stroke="black" stroke-width="1.71717" stroke-miterlimit="10" stroke-linecap="round" stroke-linejoin="round"/>
<path d="M68.4531 11.1826H72.4026" stroke="black" stroke-width="1.71717" stroke-miterlimit="10" stroke-linecap="round" stroke-linejoin="round"/>
<path d="M38.0625 11.1826H64.7931" stroke="black" stroke-width="1.71717" stroke-miterlimit="10" stroke-linecap="round" stroke-linejoin="round"/>
<path d="M62.9063 63.1553H34.6875" stroke="black" stroke-width="1.71717" stroke-miterlimit="10" stroke-linecap="round" stroke-linejoin="round"/>
<path d="M72.1458 63.1553H66.4219" stroke="black" stroke-width="1.71717" stroke-miterlimit="10" stroke-linecap="round" stroke-linejoin="round"/>
<path d="M50.2188 8.08105H54.8551" stroke="black" stroke-width="1.71717" stroke-miterlimit="10" stroke-linecap="round" stroke-linejoin="round"/>
<path d="M55.6786 69.3356H49.783C49.2679 69.3356 48.8672 68.9349 48.8672 68.4197V66.6453C48.8672 66.1302 49.2679 65.7295 49.783 65.7295H55.6786C56.1938 65.7295 56.5945 66.1302 56.5945 66.6453V68.4197C56.5372 68.9349 56.1365 69.3356 55.6786 69.3356Z" stroke="black" stroke-width="1.71717" stroke-miterlimit="10" stroke-linecap="round" stroke-linejoin="round"/>
<path d="M35.505 75H12.3232C9.40404 75 7 72.596 7 69.6768V24.229C7 21.3098 9.40404 18.9058 12.3232 18.9058H35.505C38.4242 18.9058 40.8283 21.3098 40.8283 24.229V69.6768C40.8283 72.596 38.4242 75 35.505 75Z" fill="white"/>
<path d="M40.8283 24.229V69.6768C40.8283 72.596 38.4242 75 35.505 75H12.3232C9.40404 75 7 72.596 7 69.6768V24.229C7 21.3098 9.40404 18.9058 12.3232 18.9058H35.505C38.4242 18.9058 40.8283 21.2526 40.8283 24.229Z" fill="#FFDAB8"/>
<path d="M40.8283 24.814H7V66.484H40.8283V24.814Z" fill="white"/>
<path d="M35.505 75H12.3232C9.40404 75 7 72.596 7 69.6768V24.229C7 21.3098 9.40404 18.9058 12.3232 18.9058H35.505C38.4242 18.9058 40.8283 21.3098 40.8283 24.229V69.6768C40.8283 72.596 38.4242 75 35.505 75Z" stroke="black" stroke-width="1.71717" stroke-miterlimit="10" stroke-linecap="round" stroke-linejoin="round"/>
<path d="M24.3057 72.3804C25.2856 72.3804 26.0801 71.5859 26.0801 70.606C26.0801 69.626 25.2856 68.8315 24.3057 68.8315C23.3257 68.8315 22.5312 69.626 22.5312 70.606C22.5312 71.5859 23.3257 72.3804 24.3057 72.3804Z" stroke="black" stroke-width="1.71717" stroke-miterlimit="10" stroke-linecap="round" stroke-linejoin="round"/>
<path d="M36.7109 25.0884H40.7177" stroke="black" stroke-width="1.71717" stroke-miterlimit="10" stroke-linecap="round" stroke-linejoin="round"/>
<path d="M11.0547 25.0884H33.6069" stroke="black" stroke-width="1.71717" stroke-miterlimit="10" stroke-linecap="round" stroke-linejoin="round"/>
<path d="M31.7201 66.2358H7.67969" stroke="black" stroke-width="1.71717" stroke-miterlimit="10" stroke-linecap="round" stroke-linejoin="round"/>
<path d="M41.0911 66.2358H35.3672" stroke="black" stroke-width="1.71717" stroke-miterlimit="10" stroke-linecap="round" stroke-linejoin="round"/>
<path d="M22.5312 22.0078H27.1676" stroke="black" stroke-width="1.71717" stroke-miterlimit="10" stroke-linecap="round" stroke-linejoin="round"/>
<path d="M19.8281 22.0078H20.1143" stroke="black" stroke-width="1.71717" stroke-miterlimit="10" stroke-linecap="round" stroke-linejoin="round"/>
</svg>
