<svg width="80" height="80" viewBox="0 0 80 80" fill="none" xmlns="http://www.w3.org/2000/svg">
<path d="M70.3892 13.771V45.047H55.5742V13.771C55.5742 8.49437 58.1509 5.85617 62.9802 5.85617C63.844 5.85617 64.7048 5.94019 65.5397 6.11105C69.3835 6.88133 70.3892 9.43551 70.3892 13.771Z" fill="white"/>
<path d="M70.2339 45.047H60.5352V13.771C60.5352 9.43551 61.5406 6.88133 65.3844 6.11105C64.5495 5.94019 63.6887 5.85617 62.8249 5.85617C63.6887 5.85617 64.5495 5.94019 65.3844 6.11105C69.2282 6.88133 70.2339 9.43551 70.2339 13.771V45.047Z" fill="#E5E5E5"/>
<path d="M60.7584 76.9072L56.219 73.9129L55.6422 74.2963L53.6708 75.6074L51.7112 76.9072L49.1951 75.1816L47.2065 73.817L44.6498 75.5707L42.7019 76.9072L40.1451 75.1534L38.1972 73.817L35.6405 75.5707L33.6925 76.9072L31.0952 75.1816L29.1878 73.9129L26.6308 75.613L24.6828 76.9072L22.1639 75.1816L20.1753 73.817L17.6911 75.6215L15.9258 76.9072V13.771C15.9258 8.49437 18.7842 5.85617 23.6137 5.85617H63.0481C58.2189 5.85617 55.6422 8.49437 55.6422 13.771V45.047H60.7584V76.9072Z" fill="#E5E5E5"/>
<path d="M60.6905 45.047H55.5742V13.771C55.5742 8.49437 58.1509 5.85617 62.9802 5.85617C63.844 5.85617 64.7048 5.94019 65.5397 6.11105C61.6959 6.88133 60.6905 9.43551 60.6905 13.771V45.047Z" fill="#CECECF"/>
<path d="M63.2115 5.85617C58.382 5.85617 55.8056 8.49437 55.8056 13.771V73.817L51.2659 70.8227L46.7584 73.817L42.2537 70.7268L37.7487 73.817L33.244 70.7268L28.7393 73.817L24.2347 70.8227L19.73 73.817L15.2225 70.7268L10.9727 73.817V13.771C10.9727 8.49437 13.8313 5.85617 18.6608 5.85617H63.2115Z" fill="white"/>
<path d="M56.1775 43.9112H68.7371V13.7631C68.7371 9.45348 67.7421 7.79956 64.7938 7.20888C64.0373 7.05409 63.2524 6.97599 62.4559 6.97599C58.1725 6.97599 56.1775 9.13262 56.1775 13.7631V43.9112ZM69.8649 46.1668H55.0497C54.4268 46.1668 53.9219 45.6621 53.9219 45.039V13.7631C53.9219 7.93209 56.9523 4.72041 62.4559 4.72041C63.4041 4.72041 64.3416 4.81401 65.2418 4.99812C70.309 6.01342 70.9927 9.99877 70.9927 13.7631V45.039C70.9927 45.6621 70.4878 46.1668 69.8649 46.1668Z" fill="#434A54"/>
<path d="M14.6976 69.5911C14.9204 69.5911 15.1431 69.656 15.3354 69.7885L19.215 72.4472L23.0859 69.8759C23.4642 69.6249 23.9562 69.6249 24.3346 69.8759L28.2049 72.4472L32.0817 69.7885C32.466 69.5263 32.9732 69.5263 33.3575 69.7885L37.2242 72.4416L41.0911 69.7885C41.4754 69.5263 41.9826 69.5263 42.3669 69.7885L46.2437 72.4472L50.1171 69.8759C50.4941 69.6249 50.9844 69.6249 51.3622 69.873L54.1529 71.7142V13.7631C54.1529 10.797 54.9373 8.50866 56.4322 6.97599H18.1363C13.783 6.97599 11.5759 9.2595 11.5759 13.7631V71.5957L14.0345 69.8082C14.2321 69.6644 14.4647 69.5911 14.6976 69.5911ZM55.2807 74.9369C55.0639 74.9369 54.8476 74.8748 54.6599 74.7508L50.7436 72.1681L46.8578 74.7479C46.4743 75.0017 45.9753 74.9989 45.5958 74.7395L41.7289 72.0864L37.8622 74.7395C37.4779 75.0017 36.9707 75.0017 36.5864 74.7395L32.7195 72.0864L28.8528 74.7395C28.4731 74.9989 27.9737 75.0017 27.5906 74.7479L23.7101 72.1681L19.8299 74.7479C19.4465 75.0045 18.9472 74.9989 18.5679 74.7395L14.7168 72.1004L11.1112 74.7226C10.7681 74.9707 10.3145 75.0073 9.93609 74.8128C9.55828 74.6211 9.32031 74.232 9.32031 73.8091V13.7631C9.32031 8.01611 12.5337 4.72041 18.1363 4.72041H62.6869C63.3098 4.72041 63.8147 5.22538 63.8147 5.8482C63.8147 6.47102 63.3098 6.97599 62.6869 6.97599C58.4036 6.97599 56.4085 9.13262 56.4085 13.7631V73.8091C56.4085 74.2235 56.1807 74.6042 55.8153 74.8015C55.6481 74.8917 55.4643 74.9369 55.2807 74.9369Z" fill="#434A54"/>
<path d="M49.7641 17.9625H34.1016V22.7892H49.7641V17.9625Z" fill="#73BD7B"/>
<path d="M28.6026 17.9625H17.5781V22.7892H28.6026V17.9625Z" fill="#00B0FF"/>
<path d="M49.7641 31.153H34.1016V35.9797H49.7641V31.153Z" fill="#73BD7B"/>
<path d="M28.6026 31.153H17.5781V35.9797H28.6026V31.153Z" fill="#00B0FF"/>
<path d="M49.7641 44.3435H34.1016V49.1677H49.7641V44.3435Z" fill="#73BD7B"/>
<path d="M28.6026 44.3435H17.5781V49.1677H28.6026V44.3435Z" fill="#00B0FF"/>
<path d="M49.7641 57.5082H34.1016V62.3352H49.7641V57.5082Z" fill="#73BD7B"/>
<path d="M28.6026 57.5082H17.5781V62.3352H28.6026V57.5082Z" fill="#00B0FF"/>
</svg>
