<svg width="253" height="270" viewBox="0 0 253 270" fill="none" xmlns="http://www.w3.org/2000/svg">
<mask id="path-1-inside-1_1953_27250" fill="white">
<path d="M29.3205 154.704C29.3205 155.529 29.0717 156.215 28.5798 156.597L28.2279 156.797L20.9066 161.025C21.495 160.674 21.7795 159.946 21.7795 159.048C21.7795 158.138 21.4823 157.052 20.8756 156.009L15.3984 146.522L18.5765 144.689L20.8756 143.361C21.313 143.106 21.5921 142.645 21.7134 142.062C21.8584 141.371 21.7741 140.51 21.4647 139.618L24.4911 144.871L24.4978 144.878L28.4166 151.665C29.0171 152.708 29.3205 153.794 29.3205 154.704Z"/>
</mask>
<path d="M29.3205 154.704C29.3205 155.529 29.0717 156.215 28.5798 156.597L28.2279 156.797L20.9066 161.025C21.495 160.674 21.7795 159.946 21.7795 159.048C21.7795 158.138 21.4823 157.052 20.8756 156.009L15.3984 146.522L18.5765 144.689L20.8756 143.361C21.313 143.106 21.5921 142.645 21.7134 142.062C21.8584 141.371 21.7741 140.51 21.4647 139.618L24.4911 144.871L24.4978 144.878L28.4166 151.665C29.0171 152.708 29.3205 153.794 29.3205 154.704Z" fill="#EEBEFF"/>
<path d="M28.5798 156.597L28.827 157.032L28.8582 157.014L28.8865 156.992L28.5798 156.597ZM28.2279 156.797L27.9807 156.363L27.9779 156.364L28.2279 156.797ZM20.9066 161.025L20.6503 160.596L21.1566 161.458L20.9066 161.025ZM20.8756 156.009L20.4426 156.259L20.4434 156.26L20.8756 156.009ZM15.3984 146.522L15.1487 146.088L14.7153 146.338L14.9654 146.772L15.3984 146.522ZM18.5765 144.689L18.8263 145.122L18.8266 145.122L18.5765 144.689ZM20.8756 143.361L21.1257 143.794L21.1273 143.793L20.8756 143.361ZM21.7134 142.062L21.224 141.96L21.2239 141.96L21.7134 142.062ZM21.4647 139.618L21.8979 139.369L20.9923 139.782L21.4647 139.618ZM24.4911 144.871L24.0579 145.121L24.0909 145.178L24.1375 145.224L24.4911 144.871ZM24.4978 144.878L24.9308 144.628L24.8979 144.571L24.8514 144.524L24.4978 144.878ZM28.4166 151.665L28.8499 151.416L28.8496 151.415L28.4166 151.665ZM28.8205 154.704C28.8205 155.447 28.5958 155.951 28.273 156.202L28.8865 156.992C29.5476 156.478 29.8205 155.612 29.8205 154.704H28.8205ZM28.3325 156.162L27.9807 156.363L28.4752 157.232L28.827 157.032L28.3325 156.162ZM27.9779 156.364L20.6565 160.592L21.1566 161.458L28.478 157.23L27.9779 156.364ZM21.1629 161.455C21.9688 160.974 22.2795 160.028 22.2795 159.048H21.2795C21.2795 159.864 21.0212 160.375 20.6503 160.596L21.1629 161.455ZM22.2795 159.048C22.2795 158.036 21.9517 156.865 21.3079 155.757L20.4434 156.26C21.0129 157.239 21.2795 158.239 21.2795 159.048H22.2795ZM21.3087 155.759L15.8315 146.272L14.9654 146.772L20.4426 156.259L21.3087 155.759ZM15.6482 146.955L18.8263 145.122L18.3268 144.256L15.1487 146.088L15.6482 146.955ZM18.8266 145.122L21.1257 143.794L20.6256 142.928L18.3265 144.256L18.8266 145.122ZM21.1273 143.793C21.7219 143.447 22.062 142.84 22.2029 142.164L21.2239 141.96C21.1221 142.449 20.9041 142.766 20.624 142.929L21.1273 143.793ZM22.2027 142.165C22.3712 141.362 22.2672 140.406 21.9371 139.454L20.9923 139.782C21.2809 140.614 21.3455 141.381 21.224 141.96L22.2027 142.165ZM21.0314 139.868L24.0579 145.121L24.9244 144.621L21.8979 139.369L21.0314 139.868ZM24.1375 145.224L24.1442 145.231L24.8514 144.524L24.8447 144.517L24.1375 145.224ZM24.0648 145.128L27.9836 151.915L28.8496 151.415L24.9308 144.628L24.0648 145.128ZM27.9832 151.915C28.5486 152.897 28.8205 153.897 28.8205 154.704H29.8205C29.8205 153.691 29.4857 152.52 28.8499 151.416L27.9832 151.915Z" fill="black" mask="url(#path-1-inside-1_1953_27250)"/>
<path d="M29.3205 154.704C29.3205 155.529 29.0717 156.215 28.5798 156.597L28.2279 156.797L20.9066 161.025C21.495 160.674 21.7795 159.946 21.7795 159.048C21.7795 158.138 21.4823 157.052 20.8756 156.009L15.3984 146.522L18.5765 144.689L20.8756 143.361C21.313 143.106 21.5921 142.645 21.7134 142.062C21.8584 141.371 21.7741 140.51 21.4647 139.618L24.4911 144.871L24.4978 144.878L28.4166 151.665C29.0171 152.708 29.3205 153.794 29.3205 154.704V154.704Z" stroke="black" stroke-width="0.5" stroke-miterlimit="10" stroke-linecap="round" stroke-linejoin="round"/>
<path d="M50.7065 158.348H50.7066C50.7186 157.478 50.4315 156.412 49.8367 155.376C49.8366 155.376 49.8365 155.376 49.8365 155.376L42.23 142.207C41.6525 141.211 40.9045 140.445 40.1716 140.009C39.7119 139.739 39.2644 139.602 38.8793 139.602C38.6274 139.602 38.4043 139.659 38.2036 139.774C37.5784 140.137 37.2871 141.066 37.4881 142.29L37.529 142.539L37.2791 142.577C36.152 142.749 34.8533 142.482 33.4851 141.767C33.45 142.613 33.3077 143.375 33.0663 144.033C33.828 144.526 34.5604 145.31 35.122 146.294C35.1222 146.294 35.1223 146.295 35.1224 146.295L40.6056 155.787L40.6057 155.787L42.7287 159.469L50.7065 158.348ZM50.7065 158.348L50.7066 158.354M50.7065 158.348L50.7066 158.354M50.7066 158.354C50.7187 159.251 50.429 159.904 49.9281 160.197M50.7066 158.354L49.9281 160.197M49.9281 160.197C49.9278 160.197 49.9276 160.197 49.9273 160.197M49.9281 160.197L49.9273 160.197M49.9273 160.197L43.4781 163.921C43.6061 163.57 43.6662 163.17 43.6662 162.749V162.639C43.6662 161.679 43.3537 160.55 42.7289 159.47L49.9273 160.197Z" fill="#EEBEFF" stroke="black" stroke-width="0.5"/>
<path d="M50.9565 158.351C50.9693 159.291 50.666 160.056 50.0533 160.413L42.4462 164.806C42.4092 164.824 42.3734 164.841 42.3364 164.859L42.5123 164.757C43.1189 164.405 43.4162 163.665 43.4162 162.749V162.639C43.4162 161.729 43.1189 160.643 42.5123 159.595L40.3891 155.912L34.9053 146.419C34.3168 145.387 33.5404 144.592 32.7578 144.137C33.0739 143.367 33.2437 142.427 33.2437 141.347C33.2437 141.353 33.2498 141.353 33.2498 141.353C34.7172 142.197 36.0882 142.506 37.2414 142.33C37.0351 141.074 37.3142 140.001 38.0785 139.558C38.3206 139.418 38.5875 139.352 38.8793 139.352C39.3215 139.352 39.8128 139.509 40.2988 139.794C41.0746 140.255 41.8511 141.056 42.4462 142.081L50.0533 155.251C50.666 156.318 50.9693 157.428 50.9565 158.351Z" stroke="black" stroke-width="0.5" stroke-miterlimit="10" stroke-linecap="round" stroke-linejoin="round"/>
<path d="M43.4098 162.639C43.3855 161.753 43.0883 160.716 42.5059 159.716L40.3281 155.942L40.3827 155.912L42.5059 159.594C43.1125 160.643 43.4098 161.729 43.4098 162.639Z" fill="white" stroke="black" stroke-width="0.5" stroke-miterlimit="10" stroke-linecap="round" stroke-linejoin="round"/>
<path d="M28.5784 156.597C28.5299 156.634 28.4753 156.676 28.4146 156.706C28.354 156.742 28.2933 156.773 28.2266 156.797L28.5784 156.597Z" fill="white" stroke="black" stroke-width="0.5" stroke-miterlimit="10" stroke-linecap="round" stroke-linejoin="round"/>
<path d="M43.4098 162.639C43.3855 161.753 43.0883 160.716 42.5059 159.716L40.3281 155.942L40.3827 155.912L42.5059 159.594C43.1125 160.643 43.4098 161.729 43.4098 162.639Z" fill="#EEBEFF" stroke="black" stroke-width="0.5" stroke-miterlimit="10" stroke-linecap="round" stroke-linejoin="round"/>
<path d="M43.4092 162.639V162.749C43.4092 163.664 43.112 164.404 42.5054 164.756L42.3294 164.859L34.8983 169.148C33.6972 169.84 31.7445 168.718 30.5367 166.625C29.9361 165.582 29.6328 164.496 29.6328 163.586C29.6328 162.676 29.9361 161.935 30.5367 161.59L36.0145 158.424L30.5367 148.942C30.0999 148.177 29.8209 147.395 29.6995 146.673C29.4933 145.417 29.7729 144.343 30.5367 143.9C30.7793 143.761 31.0523 143.695 31.3435 143.695C31.7863 143.695 32.2716 143.852 32.7509 144.137C33.5334 144.592 34.3099 145.387 34.8983 146.419L40.3822 155.912L40.3276 155.942L42.5054 159.716C43.0877 160.716 43.385 161.753 43.4092 162.639Z" fill="white" stroke="black" stroke-width="0.5" stroke-miterlimit="10" stroke-linecap="round" stroke-linejoin="round"/>
<mask id="path-10-inside-2_1953_27250" fill="white">
<path d="M21.7764 159.048C21.7764 159.946 21.4913 160.674 20.9035 161.025L20.8422 161.062C19.6411 161.723 17.706 160.595 16.5109 158.527L8.90387 145.35C8.29725 144.301 8 143.215 8 142.305V142.196C8 141.28 8.29725 140.54 8.90387 140.194L16.5109 135.803C16.5297 135.79 16.5473 135.784 16.5655 135.778L18.3672 134.734C18.3739 134.771 18.3793 134.813 18.3915 134.85C18.4643 135.232 18.5498 135.608 18.6584 135.996V136.002C18.713 136.196 18.7676 136.385 18.8343 136.579C19.4409 138.514 20.454 140.424 21.7103 142.062C21.5884 142.645 21.3093 143.106 20.8726 143.361L18.5735 144.689L15.3947 146.522L20.8726 156.009C21.4792 157.052 21.7764 158.138 21.7764 159.048Z"/>
</mask>
<path d="M21.7764 159.048C21.7764 159.946 21.4913 160.674 20.9035 161.025L20.8422 161.062C19.6411 161.723 17.706 160.595 16.5109 158.527L8.90387 145.35C8.29725 144.301 8 143.215 8 142.305V142.196C8 141.28 8.29725 140.54 8.90387 140.194L16.5109 135.803C16.5297 135.79 16.5473 135.784 16.5655 135.778L18.3672 134.734C18.3739 134.771 18.3793 134.813 18.3915 134.85C18.4643 135.232 18.5498 135.608 18.6584 135.996V136.002C18.713 136.196 18.7676 136.385 18.8343 136.579C19.4409 138.514 20.454 140.424 21.7103 142.062C21.5884 142.645 21.3093 143.106 20.8726 143.361L18.5735 144.689L15.3947 146.522L20.8726 156.009C21.4792 157.052 21.7764 158.138 21.7764 159.048Z" fill="white"/>
<path d="M20.9035 161.025L21.1589 161.455L21.16 161.455L20.9035 161.025ZM20.8422 161.062L21.0834 161.5L21.0905 161.496L21.0976 161.492L20.8422 161.062ZM16.5109 158.527L16.0779 158.777L16.078 158.777L16.5109 158.527ZM8.90387 145.35L9.33689 145.1L9.33675 145.1L8.90387 145.35ZM8.90387 140.194L9.15147 140.628L9.15384 140.627L8.90387 140.194ZM16.5109 135.803L16.7609 136.236L16.7765 136.227L16.7914 136.217L16.5109 135.803ZM16.5655 135.778L16.7092 136.257L16.7654 136.24L16.8162 136.211L16.5655 135.778ZM18.3672 134.734L18.859 134.644L18.7309 133.946L18.1165 134.302L18.3672 134.734ZM18.3915 134.85L18.8826 134.756L18.8764 134.723L18.8658 134.692L18.3915 134.85ZM18.6584 135.996H19.1584V135.928L19.1399 135.861L18.6584 135.996ZM18.6584 136.002H18.1584V136.071L18.1771 136.138L18.6584 136.002ZM18.8343 136.579L19.3116 136.429L19.307 136.416L18.8343 136.579ZM21.7103 142.062L22.1997 142.165L22.2467 141.94L22.107 141.758L21.7103 142.062ZM20.8726 143.361L21.1226 143.794L21.1245 143.793L20.8726 143.361ZM18.5735 144.689L18.8232 145.122L18.8235 145.122L18.5735 144.689ZM15.3947 146.522L15.145 146.089L14.7116 146.338L14.9617 146.772L15.3947 146.522ZM20.8726 156.009L20.4396 156.259L20.4403 156.26L20.8726 156.009ZM21.2764 159.048C21.2764 159.864 21.0177 160.375 20.647 160.596L21.16 161.455C21.965 160.974 22.2764 160.028 22.2764 159.048H21.2764ZM20.6481 160.596L20.5869 160.632L21.0976 161.492L21.1589 161.455L20.6481 160.596ZM20.6011 160.624C20.2206 160.833 19.6367 160.801 18.9267 160.386C18.2305 159.979 17.5056 159.249 16.9438 158.277L16.078 158.777C16.7113 159.873 17.5515 160.741 18.422 161.249C19.2785 161.75 20.2628 161.952 21.0834 161.5L20.6011 160.624ZM16.944 158.277L9.33689 145.1L8.47085 145.6L16.0779 158.777L16.944 158.277ZM9.33675 145.1C8.7666 144.114 8.5 143.113 8.5 142.305H7.5C7.5 143.317 7.82789 144.488 8.47099 145.601L9.33675 145.1ZM8.5 142.305V142.196H7.5V142.305H8.5ZM8.5 142.196C8.5 141.364 8.76938 140.846 9.15147 140.628L8.65627 139.76C7.82511 140.233 7.5 141.196 7.5 142.196H8.5ZM9.15384 140.627L16.7609 136.236L16.261 135.37L8.65389 139.761L9.15384 140.627ZM16.7914 136.217C16.7702 136.231 16.7497 136.241 16.7321 136.249C16.7164 136.255 16.7053 136.258 16.7092 136.257L16.4219 135.299C16.389 135.309 16.3131 135.333 16.2305 135.389L16.7914 136.217ZM16.8162 136.211L18.6179 135.167L18.1165 134.302L16.3148 135.346L16.8162 136.211ZM17.8754 134.825C17.8763 134.83 17.8773 134.835 17.8791 134.846C17.8808 134.856 17.8831 134.87 17.8859 134.885C17.8913 134.913 17.9006 134.958 17.9171 135.008L18.8658 134.692C18.8683 134.699 18.8695 134.704 18.8697 134.705C18.8699 134.705 18.8695 134.704 18.8686 134.699C18.8677 134.694 18.8667 134.689 18.8651 134.679C18.8637 134.671 18.8614 134.657 18.859 134.644L17.8754 134.825ZM17.9003 134.943C17.9753 135.337 18.064 135.727 18.1769 136.131L19.1399 135.861C19.0356 135.489 18.9532 135.126 18.8826 134.756L17.9003 134.943ZM18.1584 135.996V136.002H19.1584V135.996H18.1584ZM18.1771 136.138C18.232 136.333 18.2899 136.533 18.3616 136.742L19.307 136.416C19.2453 136.237 19.1939 136.06 19.1397 135.867L18.1771 136.138ZM18.3572 136.728C18.9824 138.722 20.0237 140.685 21.3136 142.367L22.107 141.758C20.8842 140.164 19.8995 138.305 19.3114 136.429L18.3572 136.728ZM21.2209 141.96C21.1185 142.449 20.9004 142.766 20.6206 142.929L21.1245 143.793C21.7183 143.447 22.0582 142.841 22.1997 142.165L21.2209 141.96ZM20.6225 142.928L18.3234 144.256L18.8235 145.122L21.1226 143.794L20.6225 142.928ZM18.3237 144.256L15.145 146.089L15.6445 146.955L18.8232 145.122L18.3237 144.256ZM14.9617 146.772L20.4396 156.259L21.3056 155.759L15.8277 146.272L14.9617 146.772ZM20.4403 156.26C21.0098 157.239 21.2764 158.24 21.2764 159.048H22.2764C22.2764 158.036 21.9486 156.865 21.3048 155.757L20.4403 156.26Z" fill="black" mask="url(#path-10-inside-2_1953_27250)"/>
<path d="M21.7764 159.048C21.7764 159.946 21.4913 160.674 20.9035 161.025L20.8422 161.062C19.6411 161.723 17.706 160.595 16.5109 158.527L8.90387 145.35C8.29725 144.301 8 143.215 8 142.305V142.196C8 141.28 8.29725 140.54 8.90387 140.194L16.5109 135.803C16.5297 135.79 16.5473 135.784 16.5655 135.778L18.3672 134.734C18.3739 134.771 18.3793 134.813 18.3915 134.85C18.4643 135.232 18.5498 135.608 18.6584 135.996V136.002C18.713 136.196 18.7676 136.385 18.8343 136.579C19.4409 138.514 20.454 140.424 21.7103 142.062C21.5884 142.645 21.3093 143.106 20.8726 143.361L18.5735 144.689L15.3947 146.522L20.8726 156.009C21.4792 157.052 21.7764 158.138 21.7764 159.048V159.048Z" stroke="black" stroke-width="0.5" stroke-miterlimit="10" stroke-linecap="round" stroke-linejoin="round"/>
<path d="M43.5151 136.522V136.576C43.5084 137.359 43.4241 138.075 43.2664 138.718C43.0965 139.415 42.6537 140.016 42.0289 140.374L41.4222 140.72L33.9056 145.069L30.466 147.053C31.4069 146.44 32.0924 145.391 32.4072 143.959C32.5291 143.401 32.5959 142.788 32.6019 142.127V142.084C32.6019 137.098 29.1078 131.044 24.7819 128.551C24.7644 128.532 24.7583 128.532 24.7401 128.52C22.714 127.368 20.8814 127.204 19.4922 127.871L30.5449 121.49L30.9938 121.229C31.5761 120.888 32.2798 120.768 32.9295 120.95C33.5907 121.138 34.2817 121.429 34.9914 121.835C35.0157 121.841 35.0284 121.841 35.04 121.86C36.4534 122.673 37.7825 123.837 38.9527 125.22C41.6643 128.417 43.5151 132.755 43.5151 136.522Z" fill="#AD27DC" stroke="black" stroke-width="0.5" stroke-miterlimit="10" stroke-linecap="round" stroke-linejoin="round"/>
<mask id="path-14-inside-3_1953_27250" fill="white">
<path d="M16.9609 133.059C16.9609 138.046 20.4709 144.1 24.7797 146.594C26.8908 147.809 28.7931 147.966 30.2005 147.201L30.4614 147.054C31.7729 146.202 32.5809 144.499 32.5979 142.128V142.085C32.5979 137.098 29.1062 131.043 24.7797 128.55C24.7621 128.533 24.7536 128.533 24.736 128.523C22.7117 127.368 20.8791 127.203 19.4893 127.873C19.4542 127.881 19.4281 127.898 19.3935 127.916L19.1157 128.09C17.7781 128.932 16.9609 130.652 16.9609 133.059Z"/>
</mask>
<path d="M16.9609 133.059C16.9609 138.046 20.4709 144.1 24.7797 146.594C26.8908 147.809 28.7931 147.966 30.2005 147.201L30.4614 147.054C31.7729 146.202 32.5809 144.499 32.5979 142.128V142.085C32.5979 137.098 29.1062 131.043 24.7797 128.55C24.7621 128.533 24.7536 128.533 24.736 128.523C22.7117 127.368 20.8791 127.203 19.4893 127.873C19.4542 127.881 19.4281 127.898 19.3935 127.916L19.1157 128.09C17.7781 128.932 16.9609 130.652 16.9609 133.059Z" fill="#D667FD"/>
<path d="M24.7797 146.594L24.5293 147.026L24.5302 147.027L24.7797 146.594ZM30.2005 147.201L30.4392 147.641L30.4465 147.637L30.2005 147.201ZM30.4614 147.054L30.7073 147.489L30.7208 147.482L30.7337 147.473L30.4614 147.054ZM32.5979 142.128L33.0979 142.132V142.128H32.5979ZM24.7797 128.55L24.4324 128.909L24.4767 128.952L24.53 128.983L24.7797 128.55ZM24.736 128.523L24.4882 128.958L24.4972 128.963L24.5063 128.968L24.736 128.523ZM19.4893 127.873L19.6067 128.359L19.6583 128.346L19.7062 128.323L19.4893 127.873ZM19.3935 127.916L19.1668 127.47L19.1469 127.48L19.128 127.492L19.3935 127.916ZM19.1157 128.09L18.8502 127.666L18.8492 127.667L19.1157 128.09ZM16.4609 133.059C16.4609 135.661 17.3733 138.507 18.8217 141.012C20.27 143.516 22.2814 145.726 24.5293 147.026L25.0301 146.161C22.9691 144.968 21.0712 142.904 19.6873 140.511C18.3035 138.118 17.4609 135.443 17.4609 133.059H16.4609ZM24.5302 147.027C26.7264 148.292 28.8227 148.519 30.4391 147.641L29.9619 146.762C28.7636 147.413 27.0551 147.327 25.0292 146.16L24.5302 147.027ZM30.4465 147.637L30.7073 147.489L30.2154 146.619L29.9545 146.766L30.4465 147.637ZM30.7337 147.473C32.2347 146.499 33.0802 144.604 33.0979 142.132L32.0979 142.125C32.0816 144.395 31.3111 145.906 30.189 146.635L30.7337 147.473ZM33.0979 142.128V142.085H32.0979V142.128H33.0979ZM33.0979 142.085C33.0979 139.483 32.1903 136.637 30.7442 134.132C29.2981 131.627 27.2866 129.417 25.0294 128.116L24.53 128.983C26.5993 130.175 28.4968 132.24 29.8782 134.632C31.2595 137.025 32.0979 139.7 32.0979 142.085H33.0979ZM25.127 128.19C25.108 128.171 25.0853 128.152 25.0585 128.133C25.0306 128.113 25.0044 128.098 24.9815 128.086C24.971 128.081 24.9621 128.077 24.9566 128.075C24.9538 128.073 24.9515 128.072 24.9501 128.072C24.9454 128.07 24.951 128.072 24.9476 128.071C24.947 128.07 24.9552 128.074 24.9657 128.079L24.5063 128.968C24.5256 128.978 24.5415 128.984 24.548 128.987C24.5527 128.989 24.5502 128.988 24.5493 128.988C24.5471 128.987 24.5415 128.984 24.5343 128.981C24.5179 128.973 24.4982 128.961 24.4774 128.946C24.4576 128.932 24.4426 128.919 24.4324 128.909L25.127 128.19ZM24.9838 128.089C22.8728 126.885 20.8604 126.658 19.2725 127.422L19.7062 128.323C20.8979 127.749 22.5506 127.852 24.4882 128.958L24.9838 128.089ZM19.372 127.386C19.3062 127.402 19.2547 127.425 19.2203 127.442C19.2043 127.45 19.19 127.458 19.1825 127.462C19.173 127.467 19.1699 127.468 19.1668 127.47L19.6202 128.361C19.6277 128.357 19.6344 128.354 19.6399 128.351C19.6452 128.348 19.6505 128.345 19.6538 128.344C19.6575 128.342 19.6596 128.34 19.6613 128.34C19.6627 128.339 19.6629 128.339 19.6621 128.339C19.6606 128.34 19.6542 128.343 19.6444 128.347C19.6342 128.351 19.6215 128.355 19.6067 128.359L19.372 127.386ZM19.128 127.492L18.8502 127.666L19.3812 128.513L19.659 128.339L19.128 127.492ZM18.8492 127.667C17.3151 128.633 16.4609 130.551 16.4609 133.059H17.4609C17.4609 130.753 18.241 129.232 19.3822 128.513L18.8492 127.667Z" fill="black" mask="url(#path-14-inside-3_1953_27250)"/>
<path d="M16.9609 133.059C16.9609 138.046 20.4709 144.1 24.7797 146.594C26.8908 147.809 28.7931 147.966 30.2005 147.201L30.4614 147.054C31.7729 146.202 32.5809 144.499 32.5979 142.128V142.085C32.5979 137.098 29.1062 131.043 24.7797 128.55C24.7621 128.533 24.7536 128.533 24.736 128.523C22.7117 127.368 20.8791 127.203 19.4893 127.873C19.4542 127.881 19.4281 127.898 19.3935 127.916L19.1157 128.09C17.7781 128.932 16.9609 130.652 16.9609 133.059V133.059Z" stroke="black" stroke-width="0.5" stroke-miterlimit="10" stroke-linecap="round" stroke-linejoin="round"/>
<path d="M24.656 136.3L24.656 136.3C24.9111 136.448 25.1616 136.733 25.3496 137.092C25.5365 137.449 25.6483 137.854 25.6483 138.218C25.6483 138.588 25.5354 138.796 25.4203 138.883C25.3209 138.958 25.155 138.99 24.9058 138.846C24.6512 138.699 24.4008 138.414 24.2128 138.055C24.0259 137.697 23.9141 137.292 23.9141 136.928C23.9141 136.559 24.027 136.351 24.1421 136.264C24.2416 136.189 24.4074 136.157 24.656 136.3Z" fill="#223893" stroke="black" stroke-width="0.5"/>
<path d="M214.046 203.889V203.895C214.046 205.06 213.471 206.23 212.312 206.898L162.587 235.603C159.365 237.465 155.393 237.465 152.171 235.603L102.446 206.898C101.287 206.23 100.711 205.06 100.711 203.895V203.889C100.711 202.717 101.287 201.553 102.446 200.886L152.171 172.174C155.393 170.318 159.365 170.318 162.587 172.174L212.312 200.886C213.471 201.553 214.046 202.717 214.046 203.889Z" fill="#F3D1FF"/>
<path d="M214.046 169.923V169.93C214.046 171.095 213.471 172.265 212.312 172.932L162.587 201.638C159.365 203.5 155.393 203.5 152.171 201.638L102.446 172.932C101.287 172.265 100.711 171.095 100.711 169.93V169.923C100.711 168.752 101.287 167.588 102.446 166.921L152.171 138.21C155.393 136.353 159.365 136.353 162.587 138.21L212.312 166.921C213.471 167.588 214.046 168.752 214.046 169.923Z" fill="white" stroke="black" stroke-width="0.5" stroke-miterlimit="10" stroke-linecap="round" stroke-linejoin="round"/>
<path d="M33.7125 95.8506V128.25C32.5417 126.867 31.2132 125.703 29.7998 124.89C29.7876 124.871 29.7755 124.871 29.7512 124.865C29.0415 124.459 28.3499 124.168 27.6887 123.98C27.0396 123.798 26.3359 123.919 25.7536 124.259L25.3047 124.52V95.8506H33.7125Z" fill="white" stroke="black" stroke-width="0.5" stroke-miterlimit="10" stroke-linecap="round" stroke-linejoin="round"/>
<path d="M90.3813 64.4639L90.3815 64.464L133.58 89.4489L90.3813 64.4639ZM90.3813 64.4639C89.1779 63.7695 88.6328 62.8938 88.6328 62.0694C88.6328 61.245 89.1779 60.3691 90.3813 59.6745L90.3814 59.6745M90.3813 64.4639L90.3814 59.6745M90.3814 59.6745C91.5835 58.9803 93.1748 58.6261 94.7797 58.626M90.3814 59.6745L94.7797 58.626M142.377 84.6589L142.377 84.6588L99.178 59.6739L142.377 84.6589ZM142.377 84.6589C143.58 85.3539 144.125 86.2296 144.125 87.0539C144.125 87.8782 143.58 88.7539 142.377 89.4489C141.175 90.1431 139.583 90.4973 137.978 90.4973M142.377 84.6589L137.978 90.4973M137.978 90.4973C136.373 90.4973 134.782 90.1431 133.58 89.449L137.978 90.4973ZM94.7797 58.626C96.3845 58.6259 97.9757 58.98 99.1778 59.6738L94.7797 58.626Z" fill="white" stroke="black" stroke-width="0.5"/>
<path d="M142.502 89.6654C140.004 91.108 135.953 91.108 133.455 89.6654L90.2564 64.6804C87.7583 63.2391 87.7583 60.8999 90.2564 59.458C92.7544 58.0154 96.8049 58.0154 99.303 59.4574L142.502 84.4424C145 85.8849 145 88.2229 142.502 89.6654Z" stroke="black" stroke-width="0.5" stroke-miterlimit="10" stroke-linecap="round" stroke-linejoin="round"/>
<path d="M214.046 169.931V188.942C214.046 190.107 213.464 191.277 212.312 191.945L162.587 220.656C159.365 222.513 155.393 222.513 152.171 220.656L102.446 191.945C101.864 191.611 101.433 191.15 101.142 190.628C100.857 190.107 100.711 189.525 100.711 188.942V169.931C100.711 171.095 101.287 172.266 102.446 172.933L152.171 201.639C155.393 203.501 159.365 203.501 162.587 201.639L212.312 172.933C213.471 172.266 214.046 171.095 214.046 169.931Z" fill="white" stroke="black" stroke-width="0.5" stroke-miterlimit="10" stroke-linecap="round" stroke-linejoin="round"/>
<path d="M116.844 169.926C116.844 169.453 116.977 168.979 117.244 168.573L116.844 169.926Z" fill="white" stroke="black" stroke-width="0.5" stroke-miterlimit="10" stroke-linecap="round" stroke-linejoin="round"/>
<path d="M197.915 169.926L197.516 168.573C197.782 168.979 197.915 169.453 197.915 169.926Z" fill="white" stroke="black" stroke-width="0.5" stroke-miterlimit="10" stroke-linecap="round" stroke-linejoin="round"/>
<path d="M175.446 155.369L175.446 155.369L160.318 164.105C158.502 165.152 156.255 165.152 154.44 164.105L139.311 155.369L139.311 155.369L125.184 147.217C125.184 147.217 125.183 147.217 125.183 147.217C124.587 146.871 124.289 146.265 124.289 145.662C124.289 145.052 124.587 144.453 125.183 144.107C125.183 144.107 125.184 144.107 125.184 144.107L154.44 127.218C156.255 126.171 158.502 126.171 160.318 127.218L189.574 144.107C190.171 144.453 190.469 145.052 190.469 145.662C190.469 146.265 190.17 146.871 189.574 147.217L175.446 155.369Z" fill="white" stroke="black" stroke-width="0.5"/>
<path d="M190.719 145.662C190.719 146.347 190.379 147.039 189.699 147.433L175.571 155.586L160.443 164.322C158.55 165.414 156.208 165.414 154.315 164.322L139.186 155.586L125.058 147.433C124.379 147.039 124.039 146.347 124.039 145.662C124.039 144.97 124.379 144.284 125.058 143.891L154.315 127.002C156.208 125.91 158.55 125.91 160.443 127.002L189.699 143.891C190.379 144.284 190.719 144.97 190.719 145.662Z" stroke="black" stroke-width="0.5" stroke-miterlimit="10" stroke-linecap="round" stroke-linejoin="round"/>
<path d="M118.389 188.4V195.151L110.751 190.741C109.136 189.809 107.828 187.543 107.828 185.678C107.828 184.745 108.153 184.089 108.683 183.783C109.213 183.477 109.944 183.523 110.751 183.989L118.389 188.4V188.4Z" stroke="black" stroke-width="0.5" stroke-miterlimit="10" stroke-linecap="round" stroke-linejoin="round"/>
<path d="M134.055 200.814C134.055 201.746 133.73 202.403 133.199 202.708C132.67 203.015 131.939 202.968 131.131 202.502L118.398 195.151V188.399L131.131 195.75C132.746 196.683 134.055 198.949 134.055 200.814Z" stroke="black" stroke-width="0.5" stroke-miterlimit="10" stroke-linecap="round" stroke-linejoin="round"/>
<path d="M172.07 203.729L185.764 195.823" stroke="black" stroke-width="0.5" stroke-miterlimit="10" stroke-linecap="round" stroke-linejoin="round"/>
<path d="M172.07 208.348L179.239 204.209" stroke="black" stroke-width="0.5" stroke-miterlimit="10" stroke-linecap="round" stroke-linejoin="round"/>
<path d="M207.188 185.285L207.188 185.285C207.436 185.142 207.602 185.174 207.702 185.249C207.817 185.336 207.93 185.544 207.93 185.913C207.93 186.277 207.818 186.682 207.631 187.04C207.443 187.399 207.192 187.684 206.938 187.831L207.063 188.048L206.938 187.831C206.689 187.975 206.523 187.943 206.423 187.868C206.308 187.781 206.195 187.573 206.195 187.203C206.195 186.839 206.307 186.434 206.494 186.077C206.682 185.718 206.932 185.432 207.188 185.285Z" stroke="black" stroke-width="0.5"/>
<mask id="path-33-inside-4_1953_27250" fill="white">
<path d="M201.141 189.977C201.141 190.799 201.64 191.177 202.257 190.822C202.874 190.465 203.375 189.509 203.375 188.687C203.375 187.865 202.874 187.486 202.257 187.842C201.64 188.199 201.141 189.155 201.141 189.977Z"/>
</mask>
<path d="M202.257 190.822L202.507 191.255L202.508 191.254L202.257 190.822ZM200.641 189.977C200.641 190.47 200.79 190.955 201.166 191.24C201.573 191.548 202.08 191.501 202.507 191.255L202.008 190.388C201.911 190.444 201.847 190.455 201.816 190.455C201.791 190.456 201.779 190.45 201.769 190.442C201.741 190.421 201.641 190.305 201.641 189.977H200.641ZM202.508 191.254C202.923 191.014 203.26 190.601 203.49 190.161C203.723 189.716 203.875 189.193 203.875 188.687H202.875C202.875 189.004 202.776 189.369 202.605 189.697C202.431 190.029 202.209 190.272 202.007 190.389L202.508 191.254ZM203.875 188.687C203.875 188.193 203.725 187.708 203.349 187.424C202.941 187.116 202.435 187.163 202.007 187.409L202.507 188.275C202.604 188.219 202.668 188.209 202.699 188.209C202.724 188.208 202.736 188.214 202.746 188.222C202.774 188.243 202.875 188.359 202.875 188.687H203.875ZM202.007 187.409C201.592 187.649 201.255 188.063 201.025 188.503C200.792 188.948 200.641 189.471 200.641 189.977H201.641C201.641 189.66 201.739 189.295 201.911 188.967C202.085 188.634 202.306 188.392 202.507 188.275L202.007 187.409Z" fill="black" mask="url(#path-33-inside-4_1953_27250)"/>
<path d="M197.924 169.927C197.924 170.764 197.512 171.601 196.688 172.08L161.109 192.614C158.804 193.949 155.964 193.949 153.659 192.614L118.081 172.08C117.256 171.601 116.844 170.764 116.844 169.927L117.244 168.574L124.044 145.662C124.044 146.347 124.384 147.039 125.064 147.433L139.192 155.585L154.32 164.321C156.213 165.413 158.555 165.413 160.448 164.321L175.576 155.585L189.705 147.433C190.384 147.039 190.724 146.347 190.724 145.662L197.525 168.574L197.924 169.927Z" fill="#EEBEFF" stroke="black" stroke-width="0.5" stroke-miterlimit="10" stroke-linecap="round" stroke-linejoin="round"/>
<path d="M147.536 67.0162L147.536 67.0162C148.672 66.7974 150.018 67.3624 151.285 68.5463C152.544 69.7228 153.683 71.4753 154.392 73.5248L154.392 73.5248L173.013 127.277C173.723 129.328 173.861 131.262 173.527 132.729C173.193 134.198 172.404 135.15 171.288 135.365C170.153 135.583 168.808 135.018 167.541 133.834C166.282 132.657 165.142 130.905 164.433 128.856L145.812 75.1033C145.812 75.1033 145.812 75.1033 145.812 75.1033C145.102 73.0525 144.964 71.1175 145.298 69.6509C145.632 68.1823 146.42 67.2306 147.536 67.0162Z" fill="#EEBEFF" stroke="black" stroke-width="0.5"/>
<path d="M171.336 135.61C168.836 136.091 165.64 133.104 164.196 128.938L145.576 75.1852C144.133 71.0183 144.989 67.2511 147.489 66.7707C149.989 66.289 153.186 69.276 154.629 73.4429L173.249 127.195C174.692 131.362 173.836 135.129 171.336 135.61Z" stroke="black" stroke-width="0.5" stroke-miterlimit="10" stroke-linecap="round" stroke-linejoin="round"/>
<mask id="path-38-inside-5_1953_27250" fill="white">
<path d="M151.402 78.046C150.165 78.2838 148.584 76.8061 147.87 74.7454C147.156 72.6841 147.58 70.8205 148.816 70.5821C150.053 70.3449 151.634 71.8221 152.348 73.8834C153.062 75.9441 152.638 77.8076 151.402 78.046Z"/>
</mask>
<path d="M151.402 78.046C150.165 78.2838 148.584 76.8061 147.87 74.7454C147.156 72.6841 147.58 70.8205 148.816 70.5821C150.053 70.3449 151.634 71.8221 152.348 73.8834C153.062 75.9441 152.638 77.8076 151.402 78.046Z" fill="#D667FD"/>
<path d="M147.87 74.7454L148.343 74.5818L148.343 74.5817L147.87 74.7454ZM148.816 70.5821L148.722 70.0911L148.721 70.0912L148.816 70.5821ZM152.348 73.8834L152.821 73.7198L152.821 73.7197L152.348 73.8834ZM151.308 77.555C150.918 77.6299 150.37 77.4425 149.781 76.8923C149.208 76.3567 148.676 75.5442 148.343 74.5818L147.398 74.909C147.778 76.0073 148.393 76.964 149.099 77.623C149.788 78.2674 150.649 78.6999 151.497 78.537L151.308 77.555ZM148.343 74.5817C148.008 73.6164 147.954 72.7321 148.099 72.0909C148.246 71.4457 148.561 71.1406 148.911 71.0731L148.721 70.0912C147.835 70.2621 147.32 71.008 147.124 71.8694C146.928 72.7349 147.018 73.8131 147.398 74.909L148.343 74.5817ZM148.91 71.0732C149.3 70.9984 149.848 71.186 150.437 71.7361C151.01 72.2718 151.543 73.0843 151.876 74.047L152.821 73.7197C152.44 72.6211 151.825 71.6645 151.12 71.0055C150.43 70.3611 149.569 69.9286 148.722 70.0911L148.91 71.0732ZM151.876 74.0469C152.21 75.012 152.265 75.8961 152.119 76.5372C151.972 77.1825 151.657 77.4876 151.307 77.5551L151.497 78.537C152.383 78.3661 152.898 77.6202 153.094 76.7589C153.291 75.8935 153.2 74.8155 152.821 73.7198L151.876 74.0469Z" fill="black" mask="url(#path-38-inside-5_1953_27250)"/>
<path d="M151.402 78.046C150.165 78.2838 148.584 76.8061 147.87 74.7454C147.156 72.6841 147.58 70.8205 148.816 70.5821C150.053 70.3449 151.634 71.8221 152.348 73.8834C153.062 75.9441 152.638 77.8076 151.402 78.046V78.046Z" stroke="black" stroke-width="0.5" stroke-miterlimit="10" stroke-linecap="round" stroke-linejoin="round"/>
<path d="M169.979 131.553L169.979 131.553C169.476 131.65 168.849 131.402 168.236 130.828C167.629 130.261 167.077 129.412 166.732 128.416L166.732 128.416C166.386 127.418 166.322 126.485 166.481 125.788C166.64 125.089 167.004 124.673 167.488 124.58C167.992 124.483 168.619 124.732 169.233 125.306C169.839 125.872 170.392 126.721 170.737 127.718C171.083 128.715 171.146 129.648 170.988 130.345C170.829 131.044 170.464 131.46 169.979 131.553Z" fill="#D667FD" stroke="black" stroke-width="0.5"/>
<path d="M170.027 131.798C168.79 132.037 167.209 130.559 166.495 128.498C165.781 126.437 166.205 124.573 167.441 124.335C168.678 124.097 170.259 125.575 170.973 127.636C171.687 129.697 171.263 131.56 170.027 131.798Z" stroke="black" stroke-width="0.5" stroke-miterlimit="10" stroke-linecap="round" stroke-linejoin="round"/>
<path d="M165.171 125.817L159.061 122.289C158.016 121.685 156.729 121.685 155.683 122.289L149.573 125.817H139V145.661C139 146.04 139.188 146.42 139.563 146.635L155.683 155.943C156.729 156.546 158.016 156.546 159.061 155.943L175.181 146.635C175.556 146.42 175.744 146.04 175.744 145.661V125.817H165.171Z" fill="#AD27DC" stroke="black" stroke-width="0.5" stroke-miterlimit="10" stroke-linecap="round" stroke-linejoin="round"/>
<path d="M155.683 136.099L139.563 126.791C138.812 126.358 138.812 125.275 139.563 124.842L155.683 115.535C156.728 114.931 158.016 114.931 159.06 115.535L175.181 124.842C175.932 125.275 175.932 126.358 175.181 126.791L159.06 136.099C158.016 136.702 156.728 136.702 155.683 136.099Z" fill="#D667FD" stroke="black" stroke-width="0.5" stroke-miterlimit="10" stroke-linecap="round" stroke-linejoin="round"/>
<path d="M165.477 125.952L157.148 121.144" stroke="black" stroke-width="0.5" stroke-miterlimit="10" stroke-linecap="round"/>
<path d="M153.219 123.412L161.547 128.221" stroke="black" stroke-width="0.5" stroke-miterlimit="10" stroke-linecap="round"/>
<path d="M157.61 130.49L149.281 125.682" stroke="black" stroke-width="0.5" stroke-miterlimit="10" stroke-linecap="round"/>
<path d="M145.288 69.3616L139.178 65.834C138.133 65.2304 136.846 65.2304 135.801 65.834L129.691 69.3616H119.117V89.206C119.117 89.5852 119.305 89.9643 119.68 90.1809L135.801 99.4883C136.846 100.091 138.133 100.091 139.178 99.4883L155.299 90.1809C155.674 89.9643 155.862 89.5852 155.862 89.206V69.3616H145.288Z" fill="#EEBEFF" stroke="black" stroke-width="0.5" stroke-miterlimit="10" stroke-linecap="round" stroke-linejoin="round"/>
<path d="M135.8 79.645L119.68 70.3376C118.93 69.9039 118.93 68.821 119.68 68.3873L135.8 59.0811C136.846 58.4769 138.133 58.4769 139.177 59.0811L155.299 68.3879C156.049 68.821 156.049 69.9039 155.299 70.3376L139.177 79.645C138.133 80.248 136.846 80.248 135.8 79.645Z" fill="white" stroke="black" stroke-width="0.5" stroke-miterlimit="10" stroke-linecap="round" stroke-linejoin="round"/>
<path d="M102.577 43.7351L96.4673 40.2076C95.4221 39.604 94.1348 39.604 93.0896 40.2076L86.9791 43.7351H76.4062V63.5796C76.4062 63.9587 76.5943 64.3379 76.9692 64.5544L93.0896 73.8619C94.1348 74.4648 95.4221 74.4648 96.4673 73.8619L112.588 64.5544C112.963 64.3379 113.151 63.9587 113.151 63.5796V43.7351H102.577Z" fill="#EEBEFF" stroke="black" stroke-width="0.5" stroke-miterlimit="10" stroke-linecap="round" stroke-linejoin="round"/>
<path d="M93.0899 54.0171L76.9695 44.7097C76.2185 44.2759 76.2185 43.1931 76.9695 42.7594L93.0899 33.4531C94.1351 32.849 95.4224 32.849 96.467 33.4531L112.588 42.76C113.338 43.1931 113.338 44.2759 112.588 44.7097L96.467 54.0171C95.4224 54.6201 94.1351 54.6201 93.0899 54.0171Z" fill="white" stroke="black" stroke-width="0.5" stroke-miterlimit="10" stroke-linecap="round" stroke-linejoin="round"/>
<path d="M125.614 79.6929L125.614 79.6929C126.75 79.4741 128.096 80.0392 129.363 81.223C130.622 82.3996 131.761 84.152 132.471 86.2015L132.471 86.2015L151.091 139.954C151.801 142.004 151.939 143.939 151.605 145.406C151.272 146.875 150.483 147.827 149.367 148.042C148.232 148.26 146.886 147.695 145.619 146.511C144.36 145.334 143.221 143.582 142.511 141.532L123.89 87.7801C123.89 87.7801 123.89 87.7801 123.89 87.7801C123.18 85.7293 123.042 83.7943 123.376 82.3277C123.71 80.859 124.499 79.9074 125.614 79.6929Z" fill="#EEBEFF" stroke="black" stroke-width="0.5"/>
<path d="M149.414 148.287C146.915 148.768 143.718 145.781 142.274 141.614L123.654 87.8619C122.211 83.695 123.068 79.9279 125.567 79.4474C128.067 78.9658 131.264 81.9528 132.707 86.1197L151.327 139.872C152.77 144.038 151.914 147.805 149.414 148.287Z" stroke="black" stroke-width="0.5" stroke-miterlimit="10" stroke-linecap="round" stroke-linejoin="round"/>
<path d="M126.177 87.3399L126.177 87.3398C125.831 86.3418 125.768 85.4091 125.926 84.7118C126.085 84.0126 126.45 83.5973 126.934 83.5039C127.438 83.4073 128.064 83.6561 128.678 84.2298C129.284 84.7962 129.837 85.6448 130.183 86.6414C130.528 87.6391 130.591 88.5717 130.433 89.2689C130.274 89.9682 129.909 90.3835 129.425 90.4768C128.921 90.5736 128.295 90.325 127.681 89.7513C127.075 89.1848 126.522 88.3362 126.177 87.3399Z" fill="#D667FD" stroke="black" stroke-width="0.5"/>
<path d="M129.472 90.7223C128.236 90.9601 126.654 89.4824 125.941 87.4217C125.227 85.3604 125.65 83.4968 126.886 83.2584C128.123 83.0212 129.705 84.4983 130.419 86.5596C131.132 88.6203 130.709 90.4839 129.472 90.7223Z" stroke="black" stroke-width="0.5" stroke-miterlimit="10" stroke-linecap="round" stroke-linejoin="round"/>
<path d="M144.802 141.093L144.802 141.093C145.147 142.089 145.7 142.938 146.306 143.504C146.92 144.078 147.546 144.327 148.05 144.23L144.802 141.093ZM144.802 141.093C144.456 140.095 144.393 139.162 144.551 138.465M144.802 141.093L144.551 138.465M144.551 138.465C144.71 137.766 145.075 137.35 145.559 137.257M144.551 138.465L145.559 137.257M145.559 137.257C146.063 137.16 146.689 137.409 147.303 137.983C147.909 138.549 148.462 139.398 148.808 140.394C149.153 141.392 149.216 142.325 149.058 143.022C148.899 143.721 148.534 144.136 148.05 144.23L145.559 137.257Z" fill="#D667FD" stroke="black" stroke-width="0.5"/>
<path d="M148.097 144.475C146.861 144.714 145.279 143.235 144.566 141.175C143.852 139.113 144.275 137.25 145.511 137.011C146.748 136.774 148.33 138.251 149.044 140.313C149.757 142.373 149.334 144.237 148.097 144.475Z" stroke="black" stroke-width="0.5" stroke-miterlimit="10" stroke-linecap="round" stroke-linejoin="round"/>
<path d="M90.3813 46.3668L90.3815 46.3669L133.58 71.3518L90.3813 46.3668ZM90.3813 46.3668C89.1779 45.6724 88.6328 44.7967 88.6328 43.9723C88.6328 43.1479 89.1779 42.2721 90.3813 41.5774L90.4501 41.5377M90.3813 46.3668L90.4501 41.5377M90.4501 41.5377C91.6437 40.8696 93.2052 40.5288 94.7797 40.5288C96.3845 40.5288 97.9757 40.8829 99.1778 41.5767L90.4501 41.5377ZM99.178 41.5768L142.377 66.5617L142.377 66.5618C143.58 67.2568 144.125 68.1325 144.125 68.9568C144.125 69.7811 143.58 70.6568 142.377 71.3518C141.175 72.046 139.583 72.4002 137.978 72.4002C136.373 72.4002 134.782 72.046 133.58 71.3519L99.178 41.5768Z" fill="white" stroke="black" stroke-width="0.5"/>
<path d="M142.502 71.5683C140.004 73.0109 135.953 73.0109 133.455 71.5683L90.2564 46.5833C87.7583 45.142 87.7583 42.8028 90.2564 41.3609V41.3603C92.7544 39.9183 96.8049 39.9183 99.303 41.3603L142.502 66.3453C145 67.7878 145 70.1258 142.502 71.5683Z" stroke="black" stroke-width="0.5" stroke-miterlimit="10" stroke-linecap="round" stroke-linejoin="round"/>
<path d="M96.9057 45.0609L96.9056 45.061C96.328 45.3945 95.5553 45.5684 94.769 45.5684C93.9827 45.5684 93.2099 45.3945 92.632 45.061L92.632 45.0609C92.053 44.7269 91.8203 44.3238 91.8203 43.972C91.8204 43.6201 92.0533 43.2168 92.6326 42.8825L92.6326 42.8825C93.2102 42.5489 93.9829 42.375 94.7691 42.375C95.5553 42.375 96.328 42.5489 96.9056 42.8825L96.9056 42.8825C97.4849 43.2168 97.7178 43.6201 97.7178 43.9719C97.7178 44.3237 97.485 44.7269 96.9057 45.0609Z" fill="#D667FD" stroke="black" stroke-width="0.5"/>
<path d="M97.0306 45.2775C95.7816 45.9987 93.7567 45.9987 92.507 45.2775C91.258 44.5568 91.258 43.3872 92.5076 42.666C93.7567 41.9447 95.7816 41.9447 97.0306 42.666C98.2802 43.3872 98.2802 44.5568 97.0306 45.2775Z" stroke="black" stroke-width="0.5" stroke-miterlimit="10" stroke-linecap="round" stroke-linejoin="round"/>
<path d="M140.109 70.0464C139.531 70.3797 138.758 70.5535 137.972 70.5535C137.186 70.5535 136.413 70.3797 135.835 70.0464C135.256 69.7124 135.023 69.3093 135.023 68.9574C135.023 68.6054 135.256 68.202 135.835 67.8673C136.413 67.5341 137.186 67.3604 137.972 67.3604C138.758 67.3604 139.531 67.5341 140.109 67.8674C140.688 68.202 140.921 68.6053 140.921 68.9571C140.921 69.309 140.688 69.7121 140.109 70.0464Z" fill="#D667FD" stroke="black" stroke-width="0.5"/>
<path d="M140.234 70.263C138.984 70.9836 136.96 70.9836 135.71 70.263C134.461 69.5423 134.461 68.3727 135.71 67.6509C136.96 66.9302 138.984 66.9302 140.234 67.6509C141.483 68.3727 141.483 69.5417 140.234 70.263Z" stroke="black" stroke-width="0.5" stroke-miterlimit="10" stroke-linecap="round" stroke-linejoin="round"/>
<path d="M130.774 166.019L126.945 163.81" stroke="black" stroke-width="0.5" stroke-miterlimit="10" stroke-linecap="round" stroke-linejoin="round"/>
<path d="M174.571 171.449L160.795 179.402C158.685 180.62 156.074 180.62 153.963 179.402L138.297 170.356" stroke="black" stroke-width="0.5" stroke-miterlimit="10" stroke-linecap="round" stroke-linejoin="round"/>
<path d="M189.359 162.91L180.719 167.897" stroke="black" stroke-width="0.5" stroke-miterlimit="10" stroke-linecap="round" stroke-linejoin="round"/>
<path d="M88.1617 64.13C88.1617 64.13 87.7977 64.4024 87.7134 64.4454L79.2868 69.3106C79.7357 68.8131 79.979 68.0178 79.979 67.06C79.979 66.332 79.8388 65.5192 79.5483 64.6753C78.7287 62.3101 76.9816 60.5624 75.5136 60.5624C75.4596 60.5624 75.3983 60.5624 75.3438 60.5691L83.4185 55.9036C83.4185 55.9036 83.9639 55.6919 84.2611 55.6373C85.7419 55.3515 87.634 57.1168 88.4893 59.5864C89.1572 61.5209 88.9867 63.3104 88.1617 64.13Z" fill="#AD27DC" stroke="black" stroke-width="0.5" stroke-miterlimit="10" stroke-linecap="round" stroke-linejoin="round"/>
<mask id="path-68-inside-6_1953_27250" fill="white">
<path d="M79.9842 67.0601C79.9842 68.0179 79.7415 68.8132 79.292 69.3106L78.4124 69.8202L32.2429 96.4746L27.4688 88.2064L74.166 61.2486L75.3435 60.5692H75.349C75.4036 60.5625 75.4648 60.5625 75.5194 60.5625C76.9875 60.5625 78.7339 62.3102 79.5535 64.6754C79.8447 65.5192 79.9842 66.3321 79.9842 67.0601Z"/>
</mask>
<path d="M79.9842 67.0601C79.9842 68.0179 79.7415 68.8132 79.292 69.3106L78.4124 69.8202L32.2429 96.4746L27.4688 88.2064L74.166 61.2486L75.3435 60.5692H75.349C75.4036 60.5625 75.4648 60.5625 75.5194 60.5625C76.9875 60.5625 78.7339 62.3102 79.5535 64.6754C79.8447 65.5192 79.9842 66.3321 79.9842 67.0601Z" fill="#D667FD"/>
<path d="M79.292 69.3106L79.5427 69.7433L79.6105 69.704L79.663 69.6459L79.292 69.3106ZM78.4124 69.8202L78.6624 70.2532L78.6631 70.2528L78.4124 69.8202ZM32.2429 96.4746L31.8099 96.7247L32.0599 97.1576L32.4929 96.9077L32.2429 96.4746ZM27.4688 88.2064L27.2188 87.7733L26.7857 88.0233L27.0357 88.4564L27.4688 88.2064ZM74.166 61.2486L73.9162 60.8155L73.9161 60.8156L74.166 61.2486ZM75.3435 60.5692V60.0692H75.2096L75.0936 60.1361L75.3435 60.5692ZM75.349 60.5692V61.0692H75.3794L75.4096 61.0655L75.349 60.5692ZM79.5535 64.6754L80.0261 64.5123L80.0259 64.5117L79.5535 64.6754ZM79.4842 67.0601C79.4842 67.9482 79.2572 68.6034 78.921 68.9754L79.663 69.6459C80.2259 69.023 80.4842 68.0876 80.4842 67.0601H79.4842ZM79.0414 68.878L78.1618 69.3875L78.6631 70.2528L79.5427 69.7433L79.0414 68.878ZM78.1624 69.3872L31.9929 96.0416L32.4929 96.9077L78.6624 70.2532L78.1624 69.3872ZM32.6759 96.2246L27.9018 87.9563L27.0357 88.4564L31.8099 96.7247L32.6759 96.2246ZM27.7187 88.6394L74.416 61.6816L73.9161 60.8156L27.2188 87.7733L27.7187 88.6394ZM74.4159 61.6817L75.5934 61.0022L75.0936 60.1361L73.9162 60.8155L74.4159 61.6817ZM75.3435 61.0692H75.349V60.0692H75.3435V61.0692ZM75.4096 61.0655C75.4285 61.0632 75.4581 61.0625 75.5194 61.0625V60.0625C75.4715 60.0625 75.3787 60.0618 75.2883 60.0729L75.4096 61.0655ZM75.5194 61.0625C76.0635 61.0625 76.7465 61.3966 77.4237 62.0831C78.0894 62.7581 78.6934 63.7205 79.081 64.8391L80.0259 64.5117C79.594 63.2651 78.915 62.1711 78.1356 61.3809C77.3676 60.6023 76.4434 60.0625 75.5194 60.0625V61.0625ZM79.0808 64.8385C79.3562 65.6367 79.4842 66.3944 79.4842 67.0601H80.4842C80.4842 66.2698 80.3331 65.4018 80.0261 64.5123L79.0808 64.8385Z" fill="black" mask="url(#path-68-inside-6_1953_27250)"/>
<path d="M79.9842 67.06C79.9842 68.0179 79.7415 68.8132 79.292 69.3106L78.4124 69.8202L32.2429 96.4746L27.4688 88.2064L74.166 61.2486L75.3435 60.5692H75.349C75.4036 60.5625 75.4648 60.5625 75.5194 60.5625C76.9875 60.5625 78.7339 62.3102 79.5535 64.6754C79.8447 65.5192 79.9842 66.3321 79.9842 67.06V67.06Z" stroke="black" stroke-width="0.5" stroke-miterlimit="10" stroke-linecap="round" stroke-linejoin="round"/>
<path d="M22.8203 87.5392C23.7909 87.0715 25.0709 87.1873 26.4843 87.9942C26.4965 88.0002 26.5019 88.0002 26.5147 88.0118C29.535 89.7528 31.9743 93.9815 31.9743 97.4629V97.4939C31.9615 99.15 31.398 100.339 30.482 100.933L38.5561 96.2709C38.9911 96.0192 39.3017 95.6018 39.4206 95.1135C39.531 94.6634 39.5898 94.1629 39.5929 93.6176V93.5812C39.5929 89.808 36.9486 85.2273 33.6783 83.3414C33.6667 83.3292 33.6607 83.3292 33.6425 83.3232C33.1457 83.0399 32.6652 82.836 32.203 82.7068C31.7474 82.5794 31.2597 82.6631 30.8496 82.8997L22.8203 87.5392Z" fill="#AD27DC" stroke="black" stroke-width="0.5" stroke-miterlimit="10" stroke-linecap="round" stroke-linejoin="round"/>
<path d="M26.3623 88.2126L26.3635 88.2138L26.3895 88.2287C27.8527 89.0722 29.1891 90.528 30.1603 92.2099C31.1314 93.8918 31.7239 95.7765 31.7239 97.4633V97.4927C31.7114 99.0943 31.1692 100.185 30.3517 100.72L30.1784 100.818C29.3004 101.294 28.0698 101.219 26.6395 100.395C25.1818 99.5518 23.8453 98.0959 22.8726 96.4138C21.8999 94.7318 21.3047 92.8472 21.3047 91.1605C21.3047 89.531 21.8562 88.4291 22.6913 87.9025L22.8766 87.787C22.8811 87.7846 22.885 87.7825 22.888 87.7809L22.8883 87.7808L22.8927 87.7785L22.9054 87.7753L22.9284 87.7642C23.7999 87.3448 24.99 87.429 26.36 88.2111L26.3598 88.2114L26.3623 88.2126Z" fill="#D667FD" stroke="black" stroke-width="0.5"/>
<path d="M21.0547 91.1605C21.0547 94.6425 23.5054 98.8707 26.5143 100.612C27.9884 101.461 29.3169 101.57 30.2996 101.036L30.4816 100.933C31.3976 100.339 31.9612 99.1497 31.9739 97.4937V97.4633C31.9739 93.9813 29.5347 89.7531 26.5143 88.0121C26.5016 88 26.4961 88 26.484 87.9939C25.0705 87.1871 23.7906 87.0719 22.82 87.539C22.7957 87.545 22.7775 87.5572 22.7532 87.5693L22.5585 87.6906C21.6249 88.279 21.0547 89.4802 21.0547 91.1605Z" stroke="black" stroke-width="0.5" stroke-miterlimit="10" stroke-linecap="round" stroke-linejoin="round"/>
<path d="M29.5 107.475V117.219" stroke="black" stroke-width="0.5" stroke-miterlimit="10" stroke-linecap="round"/>
</svg>
