<svg width="228" height="270" viewBox="0 0 228 270" fill="none" xmlns="http://www.w3.org/2000/svg">
<path d="M207.434 178.413L139.16 138.995C139.173 138.776 139.198 138.566 139.199 138.337V138.277C139.199 137.199 139.06 136.08 138.815 134.952L140.283 134.839L144.338 134.531L147.9 134.26C148.729 134.197 149.404 133.588 149.575 132.775C149.697 132.194 149.761 131.555 149.761 130.861C149.761 125.581 146.06 119.167 141.489 116.527C140.841 116.15 140.21 115.874 139.605 115.688C138.857 115.46 138.048 115.776 137.603 116.419L133.291 122.64L132.516 123.759C131.558 122.841 130.535 122.046 129.469 121.432C129.449 121.411 129.439 121.411 129.409 121.402C128.593 120.936 127.801 120.601 127.041 120.389C126.292 120.179 125.489 120.316 124.816 120.706L111.782 128.256C111.781 128.255 111.78 128.255 111.779 128.254L111.78 128.257L103.744 132.913L112.274 123.766L36.7936 80.187L12 106.774L79.3883 145.681L73.7602 153.801L68.7592 161.023L68.761 161.026C68.1826 161.546 67.8355 162.417 67.8355 163.583C67.8355 166.359 69.7844 169.735 72.1886 171.123C73.3941 171.819 74.4845 171.883 75.2728 171.424L83.499 170.792L95.8148 169.855L97.2 169.754V169.743C100.469 169.536 102.758 166.973 103.084 162.633L109.489 158.923L107.16 161.422L182.64 205L207.434 178.413Z" fill="#DCFFD9"/>
<path d="M12 91.5867L87.4803 135.165L112.275 108.578L36.7942 65L12 91.5867Z" fill="#CBFFCD" stroke="black" stroke-width="0.5" stroke-miterlimit="10" stroke-linecap="round" stroke-linejoin="round"/>
<path d="M106.345 114.939L30.8594 71.3672" stroke="black" stroke-width="0.5" stroke-miterlimit="10" stroke-linecap="round" stroke-linejoin="round"/>
<path d="M100.134 121.609L24.6484 78.0264" stroke="black" stroke-width="0.5" stroke-miterlimit="10" stroke-linecap="round" stroke-linejoin="round"/>
<path d="M93.9033 128.269L18.4297 84.6851" stroke="black" stroke-width="0.5" stroke-miterlimit="10" stroke-linecap="round" stroke-linejoin="round"/>
<path d="M103.686 103.629L79.3594 130.473" stroke="black" stroke-width="0.5" stroke-miterlimit="10" stroke-linecap="round" stroke-linejoin="round"/>
<path d="M96.1624 99.2783L71.8359 126.122" stroke="black" stroke-width="0.5" stroke-miterlimit="10" stroke-linecap="round" stroke-linejoin="round"/>
<path d="M88.6312 94.9287L64.3047 121.784" stroke="black" stroke-width="0.5" stroke-miterlimit="10" stroke-linecap="round" stroke-linejoin="round"/>
<path d="M81.0843 90.5781L56.7578 117.434" stroke="black" stroke-width="0.5" stroke-miterlimit="10" stroke-linecap="round" stroke-linejoin="round"/>
<path d="M73.5531 86.2285L49.2266 113.084" stroke="black" stroke-width="0.5" stroke-miterlimit="10" stroke-linecap="round" stroke-linejoin="round"/>
<path d="M66.0179 81.8779L41.7031 108.734" stroke="black" stroke-width="0.5" stroke-miterlimit="10" stroke-linecap="round" stroke-linejoin="round"/>
<path d="M58.4906 77.5269L34.1641 104.383" stroke="black" stroke-width="0.5" stroke-miterlimit="10" stroke-linecap="round" stroke-linejoin="round"/>
<path d="M50.9671 73.1768L26.6406 100.044" stroke="black" stroke-width="0.5" stroke-miterlimit="10" stroke-linecap="round" stroke-linejoin="round"/>
<path d="M43.4359 68.8271L19.1094 95.6945" stroke="black" stroke-width="0.5" stroke-miterlimit="10" stroke-linecap="round" stroke-linejoin="round"/>
<path d="M144.336 119.295V119.345L140.281 119.652L134.374 120.107L129.703 112.637L133.291 107.456L135.715 103.96C140.515 106.945 144.336 113.708 144.336 119.295Z" fill="white" stroke="black" stroke-width="0.5" stroke-miterlimit="10" stroke-linecap="round"/>
<path d="M149.752 115.671C149.752 116.367 149.684 117.006 149.561 117.591C149.395 118.403 148.718 119.013 147.887 119.074L144.324 119.345V119.296C144.324 113.709 140.503 106.945 135.703 103.961L137.592 101.235C138.035 100.588 138.848 100.275 139.592 100.503C140.201 100.687 140.829 100.964 141.481 101.339C146.047 103.979 149.752 110.391 149.752 115.671Z" fill="white"/>
<path d="M149.752 115.671C149.752 116.367 149.684 117.006 149.561 117.591C149.395 118.403 148.718 119.013 147.887 119.074L144.324 119.345V119.296C144.324 113.709 140.503 106.945 135.703 103.961L137.592 101.235C138.035 100.588 138.848 100.275 139.592 100.503C140.201 100.687 140.829 100.964 141.481 101.339C146.047 103.979 149.752 110.391 149.752 115.671V115.671Z" stroke="black" stroke-width="0.5" stroke-miterlimit="10" stroke-linecap="round" stroke-linejoin="round"/>
<path d="M129.039 114.476C129.039 116.469 130.438 118.893 132.164 119.889C133.891 120.886 135.29 120.078 135.29 118.085C135.29 116.092 133.891 113.669 132.164 112.672C130.438 111.676 129.039 112.483 129.039 114.476Z" fill="white"/>
<path d="M129.039 114.476C129.039 116.469 130.438 118.893 132.164 119.889C133.891 120.886 135.29 120.078 135.29 118.085C135.29 116.092 133.891 113.669 132.164 112.672C130.438 111.676 129.039 112.483 129.039 114.476Z" stroke="black" stroke-width="0.5" stroke-miterlimit="10" stroke-linecap="round" stroke-linejoin="round"/>
<path d="M80.0859 131.436C81.6828 130.667 83.7886 130.858 86.1134 132.184C86.1337 132.194 86.1436 132.194 86.1633 132.214C91.1335 135.078 95.1457 142.034 95.1457 147.762V147.812C95.1254 150.537 94.1974 152.493 92.6904 153.471L137.5 127.516C138.216 127.102 138.726 126.415 138.922 125.612C139.103 124.871 139.2 124.047 139.206 123.15V123.091C139.206 116.883 134.855 109.348 129.476 106.244C129.456 106.225 129.446 106.225 129.416 106.215C128.599 105.75 127.808 105.414 127.048 105.201C126.299 104.991 125.496 105.129 124.822 105.519L80.0859 131.436Z" fill="#4CAF50" stroke="black" stroke-width="0.5" stroke-miterlimit="10" stroke-linecap="round" stroke-linejoin="round"/>
<path d="M103.127 146.356C103.127 151.358 100.733 154.333 97.1986 154.557V154.566L95.8134 154.669C96.3832 153.425 96.6989 151.877 96.6989 150.064C96.6989 142.709 91.5446 133.776 85.1781 130.098C83.5991 129.181 82.0914 128.692 80.7266 128.56L81.5924 127.318L81.6022 127.338C83.5892 124.465 87.3171 123.915 91.6055 126.39C97.9727 130.068 103.127 139.001 103.127 146.356Z" fill="#CBFFCD"/>
<path d="M103.127 146.356C103.127 151.358 100.733 154.333 97.1986 154.557V154.566L95.8134 154.669C96.3832 153.425 96.6989 151.877 96.6989 150.064C96.6989 142.709 91.5446 133.776 85.1781 130.098C83.5991 129.181 82.0914 128.692 80.7266 128.56L81.5924 127.318L81.6022 127.338C83.5892 124.465 87.3171 123.915 91.6055 126.39C97.9727 130.068 103.127 139.001 103.127 146.356V146.356Z" stroke="black" stroke-width="0.5" stroke-miterlimit="10" stroke-linecap="round" stroke-linejoin="round"/>
<path d="M111.781 113.067C112.132 113.234 112.489 113.418 112.852 113.627C119.221 117.301 124.378 126.236 124.378 133.59C124.378 134.137 124.347 134.667 124.292 135.165" stroke="black" stroke-width="0.5" stroke-miterlimit="10" stroke-linecap="round" stroke-linejoin="round"/>
<path d="M102.391 118.485C102.741 118.651 103.098 118.836 103.461 119.045C109.83 122.719 114.987 131.654 114.987 139.008C114.987 139.555 114.956 140.085 114.901 140.583" stroke="black" stroke-width="0.5" stroke-miterlimit="10" stroke-linecap="round" stroke-linejoin="round"/>
<path d="M96.7074 150.063C96.7074 151.876 96.3917 153.425 95.8219 154.668L83.5054 155.605L75.2743 156.237L68.7656 145.836L73.7673 138.614L80.735 128.56C82.0999 128.692 83.6076 129.18 85.186 130.098C91.5531 133.775 96.7074 142.709 96.7074 150.063Z" fill="white"/>
<path d="M96.7074 150.063C96.7074 151.876 96.3917 153.425 95.8219 154.668L83.5054 155.605L75.2743 156.237L68.7656 145.836L73.7673 138.614L80.735 128.56C82.0999 128.692 83.6076 129.18 85.186 130.098C91.5531 133.775 96.7074 142.709 96.7074 150.063V150.063Z" stroke="black" stroke-width="0.5" stroke-miterlimit="10" stroke-linecap="round"/>
<path d="M67.8438 148.396C67.8438 151.172 69.7926 154.547 72.1968 155.936C74.601 157.324 76.5499 156.198 76.5499 153.422C76.5499 150.646 74.601 147.271 72.1968 145.882C69.7926 144.495 67.8438 145.62 67.8438 148.396Z" fill="white"/>
<path d="M67.8438 148.396C67.8438 151.172 69.7926 154.547 72.1968 155.936C74.601 157.324 76.5499 156.198 76.5499 153.422C76.5499 150.646 74.601 147.271 72.1968 145.882C69.7926 144.495 67.8438 145.62 67.8438 148.396Z" stroke="black" stroke-width="0.5" stroke-miterlimit="10" stroke-linecap="round" stroke-linejoin="round"/>
<path d="M58.9531 158.55L72.1877 150.909" stroke="black" stroke-width="0.5" stroke-miterlimit="10" stroke-linecap="round" stroke-linejoin="round"/>
<path d="M107.164 146.234L182.644 189.813L207.439 163.226L131.958 119.648L107.164 146.234Z" fill="#CBFFCD" stroke="black" stroke-width="0.5" stroke-miterlimit="10" stroke-linecap="round" stroke-linejoin="round"/>
<path d="M201.509 169.587L126.023 126.015" stroke="black" stroke-width="0.5" stroke-miterlimit="10" stroke-linecap="round" stroke-linejoin="round"/>
<path d="M195.282 176.257L119.797 132.674" stroke="black" stroke-width="0.5" stroke-miterlimit="10" stroke-linecap="round" stroke-linejoin="round"/>
<path d="M189.067 182.917L113.594 139.333" stroke="black" stroke-width="0.5" stroke-miterlimit="10" stroke-linecap="round" stroke-linejoin="round"/>
<path d="M198.85 158.277L174.523 185.121" stroke="black" stroke-width="0.5" stroke-miterlimit="10" stroke-linecap="round" stroke-linejoin="round"/>
<path d="M191.327 153.927L167 180.771" stroke="black" stroke-width="0.5" stroke-miterlimit="10" stroke-linecap="round" stroke-linejoin="round"/>
<path d="M183.787 149.576L159.461 176.432" stroke="black" stroke-width="0.5" stroke-miterlimit="10" stroke-linecap="round" stroke-linejoin="round"/>
<path d="M176.248 145.226L151.922 172.082" stroke="black" stroke-width="0.5" stroke-miterlimit="10" stroke-linecap="round" stroke-linejoin="round"/>
<path d="M168.725 140.875L144.398 167.732" stroke="black" stroke-width="0.5" stroke-miterlimit="10" stroke-linecap="round" stroke-linejoin="round"/>
<path d="M161.183 136.525L136.867 163.381" stroke="black" stroke-width="0.5" stroke-miterlimit="10" stroke-linecap="round" stroke-linejoin="round"/>
<path d="M153.647 132.175L129.32 159.03" stroke="black" stroke-width="0.5" stroke-miterlimit="10" stroke-linecap="round" stroke-linejoin="round"/>
<path d="M146.116 127.825L121.789 154.692" stroke="black" stroke-width="0.5" stroke-miterlimit="10" stroke-linecap="round" stroke-linejoin="round"/>
<path d="M138.592 123.475L114.266 150.342" stroke="black" stroke-width="0.5" stroke-miterlimit="10" stroke-linecap="round" stroke-linejoin="round"/>
</svg>
