<svg width="253" height="270" viewBox="0 0 253 270" fill="none" xmlns="http://www.w3.org/2000/svg">
<path d="M28 174.69C28 177.425 28.6251 180.184 29.8747 182.89C32.4148 188.392 37.5234 193.68 45.1635 198.091C66.9001 210.641 100.879 211.367 121.066 199.713C126.958 196.313 130.857 192.137 132.914 187.638C134.099 185.057 134.675 182.375 134.675 179.665C134.675 179.405 134.671 179.146 134.659 178.882C134.476 174.374 132.711 169.829 129.498 165.629L151.989 152.645C171.718 157.676 195.824 156.552 211.024 147.776C217.15 144.242 221.302 139.969 223.501 135.384C224.755 132.783 225.375 130.081 225.375 127.354C225.375 119.056 219.609 110.535 208.212 103.953C186.479 91.4033 152.497 90.6765 132.31 102.33L42.3514 154.268C32.7475 159.811 28 167.159 28 174.69" fill="#FFE7D1"/>
<path d="M28 141.646C28 144.38 28.6251 147.139 29.8747 149.846C32.4148 155.348 37.5234 160.636 45.1635 165.046C66.9001 177.597 100.879 178.323 121.066 166.669C126.958 163.269 130.857 159.093 132.914 154.594C134.099 152.013 134.675 149.331 134.675 146.62C134.675 146.361 134.671 146.102 134.659 145.838C134.476 141.33 132.711 136.785 129.498 132.585L151.989 119.601C171.718 124.632 195.824 123.508 211.024 114.731C217.15 111.198 221.302 106.925 223.501 102.339C224.755 99.7389 225.375 97.0363 225.375 94.3097C225.375 86.0119 219.609 77.4909 208.212 70.9089C186.479 58.3594 152.497 57.6325 132.31 69.2863L42.3514 121.224C32.7475 126.767 28 134.115 28 141.646" fill="white"/>
<path d="M28 141.646C28 144.38 28.6251 147.139 29.8747 149.846C32.4148 155.348 37.5234 160.636 45.1635 165.046C66.9001 177.597 100.879 178.323 121.066 166.669C126.958 163.269 130.857 159.093 132.914 154.594C134.099 152.013 134.675 149.331 134.675 146.62C134.675 146.361 134.671 146.102 134.659 145.838C134.476 141.33 132.711 136.785 129.498 132.585L151.989 119.601C171.718 124.632 195.824 123.508 211.024 114.731C217.15 111.198 221.302 106.925 223.501 102.339C224.755 99.7389 225.375 97.0363 225.375 94.3097C225.375 86.0119 219.609 77.4909 208.212 70.9089C186.479 58.3594 152.497 57.6325 132.31 69.2863L42.3514 121.224C32.7475 126.767 28 134.115 28 141.646V141.646Z" stroke="black" stroke-width="0.5" stroke-miterlimit="10" stroke-linecap="round" stroke-linejoin="round"/>
<path d="M118.714 89.9048L92.8037 104.864L101.933 110.179L127.843 95.2188L118.714 89.9048V89.9048Z" fill="#FFCC9D" stroke="black" stroke-width="0.5" stroke-miterlimit="10" stroke-linecap="round" stroke-linejoin="round"/>
<path d="M115.281 97.1931L118.088 95.5586" stroke="black" stroke-width="0.5" stroke-miterlimit="10" stroke-linecap="round" stroke-linejoin="round"/>
<path d="M102.573 104.524L110.88 99.7427" stroke="black" stroke-width="0.5" stroke-miterlimit="10" stroke-linecap="round" stroke-linejoin="round"/>
<path d="M151.994 89.9795V96.878L163.238 103.37L174.481 96.878L185.729 103.37L196.973 96.878V89.9795L191 93.4287L185.729 96.4718L174.481 89.9795L163.238 96.4718L157.967 93.4287L151.994 89.9795V89.9795Z" fill="#FF7A00" stroke="black" stroke-width="0.5" stroke-miterlimit="10" stroke-linecap="round" stroke-linejoin="round"/>
<path d="M185.722 83.4884L191.695 86.9376L196.965 83.8939V76.9961L190.993 80.4446L185.722 83.4884Z" fill="#FF7A00" stroke="black" stroke-width="0.5" stroke-miterlimit="10" stroke-linecap="round" stroke-linejoin="round"/>
<path d="M157.265 86.9377L151.994 89.9808L157.967 93.4293L163.238 96.4731L174.482 89.9808L185.729 96.4731L191 93.4293L196.973 89.9808L191.702 86.9377L185.729 83.4885L191 80.4454L196.973 76.9962L185.729 70.5039L174.485 76.9962L163.238 70.5039L151.994 76.9962L157.967 80.4454L163.238 83.4885L157.265 86.9377V86.9377Z" fill="#FFCC9D" stroke="black" stroke-width="0.5" stroke-miterlimit="10" stroke-linecap="round" stroke-linejoin="round"/>
<path d="M151.994 76.9961V83.8946L157.265 86.9376L163.238 83.4884L157.967 80.4453L151.994 76.9961V76.9961Z" fill="#FF7A00" stroke="black" stroke-width="0.5" stroke-miterlimit="10" stroke-linecap="round" stroke-linejoin="round"/>
<path d="M178.717 81.041L170.24 85.9348" stroke="black" stroke-width="0.5" stroke-miterlimit="10" stroke-linecap="round" stroke-linejoin="round"/>
<path d="M178.717 85.9348L170.24 81.041" stroke="black" stroke-width="0.5" stroke-miterlimit="10" stroke-linecap="round" stroke-linejoin="round"/>
<path d="M54.0664 147.193V155.308C54.0664 156.485 54.8455 157.658 56.3953 158.555C59.4991 160.348 64.5349 160.348 67.6394 158.555C69.1447 157.686 69.9238 156.558 69.9683 155.418V147.303C69.9238 148.444 69.1447 149.571 67.6394 150.44C67.063 150.772 66.4216 151.044 65.74 151.251C63.4195 151.961 60.6152 151.961 58.2948 151.251C57.6131 151.044 56.9717 150.772 56.3953 150.44C54.8455 149.543 54.0664 148.37 54.0664 147.193Z" fill="#EEEEEE" stroke="black" stroke-width="0.5" stroke-miterlimit="10" stroke-linecap="round" stroke-linejoin="round"/>
<path d="M54.0664 147.193C54.0664 148.37 54.8455 149.543 56.3953 150.44C56.9717 150.772 57.6131 151.044 58.2948 151.251C60.6152 151.961 63.4195 151.961 65.74 151.251C66.4216 151.044 67.063 150.772 67.6394 150.44C69.1447 149.571 69.9238 148.443 69.9683 147.303V147.084C69.9238 145.943 69.1447 144.816 67.6394 143.947C64.5349 142.153 59.4991 142.153 56.3953 143.947C54.8455 144.844 54.0664 146.016 54.0664 147.193Z" fill="white"/>
<path d="M54.0664 147.193C54.0664 148.37 54.8455 149.543 56.3953 150.44C56.9717 150.772 57.6131 151.044 58.2948 151.251C60.6152 151.961 63.4195 151.961 65.74 151.251C66.4216 151.044 67.063 150.772 67.6394 150.44C69.1447 149.571 69.9238 148.443 69.9683 147.303V147.084C69.9238 145.943 69.1447 144.816 67.6394 143.947C64.5349 142.153 59.4991 142.153 56.3953 143.947C54.8455 144.844 54.0664 146.016 54.0664 147.193Z" stroke="black" stroke-width="0.5" stroke-miterlimit="10" stroke-linecap="round" stroke-linejoin="round"/>
<path d="M54.0664 127.715V135.831C54.0664 137.008 54.8455 138.18 56.3953 139.077C59.4991 140.87 64.5349 140.87 67.6394 139.077C69.1447 138.209 69.9238 137.08 69.9683 135.941V127.825C69.9238 128.966 69.1447 130.093 67.6394 130.962C67.063 131.294 66.4216 131.566 65.74 131.773C63.4195 132.483 60.6152 132.483 58.2948 131.773C57.6131 131.566 56.9717 131.294 56.3953 130.962C54.8455 130.065 54.0664 128.892 54.0664 127.715Z" fill="#FF7A00" stroke="black" stroke-width="0.5" stroke-miterlimit="10" stroke-linecap="round" stroke-linejoin="round"/>
<path d="M54.0664 127.716C54.0664 128.892 54.8455 130.065 56.3953 130.962C56.9717 131.294 57.6131 131.567 58.2948 131.774C60.6152 132.484 63.4195 132.484 65.74 131.774C66.4216 131.567 67.063 131.294 67.6394 130.962C69.1447 130.093 69.9238 128.966 69.9683 127.825V127.607C69.9238 126.466 69.1447 125.338 67.6394 124.47C66.1829 123.63 64.3039 123.179 62.4009 123.127H61.638C59.7308 123.179 57.8483 123.63 56.3953 124.47C54.8455 125.367 54.0664 126.539 54.0664 127.716Z" fill="#FFCC9D"/>
<path d="M54.0664 127.716C54.0664 128.892 54.8455 130.065 56.3953 130.962C56.9717 131.294 57.6131 131.567 58.2948 131.774C60.6152 132.484 63.4195 132.484 65.74 131.774C66.4216 131.567 67.063 131.294 67.6394 130.962C69.1447 130.093 69.9238 128.966 69.9683 127.825V127.607C69.9238 126.466 69.1447 125.338 67.6394 124.47C66.1829 123.63 64.3039 123.179 62.4009 123.127H61.638C59.7308 123.179 57.8483 123.63 56.3953 124.47C54.8455 125.367 54.0664 126.539 54.0664 127.716Z" stroke="black" stroke-width="0.5" stroke-miterlimit="10" stroke-linecap="round" stroke-linejoin="round"/>
<path d="M87.8242 147.193C87.8242 148.37 88.6033 149.543 90.1531 150.44C90.7295 150.772 91.3709 151.044 92.0519 151.251C94.373 151.961 97.1773 151.961 99.4978 151.251C100.179 151.044 100.821 150.772 101.397 150.44C102.951 149.543 103.726 148.37 103.726 147.193C103.726 146.016 102.951 144.844 101.397 143.947C98.2927 142.153 93.257 142.153 90.1531 143.947C88.6033 144.844 87.8242 146.016 87.8242 147.193" fill="#FFCC9D"/>
<path d="M87.8242 147.193C87.8242 148.37 88.6033 149.543 90.1531 150.44C90.7295 150.772 91.3709 151.044 92.0519 151.251C94.373 151.961 97.1773 151.961 99.4978 151.251C100.179 151.044 100.821 150.772 101.397 150.44C102.951 149.543 103.726 148.37 103.726 147.193C103.726 146.016 102.951 144.844 101.397 143.947C98.2927 142.153 93.257 142.153 90.1531 143.947C88.6033 144.844 87.8242 146.016 87.8242 147.193V147.193Z" stroke="black" stroke-width="0.5" stroke-miterlimit="10" stroke-linecap="round" stroke-linejoin="round"/>
<path d="M87.8242 147.193V155.308C87.8242 156.485 88.6033 157.658 90.1531 158.555C93.257 160.348 98.2927 160.348 101.397 158.555C102.951 157.658 103.726 156.485 103.726 155.308V147.193C103.726 148.37 102.951 149.543 101.397 150.44C100.821 150.772 100.179 151.044 99.4978 151.251C97.1773 151.961 94.373 151.961 92.0519 151.251C91.3709 151.044 90.7295 150.772 90.1531 150.44C88.6033 149.543 87.8242 148.37 87.8242 147.193Z" fill="#FF7A00" stroke="black" stroke-width="0.5" stroke-miterlimit="10" stroke-linecap="round" stroke-linejoin="round"/>
<path d="M87.8242 127.715V135.831C87.8242 137.008 88.6033 138.18 90.1531 139.077C93.257 140.87 98.2927 140.87 101.397 139.077C102.951 138.18 103.726 137.008 103.726 135.831V127.715C103.726 128.892 102.951 130.065 101.397 130.962C100.821 131.294 100.179 131.566 99.4978 131.773C97.1773 132.483 94.373 132.483 92.0519 131.773C91.3709 131.566 90.7295 131.294 90.1531 130.962C88.6033 130.065 87.8242 128.892 87.8242 127.715Z" fill="#EEEEEE" stroke="black" stroke-width="0.5" stroke-miterlimit="10" stroke-linecap="round" stroke-linejoin="round"/>
<path d="M87.8242 127.716C87.8242 128.893 88.6033 130.065 90.1531 130.962C90.7295 131.294 91.3709 131.567 92.0519 131.774C94.373 132.484 97.1773 132.484 99.4978 131.774C100.179 131.567 100.821 131.294 101.397 130.962C102.951 130.065 103.726 128.893 103.726 127.716C103.726 126.54 102.951 125.367 101.397 124.47C98.2927 122.677 93.257 122.677 90.1531 124.47C88.6033 125.367 87.8242 126.54 87.8242 127.716" fill="white"/>
<path d="M87.8242 127.716C87.8242 128.893 88.6033 130.065 90.1531 130.962C90.7295 131.294 91.3709 131.567 92.0519 131.774C94.373 132.484 97.1773 132.484 99.4978 131.774C100.179 131.567 100.821 131.294 101.397 130.962C102.951 130.065 103.726 128.893 103.726 127.716C103.726 126.54 102.951 125.367 101.397 124.47C98.2927 122.677 93.257 122.677 90.1531 124.47C88.6033 125.367 87.8242 126.54 87.8242 127.716V127.716Z" stroke="black" stroke-width="0.5" stroke-miterlimit="10" stroke-linecap="round" stroke-linejoin="round"/>
<path d="M113.286 114.692L118.91 117.938L142.813 104.115L137.188 100.87L113.286 114.692V114.692Z" fill="#FFCC9D" stroke="black" stroke-width="0.5" stroke-miterlimit="10" stroke-linecap="round" stroke-linejoin="round"/>
<path d="M113.286 114.692V119.614L118.91 122.86L142.813 109.038V104.116L118.91 117.939L113.286 114.692V114.692Z" fill="#FF7A00" stroke="black" stroke-width="0.5" stroke-miterlimit="10" stroke-linecap="round" stroke-linejoin="round"/>
<path d="M28 141.646V157.878C28 166.175 33.7661 174.696 45.1635 181.277C66.9001 193.828 100.879 194.553 121.066 182.9C130.333 177.548 134.675 170.285 134.675 162.848V146.621C134.675 149.332 134.099 152.014 132.914 154.594C130.857 159.094 126.958 163.269 121.066 166.67C100.879 178.324 66.9001 177.597 45.1635 165.047C37.5234 160.636 32.4148 155.349 29.8747 149.847C28.6251 147.14 28 144.381 28 141.646V141.646Z" fill="#FFCC9D" stroke="black" stroke-width="0.5" stroke-miterlimit="10" stroke-linecap="round" stroke-linejoin="round"/>
<path d="M129.509 132.585C132.722 136.785 134.487 141.329 134.67 145.837L152 135.832V119.601L129.509 132.585V132.585Z" fill="#FF7A00" stroke="black" stroke-width="0.5" stroke-miterlimit="10" stroke-linecap="round" stroke-linejoin="round"/>
<path d="M151.994 119.601V135.832C171.723 140.863 195.829 139.739 211.029 130.962C220.633 125.419 225.38 118.071 225.38 110.54V94.3096C225.38 97.0362 224.759 99.7388 223.505 102.339C221.307 106.925 217.156 111.198 211.029 114.731C195.829 123.508 171.723 124.632 151.994 119.601V119.601Z" fill="#FFCC9D" stroke="black" stroke-width="0.5" stroke-miterlimit="10" stroke-linecap="round" stroke-linejoin="round"/>
<path d="M89.5637 110.933C92.0063 112.344 92.0063 114.631 89.5637 116.041C87.121 117.452 83.1604 117.452 80.7177 116.041C78.2751 114.631 78.2751 112.344 80.7177 110.933C83.1604 109.523 87.121 109.523 89.5637 110.933Z" fill="#EEEEEE"/>
<path d="M89.5637 110.933C92.0063 112.344 92.0063 114.631 89.5637 116.041C87.121 117.452 83.1604 117.452 80.7177 116.041C78.2751 114.631 78.2751 112.344 80.7177 110.933C83.1604 109.523 87.121 109.523 89.5637 110.933Z" stroke="black" stroke-width="0.5" stroke-miterlimit="10" stroke-linecap="round" stroke-linejoin="round"/>
<path d="M138.525 83.3431C140.967 84.7531 140.967 87.0396 138.525 88.4502C136.082 89.8609 132.121 89.8609 129.679 88.4502C127.236 87.0396 127.236 84.7531 129.679 83.3431C132.121 81.9325 136.082 81.9325 138.525 83.3431Z" fill="#EEEEEE"/>
<path d="M138.525 83.3431C140.967 84.7531 140.967 87.0396 138.525 88.4502C136.082 89.8609 132.121 89.8609 129.679 88.4502C127.236 87.0396 127.236 84.7531 129.679 83.3431C132.121 81.9325 136.082 81.9325 138.525 83.3431Z" stroke="black" stroke-width="0.5" stroke-miterlimit="10" stroke-linecap="round" stroke-linejoin="round"/>
<path d="M174.472 89.9795V96.878" stroke="black" stroke-width="0.5" stroke-miterlimit="10" stroke-linecap="round" stroke-linejoin="round"/>
<path d="M185.722 96.4727V103.37" stroke="black" stroke-width="0.5" stroke-miterlimit="10" stroke-linecap="round" stroke-linejoin="round"/>
<path d="M163.243 96.4727V103.37" stroke="black" stroke-width="0.5" stroke-miterlimit="10" stroke-linecap="round" stroke-linejoin="round"/>
</svg>
