<svg width="228" height="270" viewBox="0 0 228 270" fill="none" xmlns="http://www.w3.org/2000/svg">
<path d="M187.996 211.905C187.996 212.611 187.529 213.316 186.598 213.852L186.153 214.107L182.35 216.305C180.489 217.383 177.469 217.383 175.605 216.305C174.674 215.769 173.454 215.501 172.234 215.501C171.014 215.501 169.794 215.769 168.864 216.305L168.855 216.31C166.995 217.387 166.995 219.131 168.855 220.204C169.015 220.295 169.163 220.394 169.292 220.494C169.894 220.952 170.209 221.497 170.248 222.042V222.077C170.253 222.103 170.253 222.125 170.253 222.151C170.253 222.194 170.253 222.237 170.248 222.285C170.192 222.942 169.729 223.596 168.855 224.098L168.444 224.335L144.614 238.094C142.749 239.171 139.729 239.171 137.868 238.094C136.938 237.558 135.718 237.289 134.498 237.289C133.278 237.289 132.053 237.558 131.123 238.094L131.119 238.098C129.255 239.176 129.255 240.915 131.119 241.992C131.279 242.083 131.422 242.182 131.556 242.282C132.192 242.771 132.512 243.359 132.512 243.939C132.512 244.644 132.049 245.35 131.119 245.886L130.708 246.124L126.87 248.339C125.006 249.417 121.99 249.417 120.125 248.339L60.8427 214.112L60.397 213.852C59.5364 213.359 59.0777 212.723 59.0084 212.074V212.065C58.9305 211.308 59.3935 210.538 60.397 209.958L64.6458 207.505C66.5061 206.432 69.5262 206.432 71.3868 207.505C72.3211 208.046 73.5412 208.314 74.7616 208.314C75.7998 208.314 76.838 208.12 77.699 207.726C77.8506 207.661 77.9935 207.587 78.1317 207.505H78.1404C79.8537 206.515 79.9876 204.957 78.5514 203.884C78.4258 203.789 78.2873 203.698 78.1404 203.611H78.136C77.262 203.105 76.8034 202.456 76.7471 201.798V201.785C76.6908 201.037 77.1538 200.284 78.136 199.717L102.382 185.721C104.242 184.644 107.262 184.644 109.127 185.721C110.057 186.257 111.277 186.526 112.498 186.526C113.54 186.526 114.583 186.331 115.444 185.937C115.591 185.873 115.734 185.799 115.872 185.721L115.877 185.717C117.59 184.726 117.724 183.168 116.288 182.096C116.162 182 116.024 181.909 115.877 181.823C114.947 181.282 114.479 180.581 114.479 179.876C114.479 179.171 114.947 178.465 115.877 177.929L120.125 175.476C121.986 174.399 125.006 174.399 126.87 175.476L186.598 209.958C187.529 210.495 187.996 211.205 187.996 211.905Z" fill="#D1DBFF"/>
<path d="M170.25 213.929C170.25 213.972 170.25 214.016 170.25 214.059C170.25 214.098 170.25 214.137 170.25 214.176V213.929Z" fill="white" stroke="black" stroke-width="0.5" stroke-miterlimit="10" stroke-linecap="round" stroke-linejoin="round"/>
<path d="M115.866 173.221L115.862 173.225C115.723 173.303 115.581 173.377 115.433 173.441C114.793 172.952 114.469 172.368 114.469 171.785V167.38C114.469 168.085 114.936 168.786 115.866 169.327C116.013 169.413 116.151 169.504 116.277 169.6C117.714 170.672 117.579 172.23 115.866 173.221Z" fill="white" stroke="black" stroke-width="0.5" stroke-miterlimit="10" stroke-linecap="round" stroke-linejoin="round"/>
<path d="M78.1433 195.009H78.1346C77.9964 195.091 77.8535 195.165 77.7019 195.23C77.1137 194.78 76.7976 194.252 76.75 193.72V189.302C76.8063 189.96 77.2649 190.609 78.139 191.115H78.1433C78.2902 191.202 78.4287 191.293 78.5543 191.388C79.9906 192.461 79.8567 194.018 78.1433 195.009Z" fill="white" stroke="black" stroke-width="0.5" stroke-miterlimit="10" stroke-linecap="round" stroke-linejoin="round"/>
<path d="M186.153 201.611L182.351 203.809C180.49 204.887 177.47 204.887 175.605 203.809C174.675 203.273 173.455 203.005 172.235 203.005C171.015 203.005 169.795 203.273 168.865 203.809L168.856 203.813C166.996 204.891 166.996 206.635 168.856 207.707C169.016 207.798 169.163 207.898 169.293 207.998C169.146 208.067 169.003 208.14 168.865 208.218H168.856C167.143 209.209 167.009 210.766 168.445 211.839L144.614 225.598C142.749 226.675 139.73 226.675 137.869 225.598C136.939 225.061 135.719 224.793 134.499 224.793C133.279 224.793 132.054 225.061 131.124 225.598L131.12 225.602C129.255 226.679 129.255 228.418 131.12 229.496C131.28 229.587 131.423 229.687 131.557 229.786C131.405 229.855 131.262 229.929 131.124 230.007H131.12C129.402 230.998 129.268 232.555 130.709 233.628L126.871 235.843C125.006 236.92 121.991 236.92 120.126 235.843L60.8438 201.616L64.6466 199.418C66.5072 198.341 69.5269 198.341 71.3875 199.418C72.3221 199.954 73.5422 200.222 74.7623 200.222C75.982 200.222 77.2021 199.954 78.1324 199.418L78.1411 199.413C80.0017 198.336 80.0017 196.593 78.1411 195.52H78.1367C77.9769 195.429 77.834 195.329 77.6997 195.23C77.8513 195.165 77.9942 195.091 78.1324 195.009H78.1411C79.8544 194.018 79.9887 192.461 78.5521 191.388L102.383 177.629C104.243 176.552 107.263 176.552 109.128 177.629C110.058 178.166 111.278 178.434 112.498 178.434C113.718 178.434 114.938 178.166 115.873 177.629L115.877 177.625C117.738 176.548 117.738 174.808 115.877 173.731C115.722 173.64 115.575 173.545 115.445 173.441C115.592 173.376 115.734 173.303 115.873 173.225L115.877 173.221C117.59 172.23 117.725 170.672 116.288 169.599L120.126 167.384C121.986 166.307 125.006 166.307 126.871 167.384L186.153 201.611Z" fill="white" stroke="black" stroke-width="0.5" stroke-miterlimit="10" stroke-linecap="round" stroke-linejoin="round"/>
<mask id="path-6-inside-1_1953_26895" fill="white">
<path d="M187.996 199.409C187.996 200.115 187.529 200.82 186.598 201.356L186.153 201.611L182.35 203.809C180.489 204.887 177.469 204.887 175.605 203.809C174.674 203.273 173.454 203.005 172.234 203.005C171.014 203.005 169.794 203.273 168.864 203.809L168.855 203.814C166.995 204.891 166.995 206.635 168.855 207.707C169.015 207.799 169.163 207.898 169.292 207.998C169.894 208.456 170.209 209.001 170.248 209.546V209.581C170.253 209.607 170.253 209.629 170.253 209.655C170.253 209.698 170.253 209.741 170.248 209.789C170.192 210.446 169.729 211.1 168.855 211.602L168.444 211.839L144.614 225.598C142.749 226.675 139.729 226.675 137.868 225.598C136.938 225.062 135.718 224.793 134.498 224.793C133.278 224.793 132.053 225.062 131.123 225.598L131.119 225.602C129.255 226.68 129.255 228.419 131.119 229.496C131.279 229.587 131.422 229.687 131.556 229.786C132.192 230.275 132.512 230.863 132.512 231.443C132.512 232.148 132.049 232.854 131.119 233.39L130.708 233.628L126.87 235.843C125.006 236.92 121.99 236.92 120.125 235.843L60.8427 201.616L60.397 201.356C59.5364 200.863 59.0777 200.227 59.0084 199.578V199.569C58.9305 198.812 59.3935 198.042 60.397 197.462L64.6458 195.009C66.5061 193.936 69.5262 193.936 71.3868 195.009C72.3211 195.55 73.5412 195.818 74.7616 195.818C75.7998 195.818 76.838 195.624 77.699 195.23C77.8506 195.165 77.9935 195.091 78.1317 195.009H78.1404C79.8537 194.018 79.9876 192.461 78.5514 191.388C78.4258 191.293 78.2873 191.202 78.1404 191.115H78.136C77.262 190.609 76.8034 189.96 76.7471 189.302V189.289C76.6908 188.541 77.1538 187.788 78.136 187.221L102.382 173.225C104.242 172.148 107.262 172.148 109.127 173.225C110.057 173.761 111.277 174.03 112.498 174.03C113.54 174.03 114.583 173.835 115.444 173.441C115.591 173.377 115.734 173.303 115.872 173.225L115.877 173.221C117.59 172.23 117.724 170.672 116.288 169.599C116.162 169.504 116.024 169.413 115.877 169.327C114.947 168.786 114.479 168.085 114.479 167.38C114.479 166.675 114.947 165.969 115.877 165.433L120.125 162.98C121.986 161.903 125.006 161.903 126.87 162.98L186.598 197.462C187.529 197.999 187.996 198.709 187.996 199.409Z"/>
</mask>
<path d="M187.996 199.409C187.996 200.115 187.529 200.82 186.598 201.356L186.153 201.611L182.35 203.809C180.489 204.887 177.469 204.887 175.605 203.809C174.674 203.273 173.454 203.005 172.234 203.005C171.014 203.005 169.794 203.273 168.864 203.809L168.855 203.814C166.995 204.891 166.995 206.635 168.855 207.707C169.015 207.799 169.163 207.898 169.292 207.998C169.894 208.456 170.209 209.001 170.248 209.546V209.581C170.253 209.607 170.253 209.629 170.253 209.655C170.253 209.698 170.253 209.741 170.248 209.789C170.192 210.446 169.729 211.1 168.855 211.602L168.444 211.839L144.614 225.598C142.749 226.675 139.729 226.675 137.868 225.598C136.938 225.062 135.718 224.793 134.498 224.793C133.278 224.793 132.053 225.062 131.123 225.598L131.119 225.602C129.255 226.68 129.255 228.419 131.119 229.496C131.279 229.587 131.422 229.687 131.556 229.786C132.192 230.275 132.512 230.863 132.512 231.443C132.512 232.148 132.049 232.854 131.119 233.39L130.708 233.628L126.87 235.843C125.006 236.92 121.99 236.92 120.125 235.843L60.8427 201.616L60.397 201.356C59.5364 200.863 59.0777 200.227 59.0084 199.578V199.569C58.9305 198.812 59.3935 198.042 60.397 197.462L64.6458 195.009C66.5061 193.936 69.5262 193.936 71.3868 195.009C72.3211 195.55 73.5412 195.818 74.7616 195.818C75.7998 195.818 76.838 195.624 77.699 195.23C77.8506 195.165 77.9935 195.091 78.1317 195.009H78.1404C79.8537 194.018 79.9876 192.461 78.5514 191.388C78.4258 191.293 78.2873 191.202 78.1404 191.115H78.136C77.262 190.609 76.8034 189.96 76.7471 189.302V189.289C76.6908 188.541 77.1538 187.788 78.136 187.221L102.382 173.225C104.242 172.148 107.262 172.148 109.127 173.225C110.057 173.761 111.277 174.03 112.498 174.03C113.54 174.03 114.583 173.835 115.444 173.441C115.591 173.377 115.734 173.303 115.872 173.225L115.877 173.221C117.59 172.23 117.724 170.672 116.288 169.599C116.162 169.504 116.024 169.413 115.877 169.327C114.947 168.786 114.479 168.085 114.479 167.38C114.479 166.675 114.947 165.969 115.877 165.433L120.125 162.98C121.986 161.903 125.006 161.903 126.87 162.98L186.598 197.462C187.529 197.999 187.996 198.709 187.996 199.409Z" fill="white"/>
<path d="M186.598 201.356L186.847 201.79L186.848 201.789L186.598 201.356ZM186.153 201.611L185.904 201.177L185.903 201.178L186.153 201.611ZM182.35 203.809L182.1 203.376L182.099 203.377L182.35 203.809ZM175.605 203.809L175.855 203.376L175.854 203.376L175.605 203.809ZM168.864 203.809L169.081 204.26L169.098 204.252L169.114 204.243L168.864 203.809ZM168.855 203.814L168.638 203.363L168.621 203.371L168.605 203.381L168.855 203.814ZM168.855 207.707L168.605 208.141L168.608 208.142L168.855 207.707ZM169.292 207.998L168.987 208.394L168.989 208.395L169.292 207.998ZM170.248 209.546H170.748V209.529L170.747 209.511L170.248 209.546ZM170.248 209.581H169.748V209.622L169.755 209.663L170.248 209.581ZM170.248 209.789L169.75 209.743L169.75 209.746L170.248 209.789ZM168.855 211.602L168.606 211.168L168.605 211.169L168.855 211.602ZM168.444 211.839L168.694 212.272L168.695 212.272L168.444 211.839ZM144.614 225.598L144.364 225.165L144.364 225.165L144.614 225.598ZM137.868 225.598L138.119 225.165L138.118 225.165L137.868 225.598ZM131.123 225.598L130.874 225.165L130.825 225.193L130.783 225.232L131.123 225.598ZM131.119 225.602L131.369 226.035L131.418 226.007L131.459 225.969L131.119 225.602ZM131.119 229.496L130.869 229.929L130.872 229.931L131.119 229.496ZM131.556 229.786L131.861 229.389L131.853 229.384L131.556 229.786ZM131.119 233.39L130.869 232.957L130.868 232.957L131.119 233.39ZM130.708 233.628L130.958 234.061L130.959 234.061L130.708 233.628ZM126.87 235.843L126.62 235.41L126.62 235.41L126.87 235.843ZM120.125 235.843L120.375 235.41L120.375 235.41L120.125 235.843ZM60.8427 201.616L60.5911 202.048L60.5927 202.049L60.8427 201.616ZM60.397 201.356L60.6486 200.924L60.6457 200.922L60.397 201.356ZM59.0084 199.578H58.5084V199.605L58.5112 199.631L59.0084 199.578ZM59.0084 199.569H59.5084V199.544L59.5058 199.518L59.0084 199.569ZM60.397 197.462L60.1471 197.029L60.1468 197.029L60.397 197.462ZM64.6458 195.009L64.396 194.576L64.3959 194.576L64.6458 195.009ZM71.3868 195.009L71.6372 194.577L71.6366 194.576L71.3868 195.009ZM77.699 195.23L77.502 194.77L77.4911 194.775L77.699 195.23ZM78.1317 195.009V194.509H77.9946L77.8767 194.579L78.1317 195.009ZM78.1404 195.009V195.509H78.2745L78.3907 195.442L78.1404 195.009ZM78.5514 191.388L78.2499 191.787L78.2521 191.788L78.5514 191.388ZM78.1404 191.115L78.3943 190.685L78.2768 190.615H78.1404V191.115ZM78.136 191.115L77.8854 191.548L78.0017 191.615H78.136V191.115ZM76.7471 189.302H76.2471V189.324L76.2489 189.345L76.7471 189.302ZM76.7471 189.289H77.2471V189.271L77.2457 189.252L76.7471 189.289ZM78.136 187.221L78.386 187.654L78.386 187.654L78.136 187.221ZM102.382 173.225L102.632 173.658L102.633 173.658L102.382 173.225ZM109.127 173.225L108.877 173.658L108.877 173.658L109.127 173.225ZM115.444 173.441L115.243 172.984L115.236 172.987L115.444 173.441ZM115.872 173.225L116.117 173.661L116.177 173.628L116.226 173.579L115.872 173.225ZM115.877 173.221L115.626 172.788L115.569 172.821L115.523 172.867L115.877 173.221ZM116.288 169.599L115.985 169.998L115.988 170L116.288 169.599ZM115.877 169.327L116.129 168.896L116.128 168.895L115.877 169.327ZM115.877 165.433L116.126 165.866L116.127 165.866L115.877 165.433ZM120.125 162.98L120.375 163.413L120.376 163.412L120.125 162.98ZM126.87 162.98L126.62 163.413L126.62 163.413L126.87 162.98ZM186.598 197.462L186.348 197.895L186.349 197.895L186.598 197.462ZM187.496 199.409C187.496 199.873 187.188 200.439 186.349 200.923L186.848 201.789C187.869 201.2 188.496 200.356 188.496 199.409H187.496ZM186.35 200.922L185.904 201.177L186.401 202.045L186.847 201.79L186.35 200.922ZM185.903 201.178L182.1 203.376L182.6 204.242L186.403 202.044L185.903 201.178ZM182.099 203.377C181.263 203.861 180.135 204.117 178.979 204.117C177.823 204.117 176.693 203.861 175.855 203.376L175.355 204.242C176.381 204.835 177.694 205.117 178.979 205.117C180.264 205.117 181.576 204.835 182.6 204.242L182.099 203.377ZM175.854 203.376C174.83 202.786 173.519 202.505 172.234 202.505V203.505C173.39 203.505 174.519 203.76 175.355 204.243L175.854 203.376ZM172.234 202.505C170.95 202.505 169.639 202.786 168.614 203.376L169.114 204.243C169.95 203.76 171.079 203.505 172.234 203.505V202.505ZM168.647 203.359L168.638 203.363L169.072 204.264L169.081 204.26L168.647 203.359ZM168.605 203.381C167.583 203.972 166.96 204.816 166.96 205.762C166.96 206.708 167.584 207.551 168.605 208.141L169.105 207.274C168.266 206.791 167.96 206.225 167.96 205.762C167.96 205.299 168.267 204.732 169.106 204.246L168.605 203.381ZM168.608 208.142C168.747 208.221 168.875 208.308 168.987 208.394L169.597 207.601C169.45 207.488 169.284 207.376 169.103 207.273L168.608 208.142ZM168.989 208.395C169.507 208.79 169.723 209.215 169.75 209.582L170.747 209.511C170.695 208.788 170.28 208.122 169.595 207.6L168.989 208.395ZM169.748 209.546V209.581H170.748V209.546H169.748ZM169.755 209.663C169.754 209.658 169.754 209.654 169.753 209.65C169.753 209.645 169.753 209.642 169.753 209.641C169.753 209.639 169.753 209.639 169.753 209.641C169.753 209.644 169.753 209.648 169.753 209.655H170.753C170.753 209.632 170.754 209.571 170.742 209.499L169.755 209.663ZM169.753 209.655C169.753 209.7 169.752 209.722 169.75 209.743L170.746 209.834C170.753 209.761 170.753 209.696 170.753 209.655H169.753ZM169.75 209.746C169.713 210.187 169.392 210.717 168.606 211.168L169.104 212.035C170.066 211.483 170.672 210.706 170.747 209.831L169.75 209.746ZM168.605 211.169L168.194 211.407L168.695 212.272L169.106 212.034L168.605 211.169ZM168.194 211.406L144.364 225.165L144.864 226.031L168.694 212.272L168.194 211.406ZM144.364 225.165C143.525 225.649 142.395 225.906 141.239 225.906C140.083 225.906 138.955 225.649 138.119 225.165L137.618 226.031C138.642 226.624 139.954 226.906 141.239 226.906C142.525 226.906 143.837 226.624 144.864 226.031L144.364 225.165ZM138.118 225.165C137.094 224.574 135.783 224.293 134.498 224.293V225.293C135.654 225.293 136.783 225.549 137.619 226.031L138.118 225.165ZM134.498 224.293C133.214 224.293 131.898 224.574 130.874 225.165L131.373 226.031C132.209 225.549 133.342 225.293 134.498 225.293V224.293ZM130.783 225.232L130.779 225.236L131.459 225.969L131.464 225.964L130.783 225.232ZM130.869 225.169C129.846 225.76 129.221 226.603 129.221 227.549C129.221 228.495 129.846 229.338 130.869 229.929L131.369 229.063C130.527 228.577 130.221 228.011 130.221 227.549C130.221 227.087 130.527 226.522 131.369 226.035L130.869 225.169ZM130.872 229.931C131.008 230.008 131.132 230.094 131.259 230.188L131.853 229.384C131.712 229.279 131.551 229.167 131.366 229.061L130.872 229.931ZM131.251 230.182C131.801 230.605 132.012 231.06 132.012 231.443H133.012C133.012 230.667 132.583 229.945 131.861 229.389L131.251 230.182ZM132.012 231.443C132.012 231.908 131.707 232.474 130.869 232.957L131.369 233.823C132.392 233.233 133.012 232.389 133.012 231.443H132.012ZM130.868 232.957L130.458 233.195L130.959 234.061L131.369 233.823L130.868 232.957ZM130.458 233.195L126.62 235.41L127.12 236.276L130.958 234.061L130.458 233.195ZM126.62 235.41C125.782 235.895 124.653 236.151 123.498 236.151C122.343 236.151 121.214 235.895 120.375 235.41L119.875 236.276C120.901 236.869 122.213 237.151 123.498 237.151C124.783 237.151 126.094 236.869 127.12 236.276L126.62 235.41ZM120.375 235.41L61.0927 201.183L60.5927 202.049L119.875 236.276L120.375 235.41ZM61.0943 201.184L60.6486 200.924L60.1455 201.788L60.5911 202.048L61.0943 201.184ZM60.6457 200.922C59.872 200.479 59.5524 199.963 59.5056 199.525L58.5112 199.631C58.603 200.491 59.2007 201.247 60.1484 201.79L60.6457 200.922ZM59.5084 199.578V199.569H58.5084V199.578H59.5084ZM59.5058 199.518C59.4555 199.03 59.7404 198.419 60.6473 197.895L60.1468 197.029C59.0465 197.665 58.4055 198.595 58.5111 199.62L59.5058 199.518ZM60.647 197.895L64.8958 195.442L64.3959 194.576L60.1471 197.029L60.647 197.895ZM64.8957 195.442C65.7319 194.96 66.8604 194.704 68.0162 194.704C69.172 194.704 70.3006 194.96 71.137 195.442L71.6366 194.576C70.6124 193.985 69.3007 193.704 68.0162 193.704C66.7317 193.704 65.4201 193.985 64.396 194.576L64.8957 195.442ZM71.1364 195.442C72.1647 196.037 73.4766 196.318 74.7616 196.318V195.318C73.6057 195.318 72.4774 195.063 71.6372 194.577L71.1364 195.442ZM74.7616 196.318C75.8574 196.318 76.9689 196.113 77.9069 195.685L77.4911 194.775C76.7071 195.134 75.7422 195.318 74.7616 195.318V196.318ZM77.896 195.689C78.0689 195.615 78.2312 195.532 78.3867 195.439L77.8767 194.579C77.7558 194.651 77.6322 194.714 77.5021 194.77L77.896 195.689ZM78.1317 195.509H78.1404V194.509H78.1317V195.509ZM78.3907 195.442C79.332 194.898 79.9338 194.141 80.0242 193.282C80.1159 192.41 79.6658 191.596 78.8507 190.987L78.2521 191.788C78.8732 192.252 79.0743 192.754 79.0297 193.177C78.9839 193.612 78.6621 194.13 77.89 194.577L78.3907 195.442ZM78.8529 190.989C78.7092 190.88 78.5541 190.779 78.3943 190.685L77.8864 191.546C78.0204 191.625 78.1425 191.705 78.2499 191.787L78.8529 190.989ZM78.1404 190.615H78.136V191.615H78.1404V190.615ZM78.3867 190.683C77.5992 190.226 77.283 189.701 77.2453 189.26L76.2489 189.345C76.3237 190.22 76.9248 190.992 77.8854 191.548L78.3867 190.683ZM77.2471 189.302V189.289H76.2471V189.302H77.2471ZM77.2457 189.252C77.209 188.764 77.5007 188.165 78.386 187.654L77.8861 186.788C76.8069 187.411 76.1726 188.318 76.2485 189.327L77.2457 189.252ZM78.386 187.654L102.632 173.658L102.132 172.792L77.8861 186.788L78.386 187.654ZM102.633 173.658C103.469 173.173 104.597 172.917 105.753 172.917C106.909 172.917 108.038 173.173 108.877 173.658L109.377 172.792C108.351 172.199 107.038 171.917 105.753 171.917C104.468 171.917 103.156 172.199 102.132 172.792L102.633 173.658ZM108.877 173.658C109.901 174.249 111.213 174.53 112.498 174.53V173.53C111.342 173.53 110.213 173.274 109.377 172.792L108.877 173.658ZM112.498 174.53C113.597 174.53 114.713 174.325 115.652 173.896L115.236 172.987C114.452 173.345 113.483 173.53 112.498 173.53V174.53ZM115.645 173.899C115.811 173.826 115.969 173.744 116.117 173.661L115.628 172.789C115.499 172.861 115.371 172.927 115.243 172.984L115.645 173.899ZM116.226 173.579L116.23 173.574L115.523 172.867L115.519 172.872L116.226 173.579ZM116.127 173.654C117.068 173.109 117.67 172.353 117.76 171.493C117.852 170.622 117.402 169.808 116.587 169.199L115.988 170C116.609 170.464 116.81 170.965 116.766 171.388C116.72 171.824 116.398 172.341 115.626 172.788L116.127 173.654ZM116.59 169.201C116.446 169.092 116.291 168.99 116.129 168.896L115.624 169.758C115.757 169.836 115.878 169.916 115.985 169.998L116.59 169.201ZM116.128 168.895C115.286 168.405 114.979 167.842 114.979 167.38H113.979C113.979 168.328 114.607 169.167 115.625 169.759L116.128 168.895ZM114.979 167.38C114.979 166.917 115.287 166.35 116.126 165.866L115.627 165C114.606 165.588 113.979 166.433 113.979 167.38H114.979ZM116.127 165.866L120.375 163.413L119.875 162.547L115.627 165L116.127 165.866ZM120.376 163.412C121.212 162.928 122.34 162.672 123.496 162.672C124.652 162.672 125.782 162.928 126.62 163.413L127.12 162.547C126.094 161.954 124.782 161.672 123.496 161.672C122.211 161.672 120.899 161.954 119.875 162.547L120.376 163.412ZM126.62 163.413L186.348 197.895L186.848 197.029L127.12 162.547L126.62 163.413ZM186.349 197.895C187.187 198.379 187.496 198.95 187.496 199.409H188.496C188.496 198.467 187.87 197.619 186.848 197.029L186.349 197.895Z" fill="black" mask="url(#path-6-inside-1_1953_26895)"/>
<path d="M187.996 199.409C187.996 200.115 187.529 200.82 186.598 201.356L186.153 201.611L182.35 203.809C180.489 204.887 177.469 204.887 175.605 203.809C174.674 203.273 173.454 203.005 172.234 203.005C171.014 203.005 169.794 203.273 168.864 203.809L168.855 203.814C166.995 204.891 166.995 206.635 168.855 207.707C169.015 207.799 169.163 207.898 169.292 207.998C169.894 208.456 170.209 209.001 170.248 209.546V209.581C170.253 209.607 170.253 209.629 170.253 209.655C170.253 209.698 170.253 209.741 170.248 209.789C170.192 210.446 169.729 211.1 168.855 211.602L168.444 211.839L144.614 225.598C142.749 226.675 139.729 226.675 137.868 225.598C136.938 225.062 135.718 224.793 134.498 224.793C133.278 224.793 132.053 225.062 131.123 225.598L131.119 225.602C129.255 226.68 129.255 228.419 131.119 229.496C131.279 229.587 131.422 229.687 131.556 229.786C132.192 230.275 132.512 230.863 132.512 231.443C132.512 232.148 132.049 232.854 131.119 233.39L130.708 233.628L126.87 235.843C125.006 236.92 121.99 236.92 120.125 235.843L60.8427 201.616L60.397 201.356C59.5364 200.863 59.0777 200.227 59.0084 199.578V199.569C58.9305 198.812 59.3935 198.042 60.397 197.462L64.6458 195.009C66.5061 193.936 69.5262 193.936 71.3868 195.009C72.3211 195.55 73.5412 195.818 74.7616 195.818C75.7998 195.818 76.838 195.624 77.699 195.23C77.8506 195.165 77.9935 195.091 78.1317 195.009H78.1404C79.8537 194.018 79.9876 192.461 78.5514 191.388C78.4258 191.293 78.2873 191.202 78.1404 191.115H78.136C77.262 190.609 76.8034 189.96 76.7471 189.302V189.289C76.6908 188.541 77.1538 187.788 78.136 187.221L102.382 173.225C104.242 172.148 107.262 172.148 109.127 173.225C110.057 173.761 111.277 174.03 112.498 174.03C113.54 174.03 114.583 173.835 115.444 173.441C115.591 173.377 115.734 173.303 115.872 173.225L115.877 173.221C117.59 172.23 117.724 170.672 116.288 169.599C116.162 169.504 116.024 169.413 115.877 169.327C114.947 168.786 114.479 168.085 114.479 167.38C114.479 166.675 114.947 165.969 115.877 165.433L120.125 162.98C121.986 161.903 125.006 161.903 126.87 162.98L186.598 197.462C187.529 197.999 187.996 198.709 187.996 199.409V199.409Z" stroke="black" stroke-width="0.5" stroke-miterlimit="10" stroke-linecap="round" stroke-linejoin="round"/>
<path d="M188.005 199.41V203.818C188.005 204.524 187.538 205.225 186.607 205.765L182.359 208.218C180.498 209.292 177.478 209.292 175.614 208.218C174.683 207.682 173.463 207.41 172.243 207.41C171.201 207.41 170.162 207.608 169.301 207.998C169.171 207.898 169.024 207.799 168.864 207.708C167.004 206.635 167.004 204.891 168.864 203.814L168.873 203.81C169.803 203.273 171.023 203.005 172.243 203.005C173.463 203.005 174.683 203.273 175.614 203.81C177.478 204.887 180.498 204.887 182.359 203.81L186.162 201.612L186.607 201.357C187.538 200.82 188.005 200.115 188.005 199.41Z" fill="white" stroke="black" stroke-width="0.5" stroke-miterlimit="10" stroke-linecap="round" stroke-linejoin="round"/>
<path d="M187.992 204.009V203.818" stroke="black" stroke-width="0.5" stroke-miterlimit="10" stroke-linecap="round" stroke-linejoin="round"/>
<path d="M170.239 209.789V214.176C170.191 214.842 169.728 215.5 168.845 216.006L144.604 230.007C142.739 231.08 139.719 231.08 137.859 230.007C136.929 229.47 135.709 229.198 134.489 229.198C133.45 229.198 132.407 229.397 131.546 229.786C131.413 229.687 131.27 229.587 131.109 229.496C129.245 228.419 129.245 226.68 131.109 225.602L131.114 225.598C132.044 225.062 133.269 224.793 134.489 224.793C135.709 224.793 136.929 225.062 137.859 225.598C139.719 226.675 142.739 226.675 144.604 225.598L168.435 211.839L168.845 211.602C169.719 211.1 170.182 210.446 170.239 209.789Z" fill="white" stroke="black" stroke-width="0.5" stroke-miterlimit="10" stroke-linecap="round" stroke-linejoin="round"/>
<path d="M170.25 209.789V209.546" stroke="black" stroke-width="0.5" stroke-miterlimit="10" stroke-linecap="round" stroke-linejoin="round"/>
<path d="M132.512 231.443V235.848C132.512 236.553 132.049 237.258 131.118 237.795L126.87 240.248C125.005 241.325 121.989 241.325 120.125 240.248L60.3964 205.765C59.5357 205.268 59.0771 204.632 59.0078 203.987V199.578C59.0771 200.227 59.5357 200.863 60.3964 201.356L60.8424 201.616L120.125 235.844C121.989 236.921 125.005 236.921 126.87 235.844L130.708 233.629L131.118 233.39C132.049 232.854 132.512 232.149 132.512 231.443Z" fill="white" stroke="black" stroke-width="0.5" stroke-miterlimit="10" stroke-linecap="round" stroke-linejoin="round"/>
<path d="M59.0078 199.568V199.568" stroke="black" stroke-width="0.5" stroke-miterlimit="10" stroke-linecap="round" stroke-linejoin="round"/>
<path d="M76.75 189.288V189.288" stroke="black" stroke-width="0.5" stroke-miterlimit="10" stroke-linecap="round" stroke-linejoin="round"/>
<path d="M157.781 210.922C157.781 210.939 157.793 211.008 157.93 211.087L157.781 210.922ZM157.781 210.922C157.781 210.905 157.793 210.836 157.93 210.757M157.781 210.922L157.93 210.757M157.93 210.757C158.066 210.679 158.259 210.632 158.466 210.632C158.673 210.632 158.866 210.679 159.002 210.757C159.139 210.836 159.151 210.905 159.151 210.922M157.93 210.757L159.151 210.922M159.151 210.922C159.151 210.939 159.139 211.008 159.002 211.087L159.151 210.922ZM158.466 211.212C158.259 211.212 158.066 211.165 157.93 211.087L159.002 211.087C158.866 211.165 158.673 211.212 158.466 211.212Z" fill="black" stroke="black" stroke-width="0.5"/>
<path d="M154.563 212.698L154.563 212.698C154.699 212.62 154.892 212.574 155.099 212.574C155.306 212.574 155.499 212.62 155.635 212.698L155.635 212.698C155.772 212.777 155.784 212.846 155.784 212.863C155.784 212.881 155.772 212.949 155.635 213.028C155.499 213.107 155.306 213.153 155.099 213.153C154.892 213.153 154.699 213.107 154.563 213.028L154.563 213.028C154.426 212.949 154.414 212.88 154.414 212.863C154.414 212.846 154.426 212.777 154.563 212.698Z" fill="black" stroke="black" stroke-width="0.5"/>
<path d="M151.204 214.97C151.066 214.891 151.055 214.822 151.055 214.805C151.055 214.788 151.066 214.719 151.204 214.64C151.339 214.561 151.532 214.515 151.739 214.515C151.946 214.515 152.14 214.561 152.276 214.64L152.4 214.423L152.275 214.64C152.412 214.719 152.424 214.787 152.424 214.805C152.424 214.822 152.412 214.891 152.275 214.97L152.4 215.186L152.276 214.97C152.14 215.048 151.946 215.094 151.739 215.094C151.532 215.094 151.339 215.048 151.204 214.97Z" fill="black" stroke="black" stroke-width="0.5"/>
<path d="M147.844 216.581L147.844 216.581C147.98 216.502 148.173 216.456 148.38 216.456C148.587 216.456 148.78 216.502 148.916 216.581C149.053 216.66 149.065 216.728 149.065 216.746C149.065 216.763 149.053 216.832 148.916 216.911C148.78 216.989 148.587 217.035 148.38 217.035C148.173 217.035 147.98 216.989 147.844 216.911C147.707 216.832 147.695 216.763 147.695 216.746C147.695 216.728 147.707 216.66 147.844 216.581Z" fill="black" stroke="black" stroke-width="0.5"/>
<path d="M144.477 218.853C144.34 218.773 144.328 218.705 144.328 218.688C144.328 218.67 144.34 218.602 144.477 218.523C144.613 218.444 144.806 218.398 145.013 218.398C145.22 218.398 145.413 218.444 145.549 218.523C145.686 218.602 145.697 218.67 145.697 218.688C145.697 218.705 145.686 218.774 145.549 218.853C145.413 218.931 145.22 218.977 145.013 218.977C144.806 218.977 144.613 218.931 144.477 218.853Z" fill="black" stroke="black" stroke-width="0.5"/>
<path d="M85.0635 210.149L82.2109 208.502" stroke="black" stroke-width="0.5" stroke-miterlimit="10" stroke-linecap="round" stroke-linejoin="round"/>
<path d="M99.5804 218.53L88.3516 212.047" stroke="black" stroke-width="0.5" stroke-miterlimit="10" stroke-linecap="round" stroke-linejoin="round"/>
<path d="M108.899 223.911L102.469 220.198" stroke="black" stroke-width="0.5" stroke-miterlimit="10" stroke-linecap="round" stroke-linejoin="round"/>
<path d="M114.805 223.314V223.215" stroke="black" stroke-width="0.5" stroke-miterlimit="10" stroke-linecap="round" stroke-linejoin="round"/>
<path d="M95.5547 205.169V205.169" stroke="black" stroke-width="0.5" stroke-miterlimit="10" stroke-linecap="round" stroke-linejoin="round"/>
<path d="M110.82 174.883V174.883" stroke="black" stroke-width="0.5" stroke-miterlimit="10" stroke-linecap="round" stroke-linejoin="round"/>
<path d="M169.11 195.2V199.638C169.11 199.896 168.929 200.143 168.614 200.327L158.851 205.963C158.19 206.348 157.119 206.348 156.461 205.963L154.629 204.908C153.971 204.527 152.901 204.527 152.238 204.908L136.506 213.993L134.296 215.267C133.811 215.548 133.684 215.96 133.919 216.31L126.362 220.675C126.047 220.856 125.616 220.96 125.169 220.96H117.486C117.086 220.96 116.7 220.879 116.396 220.733L117.701 219.979C118.36 219.597 118.36 218.981 117.701 218.6L115.392 217.269L117.701 215.933C118.36 215.552 118.36 214.936 117.701 214.554L109.953 210.082C109.294 209.7 108.224 209.7 107.562 210.082L106.438 210.728C105.776 211.113 104.706 211.113 104.048 210.728L96.1062 206.144C96.0603 206.109 96.014 206.078 95.96 206.047L94.686 205.312C94.4548 205.139 94.3396 204.931 94.3396 204.723V205.112L88.2148 201.575C87.553 201.193 86.4828 201.193 85.8246 201.575L82.206 203.665C81.5479 204.046 80.4777 204.046 79.8158 203.665L77.6138 202.391C77.2944 202.21 77.1172 201.96 77.1172 201.702V197.263C77.1172 197.005 77.2944 196.759 77.6138 196.574L87.3758 190.939C88.038 190.557 89.1082 190.557 89.7663 190.939L91.595 191.993C92.2568 192.374 93.327 192.374 93.9855 191.993L111.927 181.635C112.586 181.253 112.586 180.634 111.927 180.253L110.099 179.198C109.93 179.098 109.803 178.986 109.722 178.863L111.927 177.589C112.412 177.308 112.54 176.896 112.305 176.546L119.865 172.181C120.181 172 120.612 171.896 121.058 171.896H128.742C129.142 171.896 129.527 171.976 129.831 172.123L128.526 172.877C127.868 173.258 127.868 173.874 128.526 174.255L130.836 175.587L128.526 176.923C127.868 177.304 127.868 177.92 128.526 178.301L136.271 182.774C136.933 183.155 138.003 183.155 138.662 182.774L139.789 182.123C140.448 181.742 141.518 181.742 142.18 182.123L150.106 186.7L151.392 187.443C151.453 187.478 151.507 187.517 151.557 187.555C152.046 187.936 151.988 188.475 151.392 188.821L150.263 189.472C149.605 189.853 149.605 190.473 150.263 190.854L158.013 195.327C158.675 195.708 159.745 195.708 160.403 195.327L164.021 193.236C164.68 192.856 165.75 192.856 166.412 193.236L168.614 194.511C168.933 194.695 169.11 194.942 169.11 195.2Z" fill="#1B58F1" stroke="black" stroke-width="0.5" stroke-miterlimit="10" stroke-linecap="round" stroke-linejoin="round"/>
<path d="M169.11 191.154V195.592C169.11 195.851 168.929 196.097 168.614 196.282L158.851 201.917C158.19 202.298 157.119 202.298 156.461 201.917L154.629 200.862C153.971 200.481 152.901 200.481 152.238 200.862L134.296 211.221C133.638 211.602 133.638 212.218 134.296 212.599L136.128 213.658C136.298 213.758 136.425 213.869 136.506 213.993C136.583 214.104 136.621 214.224 136.621 214.339V214.347C136.621 214.597 136.456 214.847 136.128 215.036L133.919 216.31L126.362 220.675C126.047 220.856 125.616 220.96 125.169 220.96H117.486C117.086 220.96 116.7 220.879 116.396 220.733C116.358 220.714 116.324 220.695 116.289 220.675L114.083 219.401C113.752 219.212 113.59 218.962 113.59 218.712C113.59 218.462 113.752 218.211 114.083 218.023L115.392 217.268L117.701 215.933C118.36 215.552 118.36 214.936 117.701 214.554L109.953 210.082C109.294 209.7 108.224 209.7 107.562 210.082L106.438 210.728C105.776 211.113 104.706 211.113 104.048 210.728L96.1062 206.144L94.8362 205.412C94.7822 205.381 94.7323 205.347 94.686 205.312C94.4548 205.139 94.3396 204.931 94.3396 204.723V204.712C94.3432 204.465 94.5088 204.219 94.8362 204.03L95.96 203.384C96.6222 203.002 96.6222 202.383 95.96 202.002L88.2148 197.529C87.553 197.148 86.4828 197.148 85.8246 197.529L82.206 199.619C81.5479 200 80.4777 200 79.8158 199.619L77.6138 198.345C77.2944 198.164 77.1172 197.914 77.1172 197.656V193.217C77.1172 192.959 77.2944 192.713 77.6138 192.528L87.3758 186.893C88.038 186.512 89.1082 186.512 89.7663 186.893L91.595 187.947C92.2568 188.329 93.327 188.329 93.9855 187.947L109.606 178.928L109.722 178.863L111.927 177.589C112.412 177.308 112.54 176.896 112.305 176.546C112.228 176.422 112.101 176.307 111.927 176.207L110.099 175.152C109.772 174.96 109.606 174.713 109.606 174.463C109.606 174.213 109.772 173.966 110.099 173.774L119.865 168.135C120.181 167.954 120.612 167.85 121.058 167.85H128.742C129.192 167.85 129.619 167.954 129.938 168.135L132.141 169.409C132.472 169.601 132.637 169.844 132.637 170.094V170.098C132.637 170.348 132.472 170.594 132.141 170.787L129.831 172.122L128.526 172.877C127.868 173.258 127.868 173.874 128.526 174.255L130.836 175.587L136.271 178.728C136.933 179.109 138.003 179.109 138.662 178.728L139.789 178.078C140.448 177.697 141.518 177.697 142.18 178.078L151.392 183.398C151.711 183.582 151.873 183.821 151.884 184.063V184.086C151.884 184.337 151.722 184.583 151.392 184.776L150.263 185.426C149.663 185.773 149.609 186.319 150.106 186.7C150.152 186.739 150.206 186.774 150.263 186.808L151.557 187.555L151.884 187.744L158.013 191.281C158.675 191.662 159.745 191.662 160.403 191.281L164.021 189.191C164.68 188.81 165.75 188.81 166.412 189.191L168.614 190.465C168.933 190.65 169.11 190.896 169.11 191.154Z" fill="#C5D5FF" stroke="black" stroke-width="0.5" stroke-miterlimit="10" stroke-linecap="round" stroke-linejoin="round"/>
<path d="M136.617 214.347V218.408C136.609 218.654 136.443 218.893 136.124 219.082L126.358 224.721C126.043 224.906 125.612 225.006 125.165 225.006H117.482C117.031 225.006 116.604 224.906 116.284 224.721L114.079 223.447C113.747 223.254 113.586 223.008 113.586 222.758V218.712C113.586 218.962 113.747 219.212 114.079 219.401L116.284 220.675C116.319 220.695 116.354 220.714 116.392 220.733C116.696 220.879 117.081 220.96 117.482 220.96H125.165C125.612 220.96 126.043 220.856 126.358 220.675L133.915 216.31L136.124 215.036C136.451 214.847 136.617 214.597 136.617 214.347Z" fill="#1B58F1" stroke="black" stroke-width="0.5" stroke-miterlimit="10" stroke-linecap="round" stroke-linejoin="round"/>
<path d="M136.625 214.338V214.338" stroke="black" stroke-width="0.5" stroke-miterlimit="10" stroke-linecap="round" stroke-linejoin="round"/>
<path d="M113.586 222.856V222.758" stroke="black" stroke-width="0.5" stroke-miterlimit="10" stroke-linecap="round" stroke-linejoin="round"/>
<path d="M117.706 215.933L115.396 217.269L109.957 214.128C109.299 213.747 108.229 213.747 107.567 214.128L106.443 214.778C105.78 215.159 104.71 215.159 104.052 214.778L94.8407 209.458C94.517 209.27 94.3517 209.031 94.3438 208.781V204.724C94.3438 204.931 94.4593 205.139 94.6902 205.312C94.7368 205.347 94.7864 205.381 94.8407 205.412L96.1108 206.144L104.052 210.728C104.71 211.113 105.78 211.113 106.443 210.728L107.567 210.082C108.229 209.701 109.299 209.701 109.957 210.082L117.706 214.555C118.364 214.936 118.364 215.552 117.706 215.933Z" fill="#1B58F1" stroke="black" stroke-width="0.5" stroke-miterlimit="10" stroke-linecap="round" stroke-linejoin="round"/>
<path d="M94.3438 204.711V204.711" stroke="black" stroke-width="0.5" stroke-miterlimit="10" stroke-linecap="round" stroke-linejoin="round"/>
<path d="M111.931 177.589L109.725 178.863L109.609 178.928V174.463C109.609 174.713 109.775 174.96 110.102 175.152L111.931 176.207C112.104 176.307 112.231 176.422 112.308 176.546C112.543 176.896 112.416 177.308 111.931 177.589Z" fill="#1B58F1" stroke="black" stroke-width="0.5" stroke-miterlimit="10" stroke-linecap="round" stroke-linejoin="round"/>
<path d="M109.609 174.424V174.424" stroke="black" stroke-width="0.5" stroke-miterlimit="10" stroke-linecap="round" stroke-linejoin="round"/>
<path d="M132.636 170.098V174.143C132.636 174.393 132.471 174.644 132.14 174.832L130.835 175.587L128.525 174.255C127.867 173.874 127.867 173.258 128.525 172.877L129.83 172.122L132.14 170.786C132.471 170.594 132.636 170.348 132.636 170.098Z" fill="#1B58F1" stroke="black" stroke-width="0.5" stroke-miterlimit="10" stroke-linecap="round" stroke-linejoin="round"/>
<path d="M132.625 174.425V174.144" stroke="black" stroke-width="0.5" stroke-miterlimit="10" stroke-linecap="round" stroke-linejoin="round"/>
<path d="M132.625 170.094V170.094" stroke="black" stroke-width="0.5" stroke-miterlimit="10" stroke-linecap="round" stroke-linejoin="round"/>
<path d="M151.888 184.087V187.744L151.561 187.555C151.511 187.517 151.457 187.478 151.396 187.444L150.11 186.701C149.613 186.32 149.667 185.773 150.268 185.427L151.396 184.776C151.726 184.584 151.888 184.337 151.888 184.087Z" fill="#1B58F1" stroke="black" stroke-width="0.5" stroke-miterlimit="10" stroke-linecap="round" stroke-linejoin="round"/>
<path d="M151.883 184.064V184.063" stroke="black" stroke-width="0.5" stroke-miterlimit="10" stroke-linecap="round" stroke-linejoin="round"/>
<path d="M145.627 193.694V196.763C145.627 196.763 143.565 199.514 138.454 199.514C133.348 199.514 131.281 196.763 131.281 196.763V193.694C131.281 193.694 133.348 196.446 138.454 196.446C143.565 196.446 145.627 193.694 145.627 193.694Z" fill="#1B58F1" stroke="black" stroke-width="0.5" stroke-miterlimit="10"/>
<path d="M145.627 188.304V193.694C145.627 193.694 143.565 196.445 138.454 196.445C133.348 196.445 131.281 193.694 131.281 193.694V188.304C131.281 188.304 133.348 191.055 138.454 191.055C143.565 191.055 145.627 188.304 145.627 188.304Z" fill="#C5D5FF" stroke="black" stroke-width="0.5" stroke-miterlimit="10" stroke-linecap="round" stroke-linejoin="round"/>
<path d="M145.627 163.913V188.304C145.627 188.304 143.565 191.055 138.454 191.055C136.742 191.055 135.377 190.746 134.312 190.337L134.421 190.303V165.984L138.454 148.248L145.627 163.913Z" fill="white" stroke="black" stroke-width="0.5" stroke-miterlimit="10" stroke-linecap="round" stroke-linejoin="round"/>
<path d="M138.454 148.248L134.421 165.984V190.304L134.312 190.337C132.196 189.523 131.281 188.304 131.281 188.304V163.913L138.454 148.248Z" fill="white" stroke="black" stroke-width="0.5" stroke-miterlimit="10" stroke-linecap="round" stroke-linejoin="round"/>
<path d="M131.289 163.912C131.289 163.912 133.352 166.663 138.46 166.663C143.568 166.663 145.632 163.912 145.632 163.912" stroke="black" stroke-width="0.5" stroke-miterlimit="10"/>
<path d="M100.594 193.694V196.763C100.594 196.763 102.656 199.514 107.767 199.514C112.873 199.514 114.939 196.763 114.939 196.763V193.694C114.939 193.694 112.873 196.446 107.767 196.446C102.656 196.446 100.594 193.694 100.594 193.694Z" fill="#1B58F1" stroke="black" stroke-width="0.5" stroke-miterlimit="10"/>
<path d="M100.594 188.304V193.694C100.594 193.694 102.656 196.445 107.767 196.445C112.873 196.445 114.939 193.694 114.939 193.694V188.304C114.939 188.304 112.873 191.055 107.767 191.055C102.656 191.055 100.594 188.304 100.594 188.304Z" fill="#C5D5FF" stroke="black" stroke-width="0.5" stroke-miterlimit="10" stroke-linecap="round" stroke-linejoin="round"/>
<path d="M100.594 163.913V188.304C100.594 188.304 102.656 191.055 107.767 191.055C109.478 191.055 110.843 190.746 111.908 190.337L111.8 190.303V165.984L107.767 148.248L100.594 163.913Z" fill="white" stroke="black" stroke-width="0.5" stroke-miterlimit="10" stroke-linecap="round" stroke-linejoin="round"/>
<path d="M107.766 148.248L111.799 165.984V190.304L111.907 190.337C114.024 189.523 114.938 188.304 114.938 188.304V163.913L107.766 148.248Z" fill="white" stroke="black" stroke-width="0.5" stroke-miterlimit="10" stroke-linecap="round" stroke-linejoin="round"/>
<path d="M114.936 163.912C114.936 163.912 112.874 166.663 107.765 166.663C102.657 166.663 100.594 163.912 100.594 163.912" stroke="black" stroke-width="0.5" stroke-miterlimit="10"/>
<path d="M138.457 146.874V194.44C138.457 196.027 137.72 197.617 136.247 199.019V199.022C135.621 199.621 134.86 200.186 133.964 200.704C127.97 204.163 118.253 204.163 112.262 200.704C111.366 200.186 110.604 199.621 109.978 199.022V199.019C108.502 197.617 107.766 196.027 107.766 194.44V146.874C107.766 148.777 108.763 150.557 110.93 152.251C111.013 152.322 111.099 152.386 111.185 152.45C111.513 152.696 111.879 152.917 112.262 153.138C118.253 156.6 127.97 156.6 133.964 153.138C134.347 152.917 134.706 152.687 135.041 152.45C137.318 150.83 138.457 148.851 138.457 146.874Z" fill="#1B58F1" stroke="black" stroke-width="0.5" stroke-miterlimit="10"/>
<path d="M138.457 86.043V128.779C138.457 130.366 137.72 131.956 136.247 133.359V133.361C135.621 133.96 134.86 134.525 133.964 135.043C127.97 138.502 118.253 138.502 112.262 135.043C111.366 134.525 110.604 133.96 109.978 133.361V133.359C108.502 131.956 107.766 130.366 107.766 128.779V86.043C107.766 87.9459 108.763 89.7259 110.93 91.4203C111.013 91.4905 111.099 91.5552 111.185 91.6194C111.513 91.8649 111.879 92.0861 112.262 92.3069C118.253 95.769 127.97 95.769 133.964 92.3069C134.347 92.0861 134.706 91.8556 135.041 91.6194C137.318 89.999 138.457 88.0195 138.457 86.043Z" fill="white" stroke="black" stroke-width="0.5" stroke-miterlimit="10" stroke-linecap="round" stroke-linejoin="round"/>
<path d="M138.457 128.779V147.653C138.457 149.24 137.72 150.83 136.247 152.232V152.235C135.621 152.834 134.86 153.398 133.964 153.917C127.97 157.376 118.253 157.376 112.262 153.917C111.366 153.398 110.604 152.834 109.978 152.235V152.232C108.502 150.83 107.766 149.24 107.766 147.653V128.779C107.766 130.682 108.763 132.462 110.93 134.157C111.013 134.227 111.099 134.291 111.185 134.356C111.513 134.601 111.879 134.822 112.262 135.044C118.253 138.505 127.97 138.505 133.964 135.044C134.347 134.822 134.706 134.592 135.041 134.356C137.318 132.735 138.457 130.756 138.457 128.779Z" fill="#C5D5FF" stroke="black" stroke-width="0.5" stroke-miterlimit="10" stroke-linecap="round" stroke-linejoin="round"/>
<path d="M138.457 96.5986C138.457 98.1854 137.72 99.7752 136.247 101.178V101.181C135.621 101.779 134.86 102.344 133.964 102.863C127.97 106.322 118.253 106.322 112.262 102.863C111.366 102.344 110.604 101.779 109.978 101.181V101.178C108.502 99.7752 107.766 98.1854 107.766 96.5986" stroke="black" stroke-width="0.5" stroke-miterlimit="10" stroke-linecap="round" stroke-linejoin="round"/>
<path d="M138.457 119.921C138.457 121.508 137.72 123.098 136.247 124.5V124.503C135.621 125.102 134.86 125.666 133.964 126.185C127.97 129.644 118.253 129.644 112.262 126.185C111.366 125.666 110.604 125.102 109.978 124.503V124.5C108.502 123.098 107.766 121.508 107.766 119.921" stroke="black" stroke-width="0.5" stroke-miterlimit="10" stroke-linecap="round" stroke-linejoin="round"/>
<path d="M138.457 131.476C138.457 133.062 137.72 134.652 136.247 136.055V136.058C135.621 136.656 134.86 137.221 133.964 137.74C127.97 141.198 118.253 141.198 112.262 137.74C111.366 137.221 110.604 136.656 109.978 136.058V136.055C108.502 134.652 107.766 133.062 107.766 131.476" stroke="black" stroke-width="0.5" stroke-miterlimit="10" stroke-linecap="round" stroke-linejoin="round"/>
<path d="M138.457 134.171C138.457 135.758 137.72 137.348 136.247 138.751V138.754C135.621 139.352 134.86 139.917 133.964 140.436C127.97 143.894 118.253 143.894 112.262 140.436C111.366 139.917 110.604 139.352 109.978 138.754V138.751C108.502 137.348 107.766 135.758 107.766 134.171" stroke="black" stroke-width="0.5" stroke-miterlimit="10" stroke-linecap="round" stroke-linejoin="round"/>
<path d="M138.457 136.868C138.457 138.454 137.72 140.044 136.247 141.447V141.45C135.621 142.048 134.86 142.613 133.964 143.132C127.97 146.591 118.253 146.591 112.262 143.132C111.366 142.613 110.604 142.048 109.978 141.45V141.447C108.502 140.044 107.766 138.454 107.766 136.868" stroke="black" stroke-width="0.5" stroke-miterlimit="10" stroke-linecap="round" stroke-linejoin="round"/>
<path d="M138.457 139.564C138.457 141.151 137.72 142.741 136.247 144.143V144.147C135.621 144.745 134.86 145.31 133.964 145.828C127.97 149.287 118.253 149.287 112.262 145.828C111.366 145.31 110.604 144.745 109.978 144.147V144.143C108.502 142.741 107.766 141.151 107.766 139.564" stroke="black" stroke-width="0.5" stroke-miterlimit="10" stroke-linecap="round" stroke-linejoin="round"/>
<path d="M138.457 142.261C138.457 143.848 137.72 145.437 136.247 146.84V146.843C135.621 147.442 134.86 148.006 133.964 148.525C127.97 151.983 118.253 151.983 112.262 148.525C111.366 148.006 110.604 147.442 109.978 146.843V146.84C108.502 145.437 107.766 143.848 107.766 142.261" stroke="black" stroke-width="0.5" stroke-miterlimit="10" stroke-linecap="round" stroke-linejoin="round"/>
<path d="M138.457 144.957C138.457 146.544 137.72 148.133 136.247 149.536V149.539C135.621 150.138 134.86 150.702 133.964 151.221C127.97 154.68 118.253 154.68 112.262 151.221C111.366 150.702 110.604 150.138 109.978 149.539V149.536C108.502 148.133 107.766 146.544 107.766 144.957" stroke="black" stroke-width="0.5" stroke-miterlimit="10" stroke-linecap="round" stroke-linejoin="round"/>
<mask id="path-62-inside-2_1953_26895" fill="white">
<path d="M138.457 86.0422C138.457 88.0187 137.318 89.9982 135.041 91.6187C134.706 91.8549 134.347 92.0853 133.964 92.3062C127.97 95.7682 118.253 95.7682 112.262 92.3062C111.879 92.0853 111.513 91.8642 111.185 91.6187C111.099 91.5544 111.013 91.4898 110.93 91.4195C108.763 89.7251 107.766 87.9451 107.766 86.0422C107.766 83.7739 109.266 81.506 112.262 79.7779C118.253 76.3162 127.97 76.3162 133.964 79.7779C136.959 81.506 138.457 83.7739 138.457 86.0422Z"/>
</mask>
<path d="M138.457 86.0422C138.457 88.0187 137.318 89.9982 135.041 91.6187C134.706 91.8549 134.347 92.0853 133.964 92.3062C127.97 95.7682 118.253 95.7682 112.262 92.3062C111.879 92.0853 111.513 91.8642 111.185 91.6187C111.099 91.5544 111.013 91.4898 110.93 91.4195C108.763 89.7251 107.766 87.9451 107.766 86.0422C107.766 83.7739 109.266 81.506 112.262 79.7779C118.253 76.3162 127.97 76.3162 133.964 79.7779C136.959 81.506 138.457 83.7739 138.457 86.0422Z" fill="white"/>
<path d="M135.041 91.6187L135.329 92.0271L135.331 92.0261L135.041 91.6187ZM133.964 92.3062L133.714 91.8729L133.714 91.8732L133.964 92.3062ZM112.262 92.3062L112.512 91.8733L112.511 91.8729L112.262 92.3062ZM111.185 91.6187L110.885 92.0191L110.885 92.0192L111.185 91.6187ZM110.93 91.4195L111.253 91.0381L111.246 91.0317L111.238 91.0257L110.93 91.4195ZM112.262 79.7779L112.512 80.211L112.512 80.2109L112.262 79.7779ZM133.964 79.7779L133.714 80.2109L133.714 80.211L133.964 79.7779ZM137.957 86.0422C137.957 87.8104 136.939 89.654 134.751 91.2113L135.331 92.0261C137.697 90.3425 138.957 88.227 138.957 86.0422H137.957ZM134.752 91.2103C134.43 91.4376 134.084 91.6598 133.714 91.8729L134.213 92.7394C134.61 92.5109 134.982 92.2721 135.329 92.0271L134.752 91.2103ZM133.714 91.8732C130.811 93.55 126.975 94.4027 123.112 94.4027C119.249 94.4027 115.414 93.55 112.512 91.8733L112.012 92.7391C115.101 94.5244 119.12 95.4027 123.112 95.4027C127.104 95.4027 131.123 94.5244 134.214 92.7392L133.714 91.8732ZM112.511 91.8729C112.132 91.6542 111.788 91.4451 111.484 91.2182L110.885 92.0192C111.239 92.2833 111.625 92.5165 112.012 92.7394L112.511 91.8729ZM111.484 91.2183C111.397 91.1533 111.323 91.0972 111.253 91.0381L110.607 91.801C110.703 91.8824 110.8 91.9555 110.885 92.0191L111.484 91.2183ZM111.238 91.0257C109.147 89.3901 108.266 87.7412 108.266 86.0422H107.266C107.266 88.1491 108.38 90.0601 110.622 91.8134L111.238 91.0257ZM108.266 86.0422C108.266 84.0157 109.607 81.8866 112.512 80.211L112.012 79.3448C108.926 81.1254 107.266 83.5322 107.266 86.0422H108.266ZM112.512 80.2109C115.414 78.5343 119.249 77.6816 123.112 77.6816C126.975 77.6816 130.811 78.5343 133.714 80.2109L134.214 79.345C131.123 77.5599 127.104 76.6816 123.112 76.6816C119.12 76.6816 115.101 77.5599 112.012 79.345L112.512 80.2109ZM133.714 80.211C136.618 81.8863 137.957 84.0154 137.957 86.0422H138.957C138.957 83.5325 137.3 81.1256 134.214 79.3449L133.714 80.211Z" fill="black" mask="url(#path-62-inside-2_1953_26895)"/>
<path d="M138.457 86.0422C138.457 88.0187 137.318 89.9982 135.041 91.6187C134.706 91.8549 134.347 92.0853 133.964 92.3062C127.97 95.7682 118.253 95.7682 112.262 92.3062C111.879 92.0853 111.513 91.8642 111.185 91.6187C111.099 91.5544 111.013 91.4898 110.93 91.4195C108.763 89.7251 107.766 87.9451 107.766 86.0422C107.766 83.7739 109.266 81.506 112.262 79.7779C118.253 76.3162 127.97 76.3162 133.964 79.7779C136.959 81.506 138.457 83.7739 138.457 86.0422V86.0422Z" stroke="black" stroke-width="0.5" stroke-miterlimit="10" stroke-linecap="round" stroke-linejoin="round"/>
<path d="M135.477 75.8042V84.7874C135.477 86.0655 134.884 87.3455 133.698 88.4753V88.478C133.193 88.96 132.58 89.4146 131.859 89.8323C127.031 92.6182 119.205 92.6182 114.379 89.8323C113.658 89.4146 113.044 88.96 112.54 88.478V88.4753C111.351 87.3455 110.758 86.0655 110.758 84.7874V75.8042C110.758 77.337 111.561 78.7706 113.307 80.1349C113.373 80.1919 113.442 80.2439 113.512 80.2955C113.776 80.4933 114.07 80.6715 114.379 80.8494C119.205 83.638 127.031 83.638 131.859 80.8494C132.167 80.6715 132.457 80.4863 132.726 80.2955C134.56 78.9905 135.477 77.396 135.477 75.8042Z" fill="#C5D5FF" stroke="black" stroke-width="0.5" stroke-miterlimit="10" stroke-linecap="round" stroke-linejoin="round"/>
<path d="M114.383 80.8498C114.074 80.6719 113.78 80.4937 113.516 80.2959C113.785 80.4864 114.074 80.6719 114.383 80.8498Z" fill="white" stroke="black" stroke-width="0.5" stroke-miterlimit="10" stroke-linecap="round" stroke-linejoin="round"/>
<path d="M130.555 81.5005V85.1977L131.776 86.4195L131.852 89.8316" stroke="black" stroke-width="0.5" stroke-miterlimit="10" stroke-linecap="round" stroke-linejoin="round"/>
<path d="M114.469 80.9092V84.4728L115.691 85.6946V90.497" stroke="black" stroke-width="0.5" stroke-miterlimit="10" stroke-linecap="round" stroke-linejoin="round"/>
<path d="M133.577 83.3899L133.577 83.3898C133.616 83.3677 133.638 83.3653 133.644 83.3652C133.644 83.3652 133.645 83.3652 133.645 83.3652C133.652 83.3723 133.686 83.4148 133.686 83.5387C133.686 83.6697 133.645 83.8227 133.573 83.9608C133.5 84.101 133.407 84.2003 133.327 84.2465C133.289 84.2686 133.267 84.2709 133.261 84.271C133.261 84.271 133.26 84.271 133.26 84.271C133.253 84.264 133.219 84.2214 133.219 84.0973C133.219 83.9665 133.26 83.8135 133.332 83.6754C133.405 83.5351 133.497 83.4359 133.577 83.3899Z" fill="black" stroke="black" stroke-width="0.5"/>
<path d="M113.023 85.8341L113.023 85.8343C113.103 85.8802 113.195 85.9795 113.268 86.1197C113.34 86.2578 113.381 86.4108 113.381 86.5416C113.381 86.6657 113.347 86.7083 113.34 86.7153C113.34 86.7153 113.34 86.7153 113.339 86.7153C113.333 86.7153 113.311 86.7129 113.273 86.6908C113.193 86.6446 113.101 86.5453 113.027 86.4051C112.955 86.267 112.914 86.114 112.914 85.983C112.914 85.8592 112.949 85.8167 112.955 85.8096C112.955 85.8096 112.956 85.8096 112.956 85.8096C112.962 85.8097 112.984 85.812 113.023 85.8341Z" fill="black" stroke="black" stroke-width="0.5"/>
<mask id="path-71-inside-3_1953_26895" fill="white">
<path d="M135.477 75.804C135.477 77.3958 134.56 78.9903 132.726 80.2953C132.457 80.4862 132.167 80.6714 131.859 80.8492C127.031 83.6378 119.205 83.6378 114.379 80.8492C114.07 80.6714 113.776 80.4932 113.512 80.2953C113.442 80.2437 113.373 80.1917 113.307 80.1348C111.561 78.7705 110.758 77.3369 110.758 75.804C110.758 73.9774 111.967 72.1504 114.379 70.7592C119.205 67.9703 127.031 67.9703 131.859 70.7592C134.271 72.1504 135.477 73.9774 135.477 75.804Z"/>
</mask>
<path d="M135.477 75.804C135.477 77.3958 134.56 78.9903 132.726 80.2953C132.457 80.4862 132.167 80.6714 131.859 80.8492C127.031 83.6378 119.205 83.6378 114.379 80.8492C114.07 80.6714 113.776 80.4932 113.512 80.2953C113.442 80.2437 113.373 80.1917 113.307 80.1348C111.561 78.7705 110.758 77.3369 110.758 75.804C110.758 73.9774 111.967 72.1504 114.379 70.7592C119.205 67.9703 127.031 67.9703 131.859 70.7592C134.271 72.1504 135.477 73.9774 135.477 75.804Z" fill="white"/>
<path d="M132.726 80.2953L133.015 80.7032L133.016 80.7027L132.726 80.2953ZM131.859 80.8492L131.609 80.416L131.609 80.4163L131.859 80.8492ZM114.379 80.8492L114.63 80.4163L114.629 80.4159L114.379 80.8492ZM113.512 80.2953L113.811 79.895L113.811 79.8944L113.512 80.2953ZM113.307 80.1348L113.631 79.7547L113.623 79.7476L113.614 79.7408L113.307 80.1348ZM114.379 70.7592L114.629 71.1923L114.63 71.1921L114.379 70.7592ZM131.859 70.7592L131.608 71.1921L131.609 71.1923L131.859 70.7592ZM134.977 75.804C134.977 77.1876 134.182 78.6461 132.436 79.8879L133.016 80.7027C134.939 79.3345 135.977 77.6041 135.977 75.804H134.977ZM132.437 79.8875C132.181 80.0688 131.905 80.2456 131.609 80.416L132.108 81.2825C132.43 81.0972 132.733 80.9036 133.015 80.7032L132.437 79.8875ZM131.609 80.4163C129.289 81.7563 126.217 82.4407 123.118 82.4407C120.02 82.4407 116.948 81.7563 114.63 80.4163L114.129 81.2821C116.636 82.7307 119.89 83.4407 123.118 83.4407C126.346 83.4407 129.601 82.7307 132.109 81.2822L131.609 80.4163ZM114.629 80.4159C114.324 80.2403 114.051 80.0742 113.811 79.895L113.212 80.6957C113.502 80.9122 113.817 81.1025 114.13 81.2826L114.629 80.4159ZM113.811 79.8944C113.74 79.8421 113.684 79.7994 113.631 79.7547L112.982 80.5148C113.063 80.5841 113.145 80.6453 113.213 80.6962L113.811 79.8944ZM113.614 79.7408C111.945 78.4354 111.258 77.1329 111.258 75.804H110.258C110.258 77.5408 111.178 79.1055 112.999 80.5287L113.614 79.7408ZM111.258 75.804C111.258 74.2192 112.308 72.5311 114.629 71.1923L114.13 70.326C111.626 71.7698 110.258 73.7356 110.258 75.804H111.258ZM114.63 71.1921C116.948 69.8519 120.02 69.1675 123.118 69.1675C126.217 69.1675 129.289 69.8519 131.608 71.1921L132.109 70.3262C129.601 68.8775 126.346 68.1675 123.118 68.1675C119.89 68.1675 116.636 68.8775 114.129 70.3263L114.63 71.1921ZM131.609 71.1923C133.93 72.5308 134.977 74.2188 134.977 75.804H135.977C135.977 73.736 134.612 71.7701 132.108 70.326L131.609 71.1923Z" fill="black" mask="url(#path-71-inside-3_1953_26895)"/>
<path d="M135.477 75.804C135.477 77.3958 134.56 78.9903 132.726 80.2953C132.457 80.4862 132.167 80.6714 131.859 80.8492C127.031 83.6378 119.205 83.6378 114.379 80.8492C114.07 80.6714 113.776 80.4932 113.512 80.2953C113.442 80.2437 113.373 80.1917 113.307 80.1348C111.561 78.7705 110.758 77.3369 110.758 75.804C110.758 73.9774 111.967 72.1504 114.379 70.7592C119.205 67.9703 127.031 67.9703 131.859 70.7592C134.271 72.1504 135.477 73.9774 135.477 75.804V75.804Z" stroke="black" stroke-width="0.5" stroke-miterlimit="10" stroke-linecap="round" stroke-linejoin="round"/>
<path d="M128.083 78.5249L128.083 78.5248C128.897 78.0552 129.45 77.5075 129.758 76.9448L129.759 76.9444C130.119 76.2906 130.161 75.603 129.895 74.9464C129.627 74.2833 129.034 73.6294 128.083 73.0803L128.083 73.0803C126.725 72.2962 124.928 71.897 123.118 71.897C121.309 71.897 119.512 72.2962 118.154 73.0803L128.083 78.5249ZM128.083 78.5249C126.725 79.309 124.928 79.7082 123.118 79.7082C121.309 79.7082 119.512 79.309 118.154 78.5249L118.154 78.5248M128.083 78.5249L118.154 78.5248M118.154 78.5248C117.34 78.0556 116.79 77.5079 116.478 76.9444M118.154 78.5248L116.478 76.9444M116.478 76.9444C116.12 76.2907 116.078 75.6031 116.343 74.9464C116.612 74.2832 117.204 73.6293 118.154 73.0803L116.478 76.9444Z" fill="#C5D5FF" stroke="black" stroke-width="0.5"/>
<path d="M129.978 77.065C129.642 77.6775 129.051 78.2551 128.208 78.7414C125.398 80.3638 120.839 80.3638 118.029 78.7414C117.186 78.2551 116.598 77.6775 116.259 77.065C115.472 75.6304 116.063 74.0003 118.029 72.8638C120.839 71.2414 125.398 71.2414 128.208 72.8638C130.177 74.0003 130.767 75.6304 129.978 77.065Z" stroke="black" stroke-width="0.5" stroke-miterlimit="10" stroke-linecap="round" stroke-linejoin="round"/>
<path d="M129.984 77.0653C129.649 77.6778 129.058 78.2554 128.214 78.7417C125.404 80.3641 120.846 80.3641 118.036 78.7417C117.193 78.2554 116.604 77.6778 116.266 77.0653C116.604 76.4527 117.193 75.8755 118.036 75.3892C120.846 73.7668 125.404 73.7668 128.214 75.3892C129.058 75.8755 129.649 76.4527 129.984 77.0653Z" fill="#1B58F1" stroke="black" stroke-width="0.5" stroke-miterlimit="10" stroke-linecap="round" stroke-linejoin="round"/>
<path d="M135.477 67.1567V76.1396C135.477 77.4177 134.884 78.6981 133.698 79.8279V79.8305C133.193 80.3122 132.58 80.7672 131.859 81.1849C127.031 83.9708 119.205 83.9708 114.379 81.1849C113.658 80.7672 113.044 80.3122 112.54 79.8305V79.8279C111.351 78.6981 110.758 77.4177 110.758 76.1396V67.1567C110.758 68.6896 111.561 70.1228 113.307 71.4875C113.373 71.5444 113.442 71.5964 113.512 71.648C113.776 71.8459 114.07 72.0237 114.379 72.2016C119.205 74.9905 127.031 74.9905 131.859 72.2016C132.167 72.0237 132.457 71.8385 132.726 71.648C134.56 70.343 135.477 68.7485 135.477 67.1567Z" fill="white" stroke="black" stroke-width="0.5" stroke-miterlimit="10" stroke-linecap="round" stroke-linejoin="round"/>
<path d="M114.383 72.2015C114.074 72.0237 113.78 71.8458 113.516 71.6479C113.785 71.8381 114.074 72.0237 114.383 72.2015Z" fill="white" stroke="black" stroke-width="0.5" stroke-miterlimit="10" stroke-linecap="round" stroke-linejoin="round"/>
<path d="M130.555 72.8525V76.5498L131.776 77.7715L131.852 81.1836" stroke="black" stroke-width="0.5" stroke-miterlimit="10" stroke-linecap="round" stroke-linejoin="round"/>
<path d="M114.469 72.2607V75.8244L115.691 77.0461V81.8482" stroke="black" stroke-width="0.5" stroke-miterlimit="10" stroke-linecap="round" stroke-linejoin="round"/>
<path d="M133.577 74.7425L133.577 74.7423C133.616 74.7202 133.638 74.7179 133.644 74.7178C133.644 74.7178 133.645 74.7178 133.645 74.7178C133.652 74.7249 133.686 74.7674 133.686 74.8912C133.686 75.0222 133.645 75.1752 133.573 75.3133C133.5 75.4535 133.407 75.5528 133.327 75.599C133.289 75.6211 133.267 75.6234 133.261 75.6235C133.261 75.6235 133.26 75.6235 133.26 75.6235C133.253 75.6165 133.219 75.574 133.219 75.4498C133.219 75.319 133.26 75.166 133.332 75.0279C133.405 74.8877 133.497 74.7884 133.577 74.7425Z" fill="black" stroke="black" stroke-width="0.5"/>
<path d="M113.023 77.1867L113.023 77.1868C113.103 77.2328 113.195 77.332 113.268 77.4723C113.34 77.6103 113.381 77.7633 113.381 77.8941C113.381 78.0183 113.347 78.0608 113.34 78.0679C113.34 78.0679 113.34 78.0679 113.339 78.0679C113.333 78.0678 113.311 78.0654 113.273 78.0434C113.193 77.9972 113.101 77.8978 113.027 77.7576C112.955 77.6196 112.914 77.4666 112.914 77.3356C112.914 77.2117 112.949 77.1692 112.955 77.1621C112.955 77.1621 112.956 77.1621 112.956 77.1621C112.962 77.1622 112.984 77.1646 113.023 77.1867Z" fill="black" stroke="black" stroke-width="0.5"/>
<path d="M131.734 71.9849L131.734 71.985C129.367 73.3524 126.249 74.0432 123.118 74.0432C119.987 74.0432 116.87 73.3524 114.505 71.9851L114.504 71.9848C114.197 71.808 113.913 71.6362 113.662 71.4478L113.661 71.4475C113.591 71.3955 113.528 71.3482 113.469 71.2974L113.469 71.2972L113.461 71.2904C111.753 69.9552 111.008 68.5875 111.008 67.1567C111.008 65.4509 112.137 63.6934 114.504 62.328L114.505 62.3279C116.87 60.9608 119.987 60.27 123.118 60.27C126.249 60.27 129.367 60.9608 131.734 62.3279L131.734 62.328C134.1 63.6932 135.227 65.4507 135.227 67.1567C135.227 68.6443 134.371 70.1708 132.581 71.4442C132.319 71.6299 132.036 71.8108 131.734 71.9849Z" fill="white" stroke="black" stroke-width="0.5"/>
<path d="M135.477 67.1567C135.477 68.7485 134.56 70.3429 132.726 71.6479C132.457 71.8385 132.167 72.0237 131.859 72.2015C127.031 74.9904 119.205 74.9904 114.379 72.2015C114.07 72.0237 113.776 71.8458 113.512 71.6479C113.442 71.5963 113.373 71.5444 113.307 71.4874C111.561 70.1228 110.758 68.6895 110.758 67.1567C110.758 65.33 111.967 63.5031 114.379 62.1114C119.205 59.3229 127.031 59.3229 131.859 62.1114C134.271 63.5031 135.477 65.33 135.477 67.1567Z" stroke="black" stroke-width="0.5" stroke-miterlimit="10" stroke-linecap="round" stroke-linejoin="round"/>
<path d="M128.083 69.8771L128.083 69.877C128.897 69.4073 129.45 68.86 129.758 68.2974L129.759 68.297C130.119 67.6431 130.161 66.9555 129.895 66.2988C129.627 65.6357 129.034 64.9818 128.083 64.4329L128.083 64.4328C126.725 63.6487 124.928 63.2495 123.118 63.2495C121.309 63.2495 119.512 63.6487 118.154 64.4328L128.083 69.8771ZM128.083 69.8771C126.725 70.6612 124.928 71.0604 123.118 71.0604C121.309 71.0604 119.512 70.6612 118.154 69.8771L118.154 69.877M128.083 69.8771L118.154 69.877M118.154 69.877C117.34 69.4077 116.79 68.8604 116.478 68.2969M118.154 69.877L116.478 68.2969M116.478 68.2969C116.12 67.6432 116.078 66.9556 116.343 66.2988C116.612 65.6356 117.204 64.9817 118.154 64.4328L116.478 68.2969Z" fill="#C5D5FF" stroke="black" stroke-width="0.5"/>
<path d="M129.978 68.4175C129.642 69.0301 129.051 69.6073 128.208 70.0936C125.398 71.716 120.839 71.716 118.029 70.0936C117.186 69.6073 116.598 69.0301 116.259 68.4175C115.472 66.9829 116.063 65.3525 118.029 64.2163C120.839 62.5939 125.398 62.5939 128.208 64.2163C130.177 65.3525 130.767 66.9829 129.978 68.4175Z" stroke="black" stroke-width="0.5" stroke-miterlimit="10" stroke-linecap="round" stroke-linejoin="round"/>
<path d="M129.984 68.4173C129.649 69.0299 129.058 69.6071 128.214 70.0934C125.404 71.7158 120.846 71.7158 118.036 70.0934C117.193 69.6071 116.604 69.0299 116.266 68.4173C116.604 67.8048 117.193 67.2275 118.036 66.7412C120.846 65.1188 125.404 65.1188 128.214 66.7412C129.058 67.2275 129.649 67.8048 129.984 68.4173Z" fill="#1B58F1" stroke="black" stroke-width="0.5" stroke-miterlimit="10" stroke-linecap="round" stroke-linejoin="round"/>
<path d="M135.477 58.5088V67.4917C135.477 68.7697 134.884 70.0501 133.698 71.1799V71.1823C133.193 71.6642 132.58 72.1189 131.859 72.5369C127.031 75.3225 119.205 75.3225 114.379 72.5369C113.658 72.1189 113.044 71.6642 112.54 71.1823V71.1799C111.351 70.0501 110.758 68.7697 110.758 67.4917V58.5088C110.758 60.0413 111.561 61.4749 113.307 62.8395C113.373 62.8965 113.442 62.9481 113.512 63.0001C113.776 63.1979 114.07 63.3758 114.379 63.5537C119.205 66.3422 127.031 66.3422 131.859 63.5537C132.167 63.3758 132.457 63.1906 132.726 63.0001C134.56 61.6947 135.477 60.1006 135.477 58.5088Z" fill="#C5D5FF" stroke="black" stroke-width="0.5" stroke-miterlimit="10" stroke-linecap="round" stroke-linejoin="round"/>
<path d="M114.383 63.5541C114.074 63.3762 113.78 63.1983 113.516 63.0005C113.785 63.1907 114.074 63.3762 114.383 63.5541Z" fill="white" stroke="black" stroke-width="0.5" stroke-miterlimit="10" stroke-linecap="round" stroke-linejoin="round"/>
<path d="M130.555 64.2051V67.9023L131.776 69.1244L131.852 72.5361" stroke="black" stroke-width="0.5" stroke-miterlimit="10" stroke-linecap="round" stroke-linejoin="round"/>
<path d="M114.469 63.6133V67.1766L115.691 68.3987V73.2007" stroke="black" stroke-width="0.5" stroke-miterlimit="10" stroke-linecap="round" stroke-linejoin="round"/>
<path d="M133.327 66.9505C133.289 66.9726 133.267 66.975 133.261 66.9751C133.261 66.9751 133.26 66.9751 133.26 66.9751C133.253 66.968 133.219 66.9255 133.219 66.8013C133.219 66.6705 133.26 66.5176 133.332 66.3796C133.405 66.2394 133.497 66.14 133.577 66.0939C133.616 66.0718 133.638 66.0694 133.644 66.0693C133.644 66.0693 133.644 66.0693 133.645 66.0693C133.651 66.0764 133.686 66.1188 133.686 66.2427C133.686 66.3737 133.645 66.5267 133.573 66.6648C133.5 66.805 133.407 66.9044 133.327 66.9505Z" fill="black" stroke="black" stroke-width="0.5"/>
<path d="M113.023 68.5387L113.023 68.5389C113.103 68.5848 113.195 68.6841 113.268 68.8243C113.34 68.9624 113.381 69.1154 113.381 69.2462C113.381 69.3704 113.347 69.4129 113.34 69.4199C113.34 69.4199 113.339 69.4199 113.339 69.4199C113.333 69.4198 113.311 69.4175 113.273 69.3954C113.193 69.3492 113.101 69.2499 113.027 69.1097C112.955 68.9716 112.914 68.8186 112.914 68.6876C112.914 68.5638 112.949 68.5213 112.955 68.5142C112.955 68.5142 112.956 68.5142 112.956 68.5142C112.962 68.5142 112.984 68.5166 113.023 68.5387Z" fill="black" stroke="black" stroke-width="0.5"/>
<mask id="path-94-inside-4_1953_26895" fill="white">
<path d="M135.477 58.5087C135.477 60.1005 134.56 61.6946 132.726 63C132.457 63.1905 132.167 63.3757 131.859 63.5536C127.031 66.3421 119.205 66.3421 114.379 63.5536C114.07 63.3757 113.776 63.1978 113.512 63C113.442 62.948 113.373 62.8964 113.307 62.8394C111.561 61.4748 110.758 60.0412 110.758 58.5087C110.758 56.6817 111.967 54.8548 114.379 53.4635C119.205 50.6749 127.031 50.6749 131.859 53.4635C134.271 54.8548 135.477 56.6817 135.477 58.5087Z"/>
</mask>
<path d="M135.477 58.5087C135.477 60.1005 134.56 61.6946 132.726 63C132.457 63.1905 132.167 63.3757 131.859 63.5536C127.031 66.3421 119.205 66.3421 114.379 63.5536C114.07 63.3757 113.776 63.1978 113.512 63C113.442 62.948 113.373 62.8964 113.307 62.8394C111.561 61.4748 110.758 60.0412 110.758 58.5087C110.758 56.6817 111.967 54.8548 114.379 53.4635C119.205 50.6749 127.031 50.6749 131.859 53.4635C134.271 54.8548 135.477 56.6817 135.477 58.5087Z" fill="white"/>
<path d="M132.726 63L133.015 63.4081L133.016 63.4074L132.726 63ZM131.859 63.5536L131.609 63.1203L131.609 63.1206L131.859 63.5536ZM114.379 63.5536L114.63 63.1207L114.629 63.1202L114.379 63.5536ZM113.512 63L113.212 63.4L113.212 63.4004L113.512 63ZM113.307 62.8394L113.631 62.4594L113.623 62.4523L113.615 62.4456L113.307 62.8394ZM114.379 53.4635L114.629 53.8966L114.63 53.8964L114.379 53.4635ZM131.859 53.4635L131.609 53.8965L131.609 53.8966L131.859 53.4635ZM134.977 58.5087C134.977 59.8922 134.182 61.3504 132.436 62.5926L133.016 63.4074C134.939 62.0389 135.977 60.3088 135.977 58.5087H134.977ZM132.437 62.5919C132.181 62.7731 131.905 62.9499 131.609 63.1203L132.108 63.9868C132.43 63.8015 132.732 63.608 133.015 63.4081L132.437 62.5919ZM131.609 63.1206C129.289 64.4607 126.217 65.145 123.118 65.145C120.02 65.145 116.948 64.4607 114.63 63.1207L114.129 63.9865C116.636 65.4351 119.89 66.145 123.118 66.145C126.346 66.145 129.601 65.4351 132.109 63.9865L131.609 63.1206ZM114.629 63.1202C114.323 62.9444 114.051 62.7787 113.811 62.5996L113.212 63.4004C113.502 63.617 113.817 63.807 114.13 63.9869L114.629 63.1202ZM113.812 62.6C113.739 62.5456 113.684 62.504 113.631 62.4594L112.982 63.2195C113.063 63.2888 113.146 63.3505 113.212 63.4L113.812 62.6ZM113.615 62.4456C111.944 61.1398 111.258 59.8372 111.258 58.5087H110.258C110.258 60.2452 111.178 61.8098 112.999 63.2333L113.615 62.4456ZM111.258 58.5087C111.258 56.9235 112.308 55.2354 114.629 53.8966L114.13 53.0304C111.626 54.4742 110.258 56.44 110.258 58.5087H111.258ZM114.63 53.8964C116.948 52.5564 120.02 51.8721 123.118 51.8721C126.217 51.8721 129.289 52.5564 131.609 53.8965L132.109 53.0305C129.601 51.582 126.346 50.8721 123.118 50.8721C119.89 50.8721 116.636 51.582 114.129 53.0306L114.63 53.8964ZM131.609 53.8966C133.93 55.2351 134.977 56.9231 134.977 58.5087H135.977C135.977 56.4403 134.612 54.4744 132.108 53.0304L131.609 53.8966Z" fill="black" mask="url(#path-94-inside-4_1953_26895)"/>
<path d="M135.477 58.5087C135.477 60.1005 134.56 61.6946 132.726 63C132.457 63.1905 132.167 63.3757 131.859 63.5536C127.031 66.3421 119.205 66.3421 114.379 63.5536C114.07 63.3757 113.776 63.1978 113.512 63C113.442 62.948 113.373 62.8964 113.307 62.8394C111.561 61.4748 110.758 60.0412 110.758 58.5087C110.758 56.6817 111.967 54.8548 114.379 53.4635C119.205 50.6749 127.031 50.6749 131.859 53.4635C134.271 54.8548 135.477 56.6817 135.477 58.5087V58.5087Z" stroke="black" stroke-width="0.5" stroke-miterlimit="10" stroke-linecap="round" stroke-linejoin="round"/>
<mask id="path-97-inside-5_1953_26895" fill="white">
<path d="M129.978 59.7691C129.642 60.3816 129.051 60.9589 128.208 61.4452C125.398 63.0676 120.839 63.0676 118.029 61.4452C117.186 60.9589 116.598 60.3816 116.259 59.7691C115.472 58.3345 116.063 56.7041 118.029 55.5679C120.839 53.9455 125.398 53.9455 128.208 55.5679C130.177 56.7041 130.767 58.3345 129.978 59.7691Z"/>
</mask>
<path d="M129.978 59.7691C129.642 60.3816 129.051 60.9589 128.208 61.4452C125.398 63.0676 120.839 63.0676 118.029 61.4452C117.186 60.9589 116.598 60.3816 116.259 59.7691C115.472 58.3345 116.063 56.7041 118.029 55.5679C120.839 53.9455 125.398 53.9455 128.208 55.5679C130.177 56.7041 130.767 58.3345 129.978 59.7691Z" fill="#C5D5FF"/>
<path d="M128.208 61.4452L127.958 61.012L127.958 61.0122L128.208 61.4452ZM118.029 61.4452L118.279 61.0122L118.279 61.012L118.029 61.4452ZM116.259 59.7691L115.82 60.0095L115.821 60.0111L116.259 59.7691ZM118.029 55.5679L117.779 55.1349L117.779 55.135L118.029 55.5679ZM128.208 55.5679L127.958 56.0009L127.958 56.001L128.208 55.5679ZM129.539 59.5288C129.258 60.0415 128.744 60.559 127.958 61.012L128.457 61.8783C129.358 61.3588 130.026 60.7218 130.416 60.0094L129.539 59.5288ZM127.958 61.0122C126.647 61.7691 124.896 62.162 123.118 62.162C121.341 62.162 119.59 61.7691 118.279 61.0122L117.779 61.8782C119.278 62.7436 121.212 63.162 123.118 63.162C125.025 63.162 126.959 62.7436 128.458 61.8782L127.958 61.0122ZM118.279 61.012C117.494 60.5596 116.981 60.0419 116.696 59.5271L115.821 60.0111C116.214 60.7214 116.877 61.3582 117.779 61.8783L118.279 61.012ZM116.697 59.5287C116.374 58.9383 116.338 58.329 116.575 57.7442C116.817 57.1466 117.363 56.5305 118.279 56.0008L117.779 55.135C116.73 55.7415 115.997 56.5087 115.648 57.3689C115.295 58.242 115.358 59.1653 115.82 60.0095L116.697 59.5287ZM118.279 56.0009C119.59 55.2439 121.341 54.8511 123.118 54.8511C124.896 54.8511 126.647 55.2439 127.958 56.0009L128.458 55.1349C126.959 54.2694 125.025 53.8511 123.118 53.8511C121.212 53.8511 119.278 54.2694 117.779 55.1349L118.279 56.0009ZM127.958 56.001C128.876 56.5307 129.422 57.1468 129.664 57.7442C129.9 58.3286 129.865 58.9376 129.54 59.528L130.416 60.0102C130.88 59.166 130.944 58.2425 130.591 57.369C130.242 56.5085 129.508 55.7412 128.457 55.1348L127.958 56.001Z" fill="black" mask="url(#path-97-inside-5_1953_26895)"/>
<path d="M129.978 59.7691C129.642 60.3816 129.051 60.9589 128.208 61.4452C125.398 63.0676 120.839 63.0676 118.029 61.4452C117.186 60.9589 116.598 60.3816 116.259 59.7691C115.472 58.3345 116.063 56.7041 118.029 55.5679C120.839 53.9455 125.398 53.9455 128.208 55.5679C130.177 56.7041 130.767 58.3345 129.978 59.7691V59.7691Z" stroke="black" stroke-width="0.5" stroke-miterlimit="10" stroke-linecap="round" stroke-linejoin="round"/>
<path d="M129.984 59.7694C129.649 60.3819 129.058 60.9591 128.214 61.4454C125.404 63.0679 120.846 63.0679 118.036 61.4454C117.193 60.9591 116.604 60.3819 116.266 59.7694C116.604 59.1568 117.193 58.5793 118.036 58.0933C120.846 56.4709 125.404 56.4709 128.214 58.0933C129.058 58.5793 129.649 59.1568 129.984 59.7694Z" fill="#1B58F1" stroke="black" stroke-width="0.5" stroke-miterlimit="10" stroke-linecap="round" stroke-linejoin="round"/>
<path d="M137.775 57.9858C137.783 58.8001 137.621 59.6185 137.249 60.34C136.965 60.8912 133.278 65.1014 126.401 66.1796C125.91 66.2565 125.4 66.3172 124.877 66.3618C124.31 66.4104 123.722 66.4347 123.118 66.4347H123.11C114.127 66.4347 109.309 60.9765 108.984 60.34C108.611 59.6185 108.45 58.8001 108.453 57.9858C108.628 25.4259 119.678 20.7658 122.474 20.1093C122.879 20.012 123.11 20 123.11 20H123.118C123.118 20 124.496 20.0689 126.405 21.2561C130.684 23.9184 137.642 32.2095 137.775 57.9858Z" fill="#1B58F1" stroke="black" stroke-width="0.5" stroke-miterlimit="10"/>
<path d="M137.784 57.9856C137.792 58.8 137.63 59.6183 137.257 60.3398C136.974 60.891 133.286 65.1012 126.41 66.1794C119.537 65.0976 115.854 60.895 115.57 60.3398C115.197 59.6183 115.035 58.8 115.039 57.9856C115.177 32.201 122.135 23.9142 126.414 21.2559C130.693 23.9182 137.651 32.2093 137.784 57.9856Z" fill="#C5D5FF" stroke="black" stroke-width="0.5" stroke-miterlimit="10" stroke-linecap="round" stroke-linejoin="round"/>
<path d="M124.794 120.819H121.44C121.072 120.819 120.773 120.52 120.773 120.153V113.933C120.773 113.565 121.072 113.267 121.44 113.267H124.794C125.162 113.267 125.46 113.565 125.46 113.933V120.153C125.46 120.52 125.162 120.819 124.794 120.819Z" fill="#C5D5FF" stroke="black" stroke-width="0.5" stroke-miterlimit="10" stroke-linecap="round" stroke-linejoin="round"/>
<path d="M113.915 119.083L111.311 117.444C110.967 117.227 110.758 116.849 110.758 116.442V110.6C110.758 110.289 111.1 110.1 111.363 110.265L113.967 111.905C114.311 112.122 114.52 112.5 114.52 112.907V118.749C114.52 119.06 114.178 119.249 113.915 119.083Z" fill="#C5D5FF" stroke="black" stroke-width="0.5" stroke-miterlimit="10" stroke-linecap="round" stroke-linejoin="round"/>
<path d="M132.316 119.083L134.919 117.444C135.264 117.227 135.473 116.849 135.473 116.442V110.6C135.473 110.289 135.13 110.1 134.868 110.265L132.264 111.905C131.92 112.122 131.711 112.5 131.711 112.907V118.749C131.711 119.06 132.053 119.249 132.316 119.083Z" fill="#C5D5FF" stroke="black" stroke-width="0.5" stroke-miterlimit="10" stroke-linecap="round" stroke-linejoin="round"/>
<path d="M110.89 96.8393L110.89 96.8392C110.73 96.7471 110.566 96.563 110.44 96.3229C110.315 96.085 110.242 95.8171 110.242 95.5799C110.242 95.3367 110.317 95.2215 110.369 95.1817C110.406 95.1538 110.486 95.1237 110.64 95.2125L110.765 94.996L110.639 95.2124C110.799 95.3047 110.964 95.4889 111.089 95.729C111.214 95.9669 111.287 96.2347 111.287 96.4719C111.287 96.715 111.213 96.8302 111.16 96.87C111.123 96.898 111.043 96.928 110.89 96.8393Z" fill="black" stroke="black" stroke-width="0.5"/>
<path d="M110.89 130.149L110.89 130.149C110.73 130.057 110.566 129.873 110.44 129.633C110.315 129.395 110.242 129.127 110.242 128.89C110.242 128.647 110.316 128.532 110.369 128.492C110.406 128.464 110.486 128.434 110.64 128.523L110.765 128.306L110.639 128.522C110.799 128.615 110.964 128.799 111.089 129.039C111.214 129.277 111.287 129.545 111.287 129.782C111.287 130.025 111.213 130.14 111.16 130.18C111.123 130.208 111.043 130.238 110.89 130.149Z" fill="black" stroke="black" stroke-width="0.5"/>
<path d="M135.351 96.8392C135.197 96.928 135.117 96.898 135.08 96.87C135.027 96.8302 134.953 96.7151 134.953 96.4719C134.953 96.2346 135.026 95.9668 135.151 95.7289C135.276 95.4889 135.441 95.3048 135.601 95.2124C135.754 95.1237 135.834 95.1538 135.871 95.1817C135.924 95.2215 135.998 95.3367 135.998 95.5799C135.998 95.8171 135.925 96.085 135.8 96.3229C135.675 96.563 135.51 96.7471 135.351 96.8392Z" fill="black" stroke="black" stroke-width="0.5"/>
<path d="M135.351 130.149L135.35 130.149C135.197 130.238 135.117 130.208 135.08 130.18C135.027 130.14 134.953 130.025 134.953 129.782C134.953 129.545 135.026 129.277 135.151 129.039C135.276 128.799 135.441 128.615 135.601 128.522C135.754 128.434 135.834 128.464 135.871 128.492C135.924 128.532 135.998 128.647 135.998 128.89C135.998 129.127 135.925 129.395 135.8 129.633C135.675 129.873 135.51 130.057 135.351 130.149Z" fill="black" stroke="black" stroke-width="0.5"/>
<path d="M123.913 99.9815C123.913 100.421 123.557 100.778 123.117 100.778C122.677 100.778 122.32 100.421 122.32 99.9815C122.32 99.5414 122.677 99.1846 123.117 99.1846C123.557 99.1846 123.913 99.5416 123.913 99.9815Z" fill="black" stroke="black" stroke-width="0.5"/>
<path d="M123.913 133.629C123.913 134.068 123.557 134.425 123.117 134.425C122.677 134.425 122.32 134.069 122.32 133.629C122.32 133.189 122.677 132.832 123.117 132.832C123.557 132.832 123.913 133.189 123.913 133.629Z" fill="black" stroke="black" stroke-width="0.5"/>
<path d="M139.525 200.163V203.232C139.525 203.232 137.463 205.983 132.352 205.983C127.246 205.983 125.18 203.232 125.18 203.232V200.163C125.18 200.163 127.246 202.915 132.352 202.915C137.463 202.915 139.525 200.163 139.525 200.163Z" fill="#1B58F1" stroke="black" stroke-width="0.5" stroke-miterlimit="10"/>
<path d="M139.525 194.772V200.163C139.525 200.163 137.463 202.914 132.352 202.914C127.246 202.914 125.18 200.163 125.18 200.163V194.772C125.18 194.772 127.246 197.524 132.352 197.524C137.463 197.524 139.525 194.772 139.525 194.772Z" fill="#C5D5FF" stroke="black" stroke-width="0.5" stroke-miterlimit="10" stroke-linecap="round" stroke-linejoin="round"/>
<path d="M139.526 170.382V194.773C139.526 194.773 137.463 197.524 132.353 197.524C130.641 197.524 129.276 197.215 128.211 196.806L128.32 196.772V172.452L132.353 154.717L139.526 170.382Z" fill="white" stroke="black" stroke-width="0.5" stroke-miterlimit="10" stroke-linecap="round" stroke-linejoin="round"/>
<path d="M132.352 154.717L128.319 172.452V196.773L128.21 196.806C126.094 195.992 125.18 194.773 125.18 194.773V170.382L132.352 154.717Z" fill="white" stroke="black" stroke-width="0.5" stroke-miterlimit="10" stroke-linecap="round" stroke-linejoin="round"/>
<path d="M125.18 170.381C125.18 170.381 127.242 173.132 132.351 173.132C137.459 173.132 139.522 170.381 139.522 170.381" stroke="black" stroke-width="0.5" stroke-miterlimit="10"/>
<path d="M121.049 200.163V203.232C121.049 203.232 118.987 205.983 113.876 205.983C108.77 205.983 106.703 203.232 106.703 203.232V200.163C106.703 200.163 108.77 202.915 113.876 202.915C118.987 202.915 121.049 200.163 121.049 200.163Z" fill="#1B58F1" stroke="black" stroke-width="0.5" stroke-miterlimit="10"/>
<path d="M121.049 194.773V200.163C121.049 200.163 118.987 202.914 113.876 202.914C108.77 202.914 106.703 200.163 106.703 200.163V194.773C106.703 194.773 108.77 197.525 113.876 197.525C118.987 197.525 121.049 194.773 121.049 194.773Z" fill="#C5D5FF" stroke="black" stroke-width="0.5" stroke-miterlimit="10" stroke-linecap="round" stroke-linejoin="round"/>
<path d="M121.049 170.382V194.773C121.049 194.773 118.987 197.524 113.876 197.524C112.164 197.524 110.799 197.215 109.734 196.806L109.843 196.772V172.452L113.876 154.717L121.049 170.382Z" fill="white" stroke="black" stroke-width="0.5" stroke-miterlimit="10" stroke-linecap="round" stroke-linejoin="round"/>
<path d="M113.876 154.717L109.843 172.452V196.773L109.735 196.806C107.618 195.992 106.703 194.773 106.703 194.773V170.382L113.876 154.717Z" fill="white" stroke="black" stroke-width="0.5" stroke-miterlimit="10" stroke-linecap="round" stroke-linejoin="round"/>
<path d="M106.703 170.381C106.703 170.381 108.766 173.132 113.874 173.132C118.983 173.132 121.046 170.381 121.046 170.381" stroke="black" stroke-width="0.5" stroke-miterlimit="10"/>
</svg>
